<svg width="660" height="583" viewBox="0 0 660 583" fill="none" xmlns="http://www.w3.org/2000/svg">
<rect x="0.929443" y="161.969" width="176.042" height="158.82" rx="38.27" transform="rotate(-20 0.929443 161.969)" fill="#180768"/>
<mask id="mask0" mask-type="alpha" maskUnits="userSpaceOnUse" x="0" y="101" width="221" height="211">
<path d="M179.445 137.724C172.216 117.862 150.255 107.622 130.393 114.851L36.8922 148.882C17.031 156.111 6.79043 178.072 14.0193 197.934L42.1609 275.252C49.3898 295.113 71.3507 305.354 91.212 298.125L184.713 264.093C204.575 256.864 214.815 234.903 207.586 215.042L179.445 137.724Z" fill="#FFC63A"/>
</mask>
<g mask="url(#mask0)">
<circle cx="50.4074" cy="156.179" r="61.232" transform="rotate(160 50.4074 156.179)" stroke="white" stroke-opacity="0.25" stroke-width="51.3404"/>
<circle cx="516.679" cy="323.099" r="377.589" transform="rotate(40 516.679 323.099)" stroke="white" stroke-opacity="0.3" stroke-width="2.56702"/>
<circle cx="-260.37" cy="244.899" r="377.589" transform="rotate(40 -260.37 244.899)" stroke="white" stroke-opacity="0.2" stroke-width="2.56702"/>
</g>
<rect x="230" y="375.771" width="186.453" height="168.213" rx="40.5333" transform="rotate(-20 230 375.771)" fill="#C0BFDB"/>
<mask id="mask1" mask-type="alpha" maskUnits="userSpaceOnUse" x="230" y="312" width="233" height="222">
<path d="M419.073 350.091C411.416 329.056 388.157 318.209 367.121 325.866L268.09 361.91C247.054 369.567 236.208 392.826 243.864 413.862L273.67 495.753C281.327 516.789 304.586 527.635 325.622 519.979L424.653 483.935C445.689 476.278 456.535 453.018 448.879 431.982L419.073 350.091Z" fill="#FFC63A"/>
</mask>
<g mask="url(#mask1)">
<circle cx="282.404" cy="369.638" r="64.8533" transform="rotate(160 282.404 369.638)" stroke="white" stroke-opacity="0.25" stroke-width="54.3767"/>
<circle cx="776.251" cy="546.43" r="399.92" transform="rotate(40 776.251 546.43)" stroke="white" stroke-opacity="0.3" stroke-width="2.71884"/>
<circle cx="-46.7533" cy="463.605" r="399.92" transform="rotate(40 -46.7533 463.605)" stroke="white" stroke-opacity="0.2" stroke-width="2.71884"/>
</g>
<g filter="url(#filter0_d)">
<rect x="113" y="36" width="598" height="415" rx="23.9467" fill="#EFF1FA"/>
</g>
<rect x="342" y="53" width="384" height="381" rx="22.0751" fill="white"/>
<mask id="mask2" mask-type="alpha" maskUnits="userSpaceOnUse" x="342" y="53" width="385" height="389">
<rect x="342" y="53.0005" width="384" height="388" rx="22.0751" fill="white"/>
</mask>
<g mask="url(#mask2)">
<rect opacity="0.7" x="353" y="246" width="202.927" height="103.792" rx="11.976" fill="white"/>
<rect x="367.635" y="313.432" width="88.6651" height="8.61831" rx="4.30915" fill="#EDEFF8"/>
<rect x="368" y="331.532" width="167.954" height="8.61831" rx="4.30915" fill="#EDEFF8"/>
<rect x="368" y="349.532" width="167.954" height="8.61831" rx="4.30915" fill="#EDEFF8"/>
<rect x="367.635" y="284.254" width="44.5394" height="6.79123" rx="3.39561" fill="#B8C1E3"/>
<rect x="600.635" y="313.432" width="88.6651" height="8.61831" rx="4.30915" fill="#EDEFF8"/>
<rect x="601" y="331.532" width="167.954" height="8.61831" rx="4.30915" fill="#EDEFF8"/>
<rect x="601" y="349.532" width="167.954" height="8.61831" rx="4.30915" fill="#EDEFF8"/>
<rect x="600.635" y="284.254" width="44.5394" height="6.79123" rx="3.39561" fill="#B8C1E3"/>
<rect x="349" y="107" width="427.355" height="143.219" rx="6.9021" fill="white"/>
<g clip-path="url(#clip0)">
<path opacity="0.8" d="M383.511 171.293L723.906 171.293" stroke="#D3D3D3" stroke-width="0.411354" stroke-linecap="square" stroke-dasharray="0.82 1.65"/>
<path opacity="0.8" d="M383.512 155.354L723.907 155.354" stroke="#D3D3D3" stroke-width="0.411354" stroke-linecap="square" stroke-dasharray="0.82 1.65"/>
<path opacity="0.8" d="M383.512 187.234L723.907 187.234" stroke="#D3D3D3" stroke-width="0.411354" stroke-linecap="square" stroke-dasharray="0.82 1.65"/>
<path opacity="0.8" d="M383.51 203.175L723.906 203.175" stroke="#D3D3D3" stroke-width="0.411354" stroke-linecap="square" stroke-dasharray="0.82 1.65"/>
<path opacity="0.8" d="M384.54 219.063L724.936 219.063" stroke="#D3D3D3" stroke-width="0.411354" stroke-linecap="square" stroke-dasharray="0.82 1.65"/>
<path d="M426.914 229.294H427.499C427.499 228.869 427.844 228.557 428.3 228.557C428.723 228.557 428.999 228.844 428.999 229.211C428.999 229.523 428.877 229.728 428.353 230.264L426.947 231.68V232.106H429.673V231.584H427.775V231.57L428.681 230.661C429.394 229.949 429.609 229.631 429.609 229.173C429.609 228.546 429.082 228.046 428.3 228.046C427.499 228.046 426.914 228.571 426.914 229.294ZM431.681 232.18C432.639 232.18 433.202 231.377 433.202 230.106C433.202 228.844 432.633 228.046 431.681 228.046C430.728 228.046 430.153 228.847 430.153 230.109C430.153 231.379 430.719 232.18 431.681 232.18ZM431.681 231.661C431.103 231.661 430.78 231.073 430.78 230.109C430.78 229.159 431.112 228.565 431.681 228.565C432.249 228.565 432.578 229.156 432.578 230.109C432.578 231.076 432.255 231.661 431.681 231.661ZM434.716 232.106H435.321V228.12H434.71L433.661 228.866V229.452L434.702 228.734H434.716V232.106ZM438.187 232.106H438.781V231.313H439.331V230.794H438.781V228.12H437.886C436.991 229.419 436.536 230.134 436.193 230.775V231.313H438.187V232.106ZM436.768 230.786C437.085 230.219 437.491 229.59 438.182 228.601H438.193V230.802H436.768V230.786Z" fill="#45465A"/>
<path d="M459.624 229.294H460.209C460.209 228.869 460.554 228.557 461.01 228.557C461.433 228.557 461.709 228.844 461.709 229.211C461.709 229.523 461.587 229.728 461.062 230.264L459.657 231.68V232.106H462.383V231.584H460.485V231.57L461.391 230.661C462.104 229.949 462.319 229.631 462.319 229.173C462.319 228.546 461.792 228.046 461.01 228.046C460.209 228.046 459.624 228.571 459.624 229.294ZM464.39 232.18C465.349 232.18 465.912 231.377 465.912 230.106C465.912 228.844 465.343 228.046 464.39 228.046C463.438 228.046 462.863 228.847 462.863 230.109C462.863 231.379 463.429 232.18 464.39 232.18ZM464.39 231.661C463.813 231.661 463.49 231.073 463.49 230.109C463.49 229.159 463.821 228.565 464.39 228.565C464.959 228.565 465.288 229.156 465.288 230.109C465.288 231.076 464.965 231.661 464.39 231.661ZM467.426 232.106H468.03V228.12H467.42L466.371 228.866V229.452L467.412 228.734H467.426V232.106ZM470.428 232.18C471.289 232.18 471.891 231.614 471.891 230.799C471.891 230.037 471.342 229.485 470.58 229.485C470.187 229.485 469.856 229.637 469.676 229.905H469.663L469.784 228.642H471.659V228.12H469.284L469.088 230.418H469.629C469.798 230.126 470.082 229.974 470.439 229.974C470.936 229.974 471.287 230.324 471.287 230.816C471.287 231.313 470.939 231.664 470.433 231.664C469.989 231.664 469.652 231.393 469.607 230.998H469.016C469.052 231.694 469.632 232.18 470.428 232.18Z" fill="#45465A"/>
<path d="M491.973 229.296H492.558C492.558 228.871 492.904 228.559 493.359 228.559C493.782 228.559 494.058 228.846 494.058 229.213C494.058 229.525 493.936 229.73 493.412 230.265L492.006 231.682V232.107H494.732V231.585H492.835V231.572L493.74 230.663C494.453 229.95 494.668 229.633 494.668 229.174C494.668 228.547 494.141 228.048 493.359 228.048C492.558 228.048 491.973 228.572 491.973 229.296ZM496.74 232.182C497.698 232.182 498.261 231.378 498.261 230.108C498.261 228.846 497.693 228.048 496.74 228.048C495.787 228.048 495.212 228.849 495.212 230.111C495.212 231.381 495.779 232.182 496.74 232.182ZM496.74 231.663C496.162 231.663 495.839 231.075 495.839 230.111C495.839 229.161 496.171 228.567 496.74 228.567C497.309 228.567 497.637 229.158 497.637 230.111C497.637 231.077 497.314 231.663 496.74 231.663ZM499.775 232.107H500.38V228.122H499.769L498.72 228.868V229.453L499.761 228.735H499.775V232.107ZM502.852 232.185C503.694 232.185 504.307 231.605 504.307 230.804C504.307 230.05 503.757 229.492 502.995 229.492C502.454 229.492 502.051 229.774 501.89 230.136H501.879C501.888 229.144 502.236 228.564 502.868 228.564C503.249 228.564 503.525 228.757 503.633 229.089H504.254C504.136 228.462 503.586 228.045 502.874 228.045C501.877 228.045 501.286 228.835 501.286 230.169C501.286 231.613 502.04 232.185 502.852 232.185ZM502.843 231.663C502.371 231.663 502.001 231.287 502.001 230.812C502.001 230.34 502.363 229.995 502.852 229.995C503.34 229.995 503.691 230.343 503.691 230.826C503.691 231.293 503.315 231.663 502.843 231.663Z" fill="#45465A"/>
<path d="M525.305 229.294H525.89C525.89 228.869 526.235 228.557 526.691 228.557C527.113 228.557 527.39 228.844 527.39 229.211C527.39 229.523 527.268 229.728 526.743 230.264L525.338 231.68V232.106H528.064V231.584H526.166V231.57L527.072 230.661C527.785 229.949 528 229.631 528 229.173C528 228.546 527.473 228.046 526.691 228.046C525.89 228.046 525.305 228.571 525.305 229.294ZM530.071 232.18C531.03 232.18 531.593 231.377 531.593 230.106C531.593 228.844 531.024 228.046 530.071 228.046C529.119 228.046 528.544 228.847 528.544 230.109C528.544 231.379 529.11 232.18 530.071 232.18ZM530.071 231.661C529.494 231.661 529.171 231.073 529.171 230.109C529.171 229.159 529.502 228.565 530.071 228.565C530.64 228.565 530.969 229.156 530.969 230.109C530.969 231.076 530.646 231.661 530.071 231.661ZM533.107 232.106H533.711V228.12H533.101L532.052 228.866V229.452L533.093 228.734H533.107V232.106ZM534.904 232.106H535.553L537.285 228.656V228.12H534.573V228.642H536.675V228.656L534.904 232.106Z" fill="#45465A"/>
<path d="M557.267 229.193H557.852C557.852 228.768 558.197 228.456 558.653 228.456C559.076 228.456 559.352 228.743 559.352 229.11C559.352 229.422 559.23 229.627 558.705 230.163L557.3 231.579V232.005H560.026V231.483H558.128V231.469L559.034 230.56C559.747 229.848 559.962 229.53 559.962 229.072C559.962 228.445 559.435 227.945 558.653 227.945C557.852 227.945 557.267 228.47 557.267 229.193ZM562.033 232.079C562.992 232.079 563.555 231.276 563.555 230.005C563.555 228.743 562.986 227.945 562.033 227.945C561.081 227.945 560.506 228.746 560.506 230.008C560.506 231.278 561.072 232.079 562.033 232.079ZM562.033 231.56C561.456 231.56 561.133 230.972 561.133 230.008C561.133 229.058 561.464 228.464 562.033 228.464C562.602 228.464 562.931 229.055 562.931 230.008C562.931 230.975 562.608 231.56 562.033 231.56ZM565.069 232.005H565.673V228.02H565.063L564.014 228.765V229.351L565.055 228.633H565.069V232.005ZM568.084 232.079C568.965 232.079 569.592 231.604 569.592 230.928C569.592 230.422 569.233 230.022 568.709 229.906V229.892C569.159 229.759 569.443 229.422 569.443 229.005C569.443 228.39 568.877 227.945 568.084 227.945C567.295 227.945 566.72 228.392 566.72 229.003C566.72 229.425 567.01 229.765 567.46 229.892V229.906C566.936 230.019 566.577 230.42 566.577 230.928C566.577 231.602 567.201 232.079 568.084 232.079ZM568.084 231.582C567.576 231.582 567.215 231.289 567.215 230.883C567.215 230.475 567.576 230.182 568.084 230.182C568.593 230.182 568.952 230.472 568.952 230.883C568.952 231.289 568.593 231.582 568.084 231.582ZM568.084 229.685C567.643 229.685 567.336 229.425 567.336 229.061C567.336 228.693 567.643 228.437 568.084 228.437C568.524 228.437 568.833 228.693 568.833 229.061C568.833 229.425 568.521 229.685 568.084 229.685Z" fill="#45465A"/>
<path d="M395.281 229.294H395.867C395.867 228.869 396.212 228.557 396.667 228.557C397.09 228.557 397.366 228.844 397.366 229.211C397.366 229.523 397.245 229.728 396.72 230.264L395.314 231.68V232.106H398.04V231.584H396.143V231.57L397.049 230.661C397.761 229.949 397.977 229.631 397.977 229.173C397.977 228.546 397.449 228.046 396.667 228.046C395.867 228.046 395.281 228.571 395.281 229.294ZM400.048 232.18C401.006 232.18 401.57 231.377 401.57 230.106C401.57 228.844 401.001 228.046 400.048 228.046C399.095 228.046 398.521 228.847 398.521 230.109C398.521 231.379 399.087 232.18 400.048 232.18ZM400.048 231.661C399.471 231.661 399.148 231.073 399.148 230.109C399.148 229.159 399.479 228.565 400.048 228.565C400.617 228.565 400.945 229.156 400.945 230.109C400.945 231.076 400.622 231.661 400.048 231.661ZM403.083 232.106H403.688V228.12H403.078L402.028 228.866V229.452L403.069 228.734H403.083V232.106ZM405.524 230.291H406.008C406.541 230.291 406.869 230.545 406.867 231.001C406.864 231.388 406.538 231.664 406.052 231.664C405.552 231.664 405.212 231.413 405.182 231.023H404.588C404.627 231.708 405.199 232.18 406.052 232.18C406.883 232.18 407.496 231.702 407.496 231.001C407.496 230.443 407.104 230.087 406.519 230.034V230.021C407.008 229.918 407.358 229.584 407.358 229.084C407.358 228.491 406.858 228.046 406.046 228.046C405.268 228.046 404.724 228.491 404.674 229.187H405.254C405.284 228.789 405.605 228.554 406.046 228.554C406.516 228.554 406.756 228.797 406.756 229.17C406.756 229.543 406.447 229.811 405.991 229.811H405.524V230.291Z" fill="#45465A"/>
<path d="M370.62 220.736C370.307 220.736 370.028 220.657 369.783 220.499C369.541 220.336 369.351 220.103 369.212 219.797C369.072 219.492 369.002 219.13 369.002 218.711C369.002 218.293 369.072 217.931 369.212 217.625C369.351 217.32 369.541 217.088 369.783 216.93C370.028 216.767 370.307 216.686 370.62 216.686C370.929 216.686 371.204 216.767 371.446 216.93C371.691 217.088 371.883 217.32 372.023 217.625C372.162 217.931 372.232 218.293 372.232 218.711C372.232 219.13 372.162 219.492 372.023 219.797C371.883 220.103 371.691 220.336 371.446 220.499C371.204 220.657 370.929 220.736 370.62 220.736ZM370.62 220.233C370.937 220.233 371.189 220.103 371.378 219.842C371.57 219.582 371.666 219.205 371.666 218.711C371.666 218.217 371.57 217.84 371.378 217.58C371.189 217.32 370.937 217.19 370.62 217.19C370.299 217.19 370.043 217.32 369.851 217.58C369.662 217.84 369.568 218.217 369.568 218.711C369.568 219.205 369.662 219.582 369.851 219.842C370.043 220.103 370.299 220.233 370.62 220.233ZM374.183 219.294L373.561 219.871V220.691H373.018V216.494H373.561V219.186L375.196 217.693H375.852L374.59 218.932L375.976 220.691H375.309L374.183 219.294Z" fill="#45465A"/>
<rect x="399.642" y="150.417" width="4.11354" height="70.9586" rx="2.05677" fill="#FDFDFD"/>
<rect x="431.008" y="150.417" width="4.11354" height="70.9586" rx="2.05677" fill="#FDFDFD"/>
<rect x="463.402" y="150.417" width="4.11354" height="70.9586" rx="2.05677" fill="#FDFDFD"/>
<rect x="495.796" y="150.417" width="4.11354" height="70.9586" rx="2.05677" fill="#FDFDFD"/>
<rect x="528.704" y="150.417" width="4.11354" height="70.9586" rx="2.05677" fill="#FDFDFD"/>
<rect x="561.098" y="150.417" width="4.11354" height="70.9586" rx="2.05677" fill="#FDFDFD"/>
<rect x="399.642" y="161.216" width="4.11354" height="60.1606" rx="2.05677" fill="#B8C1E3" fill-opacity="0.45"/>
<rect x="431.008" y="175.098" width="4.11354" height="46.2774" rx="2.05677" fill="#B8C1E3" fill-opacity="0.45"/>
<rect x="463.402" y="165.844" width="4.11354" height="55.5328" rx="2.05677" fill="#B8C1E3" fill-opacity="0.45"/>
<rect x="495.796" y="188.468" width="4.11354" height="32.9083" rx="2.05677" fill="#B8C1E3" fill-opacity="0.45"/>
<rect x="528.704" y="159.673" width="4.11354" height="61.7031" rx="2.05677" fill="#B8C1E3" fill-opacity="0.45"/>
<rect x="561.098" y="179.726" width="4.11354" height="41.6496" rx="2.05677" fill="#B8CDFA"/>
<path d="M588.641 229.294H589.226C589.226 228.869 589.572 228.557 590.027 228.557C590.45 228.557 590.726 228.844 590.726 229.211C590.726 229.523 590.605 229.728 590.08 230.264L588.674 231.68V232.106H591.4V231.584H589.503V231.57L590.408 230.661C591.121 229.949 591.336 229.631 591.336 229.173C591.336 228.546 590.809 228.046 590.027 228.046C589.226 228.046 588.641 228.571 588.641 229.294ZM593.408 232.18C594.366 232.18 594.93 231.377 594.93 230.106C594.93 228.844 594.361 228.046 593.408 228.046C592.455 228.046 591.881 228.847 591.881 230.109C591.881 231.379 592.447 232.18 593.408 232.18ZM593.408 231.661C592.831 231.661 592.507 231.073 592.507 230.109C592.507 229.159 592.839 228.565 593.408 228.565C593.977 228.565 594.305 229.156 594.305 230.109C594.305 231.076 593.982 231.661 593.408 231.661ZM596.443 232.106H597.048V228.12H596.437L595.388 228.866V229.452L596.429 228.734H596.443V232.106ZM599.359 232.18C600.356 232.18 600.947 231.39 600.947 230.056C600.947 228.568 600.149 228.043 599.379 228.043C598.536 228.043 597.923 228.623 597.923 229.424C597.923 230.189 598.495 230.736 599.246 230.736C599.76 230.736 600.18 230.476 600.34 230.087H600.351C600.345 231.07 600.014 231.667 599.365 231.667C598.978 231.667 598.691 231.487 598.589 231.15H597.967C598.081 231.769 598.639 232.18 599.359 232.18ZM599.379 230.233C598.895 230.233 598.536 229.885 598.536 229.402C598.536 228.938 598.912 228.571 599.387 228.571C599.862 228.571 600.232 228.941 600.232 229.416C600.232 229.888 599.868 230.233 599.379 230.233Z" fill="#45465A"/>
<rect x="594.006" y="150.417" width="4.11354" height="70.9586" rx="2.05677" fill="#FDFDFD"/>
<rect x="594.006" y="159.673" width="4.11354" height="61.7031" rx="2.05677" fill="#B8CDFA"/>
<rect x="399.642" y="180.756" width="4.11354" height="40.6212" rx="2.05677" fill="#1C62F5"/>
<rect x="431.007" y="190.01" width="4.11354" height="31.3658" rx="2.05677" fill="#1C62F5"/>
<rect x="463.402" y="183.841" width="4.11354" height="37.5361" rx="2.05677" fill="#1C62F5"/>
<rect x="495.796" y="199.266" width="4.11354" height="22.1103" rx="2.05677" fill="#1C62F5"/>
<rect x="528.704" y="179.726" width="4.11354" height="41.6496" rx="2.05677" fill="#1C62F5"/>
<rect x="561.098" y="193.096" width="4.11354" height="28.2806" rx="2.05677" fill="#1C62F5"/>
<rect x="594.007" y="179.726" width="4.11354" height="41.6496" rx="2.05677" fill="#1C62F5"/>
<path d="M623.515 229.294H624.1C624.1 228.869 624.446 228.557 624.901 228.557C625.324 228.557 625.6 228.844 625.6 229.211C625.6 229.523 625.479 229.728 624.954 230.264L623.548 231.68V232.106H626.274V231.584H624.377V231.57L625.283 230.661C625.995 229.949 626.21 229.631 626.21 229.173C626.21 228.546 625.683 228.046 624.901 228.046C624.1 228.046 623.515 228.571 623.515 229.294ZM628.282 232.18C629.24 232.18 629.804 231.377 629.804 230.106C629.804 228.844 629.235 228.046 628.282 228.046C627.329 228.046 626.755 228.847 626.755 230.109C626.755 231.379 627.321 232.18 628.282 232.18ZM628.282 231.661C627.705 231.661 627.381 231.073 627.381 230.109C627.381 229.159 627.713 228.565 628.282 228.565C628.851 228.565 629.179 229.156 629.179 230.109C629.179 231.076 628.856 231.661 628.282 231.661ZM631.317 232.106H631.922V228.12H631.311L630.262 228.866V229.452L631.303 228.734H631.317V232.106ZM633.115 232.106H633.764L635.496 228.656V228.12H632.784V228.642H634.885V228.656L633.115 232.106Z" fill="#45465A"/>
<path d="M657.021 229.193H657.607C657.607 228.768 657.952 228.456 658.408 228.456C658.83 228.456 659.106 228.743 659.106 229.11C659.106 229.422 658.985 229.627 658.46 230.163L657.054 231.579V232.005H659.78V231.483H657.883V231.469L658.789 230.56C659.501 229.848 659.717 229.53 659.717 229.072C659.717 228.445 659.189 227.945 658.408 227.945C657.607 227.945 657.021 228.47 657.021 229.193ZM661.788 232.079C662.746 232.079 663.31 231.276 663.31 230.005C663.31 228.743 662.741 227.945 661.788 227.945C660.835 227.945 660.261 228.746 660.261 230.008C660.261 231.278 660.827 232.079 661.788 232.079ZM661.788 231.56C661.211 231.56 660.888 230.972 660.888 230.008C660.888 229.058 661.219 228.464 661.788 228.464C662.357 228.464 662.686 229.055 662.686 230.008C662.686 230.975 662.362 231.56 661.788 231.56ZM664.823 232.005H665.428V228.02H664.818L663.768 228.765V229.351L664.809 228.633H664.823V232.005ZM667.839 232.079C668.72 232.079 669.347 231.604 669.347 230.928C669.347 230.422 668.988 230.022 668.463 229.906V229.892C668.913 229.759 669.198 229.422 669.198 229.005C669.198 228.39 668.632 227.945 667.839 227.945C667.049 227.945 666.475 228.392 666.475 229.003C666.475 229.425 666.765 229.765 667.215 229.892V229.906C666.69 230.019 666.331 230.42 666.331 230.928C666.331 231.602 666.955 232.079 667.839 232.079ZM667.839 231.582C667.331 231.582 666.969 231.289 666.969 230.883C666.969 230.475 667.331 230.182 667.839 230.182C668.347 230.182 668.706 230.472 668.706 230.883C668.706 231.289 668.347 231.582 667.839 231.582ZM667.839 229.685C667.397 229.685 667.091 229.425 667.091 229.061C667.091 228.693 667.397 228.437 667.839 228.437C668.278 228.437 668.587 228.693 668.587 229.061C668.587 229.425 668.275 229.685 667.839 229.685Z" fill="#45465A"/>
<rect x="626.915" y="150.417" width="4.11354" height="70.9586" rx="2.05677" fill="#FDFDFD"/>
<rect x="626.915" y="159.673" width="4.11354" height="61.7031" rx="2.05677" fill="#B8CDFA"/>
<rect x="626.915" y="179.726" width="4.11354" height="41.6496" rx="2.05677" fill="#1C62F5"/>
<path d="M368.137 200.793L368.137 204.752H367.577V201.285H366.683V200.793H368.137ZM370.62 204.798C370.307 204.798 370.028 204.718 369.783 204.56C369.542 204.398 369.351 204.164 369.212 203.859C369.072 203.553 369.003 203.191 369.003 202.773C369.003 202.354 369.072 201.992 369.212 201.687C369.351 201.381 369.542 201.149 369.783 200.991C370.028 200.829 370.307 200.748 370.62 200.748C370.929 200.748 371.205 200.829 371.446 200.991C371.691 201.149 371.883 201.381 372.023 201.687C372.162 201.992 372.232 202.354 372.232 202.773C372.232 203.191 372.162 203.553 372.023 203.859C371.883 204.164 371.691 204.398 371.446 204.56C371.205 204.718 370.929 204.798 370.62 204.798ZM370.62 204.294C370.937 204.294 371.19 204.164 371.378 203.904C371.57 203.644 371.667 203.267 371.667 202.773C371.667 202.279 371.57 201.902 371.378 201.642C371.19 201.381 370.937 201.251 370.62 201.251C370.3 201.251 370.043 201.381 369.851 201.642C369.662 201.902 369.568 202.279 369.568 202.773C369.568 203.267 369.662 203.644 369.851 203.904C370.043 204.164 370.3 204.294 370.62 204.294ZM374.184 203.355L373.561 203.932V204.752H373.018V200.556H373.561V203.248L375.196 201.755H375.852L374.591 202.993L375.977 204.752H375.309L374.184 203.355Z" fill="#45465A"/>
<path d="M368.554 188.833V189.326H365.709V188.941L367.321 187.386C367.517 187.197 367.649 187.035 367.717 186.899C367.785 186.76 367.819 186.62 367.819 186.481C367.819 186.273 367.745 186.113 367.598 186C367.455 185.883 367.248 185.824 366.976 185.824C366.539 185.824 366.201 185.968 365.964 186.254L365.579 185.921C365.734 185.732 365.935 185.585 366.184 185.479C366.437 185.374 366.718 185.321 367.027 185.321C367.442 185.321 367.772 185.421 368.017 185.621C368.262 185.817 368.385 186.085 368.385 186.424C368.385 186.635 368.339 186.835 368.249 187.024C368.158 187.212 367.987 187.427 367.734 187.668L366.524 188.833H368.554ZM370.62 189.371C370.307 189.371 370.028 189.292 369.783 189.133C369.542 188.971 369.351 188.737 369.212 188.432C369.072 188.126 369.003 187.764 369.003 187.346C369.003 186.927 369.072 186.565 369.212 186.26C369.351 185.955 369.542 185.723 369.783 185.564C370.028 185.402 370.307 185.321 370.62 185.321C370.93 185.321 371.205 185.402 371.446 185.564C371.691 185.723 371.884 185.955 372.023 186.26C372.163 186.565 372.232 186.927 372.232 187.346C372.232 187.764 372.163 188.126 372.023 188.432C371.884 188.737 371.691 188.971 371.446 189.133C371.205 189.292 370.93 189.371 370.62 189.371ZM370.62 188.867C370.937 188.867 371.19 188.737 371.378 188.477C371.571 188.217 371.667 187.84 371.667 187.346C371.667 186.852 371.571 186.475 371.378 186.215C371.19 185.955 370.937 185.824 370.62 185.824C370.3 185.824 370.043 185.955 369.851 186.215C369.663 186.475 369.568 186.852 369.568 187.346C369.568 187.84 369.663 188.217 369.851 188.477C370.043 188.737 370.3 188.867 370.62 188.867ZM374.184 187.928L373.561 188.505V189.326H373.018V185.129H373.561V187.821L375.196 186.328H375.852L374.591 187.567L375.977 189.326H375.309L374.184 187.928Z" fill="#45465A"/>
<path d="M367.282 171.604C367.67 171.642 367.966 171.762 368.17 171.966C368.373 172.166 368.475 172.422 368.475 172.735C368.475 172.961 368.419 173.167 368.305 173.352C368.192 173.533 368.023 173.678 367.796 173.787C367.574 173.893 367.301 173.946 366.976 173.946C366.693 173.946 366.422 173.904 366.162 173.821C365.902 173.734 365.689 173.616 365.523 173.465L365.783 173.018C365.919 173.146 366.092 173.25 366.303 173.329C366.514 173.405 366.739 173.442 366.976 173.442C367.27 173.442 367.499 173.38 367.661 173.256C367.827 173.131 367.91 172.96 367.91 172.741C367.91 172.522 367.828 172.352 367.666 172.232C367.504 172.111 367.259 172.051 366.931 172.051H366.614V171.655L367.61 170.433H365.704V169.941H368.317V170.326L367.282 171.604ZM370.62 173.946C370.307 173.946 370.028 173.866 369.783 173.708C369.542 173.546 369.351 173.312 369.212 173.007C369.072 172.701 369.003 172.339 369.003 171.921C369.003 171.502 369.072 171.14 369.212 170.835C369.351 170.529 369.542 170.297 369.783 170.139C370.028 169.977 370.307 169.896 370.62 169.896C370.93 169.896 371.205 169.977 371.446 170.139C371.691 170.297 371.884 170.529 372.023 170.835C372.163 171.14 372.232 171.502 372.232 171.921C372.232 172.339 372.163 172.701 372.023 173.007C371.884 173.312 371.691 173.546 371.446 173.708C371.205 173.866 370.93 173.946 370.62 173.946ZM370.62 173.442C370.937 173.442 371.19 173.312 371.378 173.052C371.571 172.792 371.667 172.415 371.667 171.921C371.667 171.427 371.571 171.05 371.378 170.79C371.19 170.529 370.937 170.399 370.62 170.399C370.3 170.399 370.043 170.529 369.851 170.79C369.663 171.05 369.568 171.427 369.568 171.921C369.568 172.415 369.663 172.792 369.851 173.052C370.043 173.312 370.3 173.442 370.62 173.442ZM374.184 172.503L373.561 173.08V173.9H373.018V169.704H373.561V172.396L375.196 170.903H375.852L374.591 172.141L375.977 173.9H375.309L374.184 172.503Z" fill="#45465A"/>
<path d="M368.664 157.502H367.911V158.475H367.363V157.502H365.163V157.106L367.187 154.516H367.798L365.858 157.016H367.38V156.156H367.911V157.016H368.664V157.502ZM370.62 158.52C370.307 158.52 370.028 158.441 369.783 158.283C369.542 158.121 369.352 157.887 369.212 157.582C369.073 157.276 369.003 156.914 369.003 156.496C369.003 156.077 369.073 155.715 369.212 155.41C369.352 155.104 369.542 154.872 369.783 154.714C370.028 154.552 370.307 154.471 370.62 154.471C370.93 154.471 371.205 154.552 371.446 154.714C371.691 154.872 371.884 155.104 372.023 155.41C372.163 155.715 372.232 156.077 372.232 156.496C372.232 156.914 372.163 157.276 372.023 157.582C371.884 157.887 371.691 158.121 371.446 158.283C371.205 158.441 370.93 158.52 370.62 158.52ZM370.62 158.017C370.937 158.017 371.19 157.887 371.378 157.627C371.571 157.367 371.667 156.99 371.667 156.496C371.667 156.002 371.571 155.625 371.378 155.364C371.19 155.104 370.937 154.974 370.62 154.974C370.3 154.974 370.044 155.104 369.851 155.364C369.663 155.625 369.568 156.002 369.568 156.496C369.568 156.99 369.663 157.367 369.851 157.627C370.044 157.887 370.3 158.017 370.62 158.017ZM374.184 157.078L373.562 157.655V158.475H373.019V154.278H373.562V156.971L375.196 155.477H375.852L374.591 156.716L375.977 158.475H375.309L374.184 157.078Z" fill="#45465A"/>
</g>
</g>
<path d="M146.988 72.6663V83.5932H144.327V76.76L141.961 83.5932H139.657L137.275 76.7445V83.5932H134.614V72.6663H137.867L140.84 80.2778L143.751 72.6663H146.988ZM152.126 74.7988C152.79 74.7988 153.361 74.9493 153.838 75.2502C154.316 75.5511 154.668 75.961 154.897 76.4798V74.9077H157.543V83.5932H154.897V82.0211C154.668 82.5399 154.316 82.9498 153.838 83.2508C153.361 83.5517 152.79 83.7022 152.126 83.7022C151.41 83.7022 150.767 83.5258 150.196 83.1729C149.636 82.8097 149.189 82.2909 148.857 81.6164C148.536 80.9419 148.375 80.1533 148.375 79.2505C148.375 78.3373 148.536 77.5487 148.857 76.8845C149.189 76.21 149.636 75.6964 150.196 75.3436C150.767 74.9804 151.41 74.7988 152.126 74.7988ZM152.982 77.1336C152.411 77.1336 151.95 77.3204 151.597 77.6939C151.254 78.0675 151.083 78.5864 151.083 79.2505C151.083 79.9146 151.254 80.4334 151.597 80.807C151.95 81.1806 152.411 81.3674 152.982 81.3674C153.543 81.3674 153.999 81.1754 154.352 80.7914C154.715 80.4075 154.897 79.8938 154.897 79.2505C154.897 78.5967 154.715 78.0831 154.352 77.7095C153.999 77.3256 153.543 77.1336 152.982 77.1336ZM164.792 74.7988C165.508 74.7988 166.146 74.9804 166.707 75.3436C167.277 75.6964 167.724 76.21 168.045 76.8845C168.377 77.5487 168.543 78.3373 168.543 79.2505C168.543 80.1533 168.377 80.9419 168.045 81.6164C167.724 82.2909 167.277 82.8097 166.707 83.1729C166.146 83.5258 165.508 83.7022 164.792 83.7022C164.128 83.7022 163.557 83.5517 163.08 83.2508C162.603 82.9498 162.255 82.5399 162.037 82.0211V87.7336H159.375V74.9077H162.037V76.4798C162.255 75.961 162.603 75.5511 163.08 75.2502C163.557 74.9493 164.128 74.7988 164.792 74.7988ZM163.936 77.1336C163.376 77.1336 162.914 77.3256 162.551 77.7095C162.198 78.0831 162.022 78.5967 162.022 79.2505C162.022 79.8938 162.198 80.4075 162.551 80.7914C162.914 81.1754 163.376 81.3674 163.936 81.3674C164.507 81.3674 164.963 81.1806 165.306 80.807C165.659 80.4334 165.835 79.9146 165.835 79.2505C165.835 78.5864 165.659 78.0675 165.306 77.6939C164.963 77.3204 164.507 77.1336 163.936 77.1336Z" fill="#0D1C3F"/>
<rect x="133.695" y="108.884" width="50.0918" height="8.0982" rx="4.0491" fill="#B8C1E3"/>
<rect x="265.966" y="108.884" width="50.0918" height="8.0982" rx="4.0491" fill="white"/>
<rect x="199.381" y="108.884" width="50.0918" height="8.0982" rx="4.0491" fill="white"/>
<rect x="147.121" y="179.564" width="79.7809" height="7.75475" rx="3.87737" fill="#EDEFF8"/>
<path d="M584 90.8774C584 88.736 585.736 87 587.877 87H629.903C632.045 87 633.781 88.736 633.781 90.8774C633.781 93.0188 632.045 94.7547 629.903 94.7547H587.877C585.736 94.7547 584 93.0188 584 90.8774Z" fill="#EDEFF8"/>
<path d="M526 90.8774C526 88.736 527.736 87 529.877 87H571.903C574.045 87 575.781 88.736 575.781 90.8774C575.781 93.0188 574.045 94.7547 571.903 94.7547H529.877C527.736 94.7547 526 93.0188 526 90.8774Z" fill="#EDEFF8"/>
<rect x="147.121" y="195.85" width="151.125" height="7.75475" rx="3.87737" fill="#EDEFF8"/>
<rect x="363" y="88" width="40.0765" height="6.11074" rx="3.05537" fill="#B8C1E3"/>
<rect x="149.447" y="283.478" width="79.7809" height="7.75475" rx="3.87737" fill="#EDEFF8"/>
<rect x="149.447" y="299.763" width="151.125" height="7.75475" rx="3.87737" fill="#EDEFF8"/>
<rect x="149.447" y="390.493" width="79.7809" height="7.75475" rx="3.87737" fill="#EDEFF8"/>
<rect x="149.447" y="406.779" width="151.125" height="7.75475" rx="3.87737" fill="#EDEFF8"/>
<rect x="134" y="208.164" width="182" height="56.5413" rx="12" fill="white"/>
<path d="M307.407 236.891L304.474 239.99C304.405 240.063 304.294 240.063 304.225 239.99C304.156 239.917 304.156 239.8 304.225 239.727L307.033 236.76L304.225 233.793C304.156 233.72 304.156 233.603 304.225 233.53C304.259 233.494 304.304 233.475 304.348 233.475C304.393 233.475 304.438 233.492 304.472 233.53L307.406 236.629C307.475 236.701 307.475 236.819 307.407 236.891Z" fill="#CECED1" stroke="#CECED1" stroke-width="1.31522"/>
<path opacity="0.8" fill-rule="evenodd" clip-rule="evenodd" d="M157.384 250.306C164.198 250.306 169.721 244.782 169.721 237.969C169.721 231.155 164.198 225.632 157.384 225.632C150.57 225.632 145.047 231.155 145.047 237.969C145.047 244.782 150.57 250.306 157.384 250.306Z" stroke="#E9EBF6" stroke-width="4.31675"/>
<path d="M157.384 250.307C164.198 250.307 169.721 244.783 169.721 237.969C169.721 231.156 164.198 225.632 157.384 225.632" stroke="#1C62F5" stroke-width="4.32332"/>
<rect x="184.307" y="240.658" width="67.5962" height="6.5704" rx="3.2852" fill="#EDEFF8"/>
<rect x="184.307" y="226.203" width="33.9558" height="5.17747" rx="2.58874" fill="#B8C1E3"/>
<rect x="134" y="408.836" width="182" height="56.5413" rx="12" fill="white"/>
<path d="M307.407 437.563L304.474 440.662C304.405 440.735 304.294 440.735 304.225 440.662C304.156 440.589 304.156 440.472 304.225 440.399L307.033 437.432L304.225 434.464C304.156 434.391 304.156 434.274 304.225 434.201C304.259 434.166 304.304 434.146 304.348 434.146C304.393 434.146 304.438 434.164 304.472 434.201L307.406 437.301C307.475 437.373 307.475 437.491 307.407 437.563Z" fill="#CECED1" stroke="#CECED1" stroke-width="1.31522"/>
<path opacity="0.8" fill-rule="evenodd" clip-rule="evenodd" d="M157.384 450.978C164.198 450.978 169.721 445.454 169.721 438.641C169.721 431.827 164.198 426.304 157.384 426.304C150.57 426.304 145.047 431.827 145.047 438.641C145.047 445.454 150.57 450.978 157.384 450.978Z" stroke="#E9EBF6" stroke-width="4.31675"/>
<path d="M157.384 450.978C164.198 450.978 169.721 445.455 169.721 438.641C169.721 431.828 164.198 426.304 157.384 426.304" stroke="#1C62F5" stroke-width="4.32332"/>
<rect x="184.307" y="441.33" width="67.5962" height="6.5704" rx="3.2852" fill="#EDEFF8"/>
<rect x="184.307" y="426.875" width="33.9558" height="5.17747" rx="2.58874" fill="#B8C1E3"/>
<rect x="134" y="275" width="182" height="56.5413" rx="12" fill="white"/>
<path d="M307.407 303.727L304.474 306.826C304.405 306.899 304.294 306.899 304.225 306.826C304.156 306.753 304.156 306.636 304.225 306.563L307.033 303.596L304.225 300.629C304.156 300.556 304.156 300.439 304.225 300.366C304.259 300.33 304.304 300.31 304.348 300.31C304.393 300.31 304.438 300.328 304.472 300.366L307.406 303.465C307.475 303.537 307.475 303.655 307.407 303.727Z" fill="#CECED1" stroke="#CECED1" stroke-width="1.31522"/>
<path opacity="0.8" fill-rule="evenodd" clip-rule="evenodd" d="M157.384 317.142C164.198 317.142 169.721 311.618 169.721 304.805C169.721 297.991 164.198 292.468 157.384 292.468C150.57 292.468 145.047 297.991 145.047 304.805C145.047 311.618 150.57 317.142 157.384 317.142Z" stroke="#E9EBF6" stroke-width="4.31675"/>
<path d="M157.384 317.142C164.198 317.142 169.721 311.619 169.721 304.805C169.721 297.992 164.198 292.468 157.384 292.468" stroke="#1C62F5" stroke-width="4.32332"/>
<rect x="184.307" y="307.494" width="67.5962" height="6.5704" rx="3.2852" fill="#EDEFF8"/>
<rect x="184.307" y="293.039" width="33.9558" height="5.17747" rx="2.58874" fill="#B8C1E3"/>
<rect x="134" y="141" width="182" height="56.5413" rx="12" fill="white"/>
<path d="M307.407 169.727L304.474 172.826C304.405 172.899 304.294 172.899 304.225 172.826C304.156 172.753 304.156 172.636 304.225 172.563L307.033 169.596L304.225 166.629C304.156 166.556 304.156 166.439 304.225 166.366C304.259 166.33 304.304 166.31 304.348 166.31C304.393 166.31 304.438 166.328 304.472 166.366L307.406 169.465C307.475 169.537 307.475 169.655 307.407 169.727Z" fill="#CECED1" stroke="#CECED1" stroke-width="1.31522"/>
<path opacity="0.8" fill-rule="evenodd" clip-rule="evenodd" d="M157.385 183.141C164.199 183.141 169.722 177.617 169.722 170.804C169.722 163.99 164.199 158.467 157.385 158.467C150.572 158.467 145.048 163.99 145.048 170.804C145.048 177.617 150.572 183.141 157.385 183.141Z" stroke="#E9EBF6" stroke-width="4.31675"/>
<path d="M157.385 183.141C164.199 183.141 169.722 177.617 169.722 170.804C169.722 163.99 164.199 158.467 157.385 158.467" stroke="#25DBDC" stroke-width="4.32332"/>
<rect x="184.307" y="173.494" width="67.5962" height="6.5704" rx="3.2852" fill="#EDEFF8"/>
<rect x="184.307" y="159.037" width="33.9558" height="5.17747" rx="2.58874" fill="#B8C1E3"/>
<rect x="134" y="341.836" width="182" height="56.5413" rx="12" fill="white"/>
<path d="M307.407 370.563L304.474 373.662C304.405 373.735 304.294 373.735 304.225 373.662C304.156 373.589 304.156 373.472 304.225 373.399L307.033 370.432L304.225 367.464C304.156 367.391 304.156 367.274 304.225 367.201C304.259 367.166 304.304 367.146 304.348 367.146C304.393 367.146 304.438 367.164 304.472 367.201L307.406 370.301C307.475 370.373 307.475 370.491 307.407 370.563Z" fill="#CECED1" stroke="#CECED1" stroke-width="1.31522"/>
<path opacity="0.8" fill-rule="evenodd" clip-rule="evenodd" d="M157.385 383.977C164.199 383.977 169.722 378.453 169.722 371.64C169.722 364.826 164.199 359.303 157.385 359.303C150.572 359.303 145.048 364.826 145.048 371.64C145.048 378.453 150.572 383.977 157.385 383.977Z" stroke="#E9EBF6" stroke-width="4.31675"/>
<path d="M157.385 383.977C164.199 383.977 169.722 378.453 169.722 371.64C169.722 364.826 164.199 359.303 157.385 359.303" stroke="#25DBDC" stroke-width="4.32332"/>
<rect x="184.307" y="374.33" width="67.5962" height="6.5704" rx="3.2852" fill="#EDEFF8"/>
<rect x="184.307" y="359.873" width="33.9558" height="5.17747" rx="2.58874" fill="#B8C1E3"/>
<g filter="url(#filter1_d)">
<rect x="500" y="387" width="186.062" height="52" rx="6.5" fill="white"/>
</g>
<path d="M560.838 418.889H560.945L563.044 426.188H564.772L567.536 415.883H565.629L563.865 423.552H563.765L561.709 415.883H560.073L558.045 423.552H557.938L556.174 415.883H554.253L557.017 426.188H558.752L560.838 418.889ZM570.8 424.924C570.014 424.924 569.45 424.531 569.45 423.874C569.45 423.238 569.914 422.881 570.907 422.817L572.671 422.703V423.324C572.671 424.231 571.871 424.924 570.8 424.924ZM570.278 426.316C571.3 426.316 572.156 425.873 572.592 425.116H572.713V426.188H574.42V420.853C574.42 419.196 573.292 418.218 571.285 418.218C569.429 418.218 568.136 419.096 567.993 420.475H569.664C569.828 419.946 570.385 419.661 571.2 419.661C572.156 419.661 572.671 420.089 572.671 420.853V421.51L570.657 421.631C568.757 421.746 567.693 422.56 567.693 423.974C567.693 425.402 568.772 426.316 570.278 426.316ZM576.334 426.188H578.105V415.354H576.334V426.188ZM579.877 420.61C579.877 421.789 580.584 422.481 582.083 422.824L583.469 423.145C584.211 423.31 584.547 423.588 584.547 424.031C584.547 424.609 583.926 425.002 583.033 425.002C582.147 425.002 581.598 424.659 581.426 424.081H579.677C579.812 425.502 581.041 426.345 582.99 426.345C584.94 426.345 586.318 425.345 586.318 423.845C586.318 422.695 585.625 422.053 584.133 421.717L582.754 421.403C581.969 421.224 581.598 420.953 581.598 420.51C581.598 419.946 582.205 419.561 583.012 419.561C583.84 419.561 584.361 419.91 584.49 420.46H586.154C586.025 419.039 584.861 418.218 583.004 418.218C581.162 418.218 579.877 419.196 579.877 420.61ZM590.489 424.924C589.703 424.924 589.139 424.531 589.139 423.874C589.139 423.238 589.603 422.881 590.596 422.817L592.36 422.703V423.324C592.36 424.231 591.56 424.924 590.489 424.924ZM589.967 426.316C590.988 426.316 591.845 425.873 592.281 425.116H592.402V426.188H594.109V420.853C594.109 419.196 592.981 418.218 590.974 418.218C589.117 418.218 587.825 419.096 587.682 420.475H589.353C589.517 419.946 590.074 419.661 590.888 419.661C591.845 419.661 592.36 420.089 592.36 420.853V421.51L590.346 421.631C588.446 421.746 587.382 422.56 587.382 423.974C587.382 425.402 588.46 426.316 589.967 426.316ZM596.023 426.188H597.794V415.354H596.023V426.188ZM599.815 426.188H601.586V415.354H599.815V426.188Z" fill="#0D1C3F"/>
<path d="M557.874 408.314C559.579 408.314 560.845 407.364 561.112 405.892H560.096C559.84 406.82 558.99 407.392 557.874 407.392C556.33 407.392 555.363 406.131 555.363 404.12C555.363 402.11 556.33 400.843 557.868 400.843C558.974 400.843 559.829 401.493 560.096 402.526H561.112C560.873 400.982 559.557 399.921 557.868 399.921C555.691 399.921 554.336 401.532 554.336 404.12C554.336 406.703 555.697 408.314 557.874 408.314ZM562.462 408.125H563.417V402.138H562.462V408.125ZM562.94 400.982C563.306 400.982 563.606 400.682 563.606 400.316C563.606 399.949 563.306 399.649 562.94 399.649C562.573 399.649 562.273 399.949 562.273 400.316C562.273 400.682 562.573 400.982 562.94 400.982ZM565.411 400.588V402.138H564.445V402.937H565.411V406.57C565.411 407.714 565.906 408.169 567.139 408.169C567.328 408.169 567.511 408.147 567.7 408.114V407.309C567.522 407.325 567.428 407.331 567.255 407.331C566.633 407.331 566.367 407.031 566.367 406.325V402.937H567.7V402.138H566.367V400.588H565.411ZM569.427 410.291C570.488 410.291 570.966 409.88 571.477 408.492L573.815 402.138H572.799L571.16 407.064H571.071L569.427 402.138H568.394L570.61 408.131L570.499 408.486C570.249 409.208 569.949 409.469 569.4 409.469C569.266 409.469 569.116 409.464 569 409.441V410.258C569.133 410.28 569.3 410.291 569.427 410.291Z" fill="#0D1C3F"/>
<path opacity="0.5" fill-rule="evenodd" clip-rule="evenodd" d="M528.086 428.715C536.511 428.715 543.342 421.885 543.342 413.459C543.342 405.033 536.511 398.203 528.086 398.203C519.66 398.203 512.83 405.033 512.83 413.459C512.83 421.885 519.66 428.715 528.086 428.715Z" stroke="#EAEAEC" stroke-width="2.90426"/>
<path d="M512.83 413.459C512.83 421.885 519.66 428.715 528.086 428.715V428.715C536.511 428.715 543.342 421.885 543.342 413.459C543.342 405.033 536.511 398.203 528.086 398.203" stroke="#25DBDC" stroke-width="2.90592"/>
<path d="M521.255 417.051C522.907 417.051 524.035 416.232 524.035 415.028C524.035 414.152 523.431 413.457 522.517 413.285V413.2C523.269 413.024 523.755 412.438 523.755 411.705C523.755 410.61 522.717 409.829 521.26 409.829C519.798 409.829 518.76 410.61 518.76 411.705C518.76 412.433 519.251 413.028 519.998 413.2V413.285C519.079 413.49 518.484 414.18 518.484 415.042C518.484 416.237 519.603 417.051 521.255 417.051ZM521.255 415.966C520.503 415.966 519.979 415.532 519.979 414.909C519.979 414.28 520.503 413.847 521.255 413.847C522.012 413.847 522.536 414.28 522.536 414.909C522.536 415.532 522.012 415.966 521.255 415.966ZM521.255 412.786C520.622 412.786 520.179 412.395 520.179 411.843C520.179 411.286 520.617 410.896 521.255 410.896C521.893 410.896 522.336 411.286 522.336 411.843C522.336 412.395 521.893 412.786 521.255 412.786ZM526.806 416.875H528.244V410.005H526.811L525.035 411.229V412.567L526.721 411.405H526.806V416.875ZM531.158 413.224C532.186 413.224 532.791 412.605 532.791 411.543C532.791 410.505 532.172 409.872 531.158 409.872C530.149 409.872 529.525 410.51 529.525 411.543C529.525 412.6 530.13 413.224 531.158 413.224ZM531.158 412.371C530.81 412.371 530.61 412.071 530.61 411.548C530.61 411.038 530.815 410.729 531.158 410.729C531.496 410.729 531.701 411.038 531.701 411.548C531.701 412.067 531.505 412.371 531.158 412.371ZM531.862 416.875L536.428 410.005H535.328L530.763 416.875H531.862ZM536.033 416.956C537.061 416.956 537.666 416.337 537.666 415.275C537.666 414.238 537.047 413.609 536.033 413.609C535.024 413.609 534.4 414.242 534.4 415.275C534.4 416.337 535.009 416.956 536.033 416.956ZM536.033 416.104C535.685 416.104 535.49 415.804 535.49 415.28C535.49 414.771 535.69 414.461 536.033 414.461C536.376 414.461 536.58 414.771 536.58 415.28C536.58 415.799 536.38 416.104 536.033 416.104Z" fill="#0D1C3F"/>
<defs>
<filter id="filter0_d" x="94.1947" y="18.7457" width="641.814" height="458.814" filterUnits="userSpaceOnUse" color-interpolation-filters="sRGB">
<feFlood flood-opacity="0" result="BackgroundImageFix"/>
<feColorMatrix in="SourceAlpha" type="matrix" values="0 0 0 0 0 0 0 0 0 0 0 0 0 0 0 0 0 0 127 0"/>
<feOffset dx="3.1019" dy="4.65285"/>
<feGaussianBlur stdDeviation="10.9536"/>
<feColorMatrix type="matrix" values="0 0 0 0 0.0423539 0 0 0 0 0.02125 0 0 0 0 0.141667 0 0 0 0.04 0"/>
<feBlend mode="normal" in2="BackgroundImageFix" result="effect1_dropShadow"/>
<feBlend mode="normal" in="SourceGraphic" in2="effect1_dropShadow" result="shape"/>
</filter>
<filter id="filter1_d" x="488" y="379" width="210.062" height="76" filterUnits="userSpaceOnUse" color-interpolation-filters="sRGB">
<feFlood flood-opacity="0" result="BackgroundImageFix"/>
<feColorMatrix in="SourceAlpha" type="matrix" values="0 0 0 0 0 0 0 0 0 0 0 0 0 0 0 0 0 0 127 0"/>
<feOffset dy="4"/>
<feGaussianBlur stdDeviation="6"/>
<feColorMatrix type="matrix" values="0 0 0 0 0.0509804 0 0 0 0 0.109804 0 0 0 0 0.247059 0 0 0 0.08 0"/>
<feBlend mode="normal" in2="BackgroundImageFix" result="effect1_dropShadow"/>
<feBlend mode="normal" in="SourceGraphic" in2="effect1_dropShadow" result="shape"/>
</filter>
<clipPath id="clip0">
<rect x="364.677" y="150.417" width="360.449" height="82.7851" fill="white"/>
</clipPath>
</defs>
</svg>
