<svg width="589" height="707" viewBox="0 0 589 707" fill="none" xmlns="http://www.w3.org/2000/svg">
<rect y="161.969" width="176.042" height="158.82" rx="38.27" transform="rotate(-20 0 161.969)" fill="#180768"/>
<mask id="mask0" mask-type="alpha" maskUnits="userSpaceOnUse" x="0" y="101" width="220" height="211">
<path d="M178.515 137.724C171.286 117.862 149.325 107.622 129.464 114.851L35.9628 148.882C16.1015 156.111 5.86098 178.072 13.0899 197.934L41.2315 275.252C48.4604 295.113 70.4213 305.354 90.2826 298.125L183.784 264.093C203.645 256.864 213.886 234.903 206.657 215.042L178.515 137.724Z" fill="#FFC63A"/>
</mask>
<g mask="url(#mask0)">
<circle cx="49.4779" cy="156.179" r="61.232" transform="rotate(160 49.4779 156.179)" stroke="white" stroke-opacity="0.25" stroke-width="51.3404"/>
<circle cx="515.749" cy="323.099" r="377.589" transform="rotate(40 515.749 323.099)" stroke="white" stroke-opacity="0.3" stroke-width="2.56702"/>
<circle cx="-261.3" cy="244.899" r="377.589" transform="rotate(40 -261.3 244.899)" stroke="white" stroke-opacity="0.2" stroke-width="2.56702"/>
</g>
<rect x="229.07" y="515.771" width="186.453" height="168.213" rx="40.5333" transform="rotate(-20 229.07 515.771)" fill="#C0BFDB"/>
<mask id="mask1" mask-type="alpha" maskUnits="userSpaceOnUse" x="229" y="452" width="233" height="222">
<path d="M418.143 490.091C410.487 469.056 387.227 458.209 366.191 465.866L267.16 501.91C246.125 509.567 235.278 532.826 242.935 553.862L272.741 635.753C280.397 656.789 303.657 667.635 324.693 659.979L423.724 623.935C444.76 616.278 455.606 593.018 447.949 571.982L418.143 490.091Z" fill="#FFC63A"/>
</mask>
<g mask="url(#mask1)">
<circle cx="281.475" cy="509.638" r="64.8533" transform="rotate(160 281.475 509.638)" stroke="white" stroke-opacity="0.25" stroke-width="54.3767"/>
<circle cx="775.322" cy="686.43" r="399.92" transform="rotate(40 775.322 686.43)" stroke="white" stroke-opacity="0.3" stroke-width="2.71884"/>
<circle cx="-47.6828" cy="603.605" r="399.92" transform="rotate(40 -47.6828 603.605)" stroke="white" stroke-opacity="0.2" stroke-width="2.71884"/>
</g>
<g filter="url(#filter0_d)">
<rect x="38" y="177" width="593.036" height="415" rx="23.7333" fill="#EFF1FA"/>
</g>
<rect x="264.513" y="193.944" width="353.146" height="381.11" rx="21.8784" fill="white"/>
<rect x="285.024" y="437.559" width="79.0701" height="7.68566" rx="3.84283" fill="#EDEFF8"/>
<rect x="285.35" y="453.7" width="149.778" height="7.68566" rx="3.84283" fill="#EDEFF8"/>
<rect x="285" y="469.752" width="149.778" height="7.68566" rx="3.84283" fill="#EDEFF8"/>
<rect x="285.024" y="411.539" width="39.7195" height="6.0563" rx="3.02815" fill="#B8C1E3"/>
<rect x="285" y="533.559" width="79.0701" height="7.68566" rx="3.84283" fill="#EDEFF8"/>
<rect x="285" y="507.539" width="39.7195" height="6.0563" rx="3.02815" fill="#B8C1E3"/>
<rect x="492.81" y="437.559" width="79.0701" height="7.68566" rx="3.84283" fill="#EDEFF8"/>
<rect x="493" y="453" width="108" height="8" rx="4" fill="#EDEFF8"/>
<rect x="493" y="470" width="108" height="8" rx="4" fill="#EDEFF8"/>
<rect x="492.81" y="411.539" width="39.7195" height="6.0563" rx="3.02815" fill="#B8C1E3"/>
<path d="M288.217 233.255V236.697H285.843V226.884H289.688C290.854 226.884 291.742 227.175 292.353 227.758C292.964 228.332 293.269 229.109 293.269 230.09C293.269 230.701 293.13 231.247 292.853 231.728C292.585 232.2 292.182 232.575 291.645 232.852C291.109 233.121 290.456 233.255 289.688 233.255H288.217ZM289.424 231.353C290.377 231.353 290.854 230.932 290.854 230.09C290.854 229.229 290.377 228.799 289.424 228.799H288.217V231.353H289.424ZM301.794 232.616C301.794 232.811 301.771 233.024 301.725 233.255H296.353C296.381 233.838 296.529 234.259 296.797 234.518C297.065 234.768 297.408 234.893 297.824 234.893C298.176 234.893 298.467 234.805 298.699 234.629C298.93 234.453 299.083 234.227 299.157 233.949H301.669C301.567 234.495 301.345 234.985 301.003 235.42C300.661 235.846 300.226 236.184 299.698 236.434C299.171 236.674 298.583 236.795 297.935 236.795C297.176 236.795 296.501 236.637 295.909 236.323C295.326 235.999 294.868 235.536 294.534 234.935C294.201 234.333 294.035 233.63 294.035 232.825C294.035 232.01 294.197 231.307 294.521 230.715C294.854 230.113 295.316 229.655 295.909 229.341C296.501 229.017 297.176 228.855 297.935 228.855C298.703 228.855 299.379 229.012 299.962 229.327C300.545 229.641 300.994 230.085 301.308 230.659C301.632 231.224 301.794 231.876 301.794 232.616ZM299.393 232.255C299.402 231.747 299.263 231.367 298.976 231.117C298.699 230.858 298.352 230.729 297.935 230.729C297.5 230.729 297.139 230.858 296.853 231.117C296.566 231.376 296.404 231.756 296.367 232.255H299.393ZM305.405 230.409C305.701 229.937 306.081 229.563 306.543 229.285C307.015 229.007 307.524 228.869 308.07 228.869V231.409H307.39C306.761 231.409 306.27 231.543 305.919 231.811C305.576 232.08 305.405 232.533 305.405 233.172V236.697H303.031V228.952H305.405V230.409ZM312.867 227.897C312.478 227.897 312.196 227.98 312.02 228.147C311.845 228.313 311.747 228.582 311.729 228.952H313.131V230.951H311.729V236.697H309.355V230.951H308.425V228.952H309.355V228.869C309.355 227.906 309.633 227.166 310.188 226.648C310.753 226.12 311.567 225.856 312.631 225.856C312.853 225.856 313.02 225.861 313.131 225.87V227.911L312.867 227.897ZM317.797 228.855C318.565 228.855 319.25 229.017 319.851 229.341C320.462 229.655 320.939 230.113 321.281 230.715C321.633 231.316 321.809 232.02 321.809 232.825C321.809 233.63 321.633 234.333 321.281 234.935C320.939 235.536 320.462 235.999 319.851 236.323C319.25 236.637 318.565 236.795 317.797 236.795C317.029 236.795 316.34 236.637 315.729 236.323C315.118 235.999 314.637 235.536 314.285 234.935C313.943 234.333 313.772 233.63 313.772 232.825C313.772 232.02 313.943 231.316 314.285 230.715C314.637 230.113 315.118 229.655 315.729 229.341C316.34 229.017 317.029 228.855 317.797 228.855ZM317.797 230.909C317.344 230.909 316.96 231.076 316.645 231.409C316.34 231.733 316.187 232.205 316.187 232.825C316.187 233.445 316.34 233.917 316.645 234.24C316.96 234.564 317.344 234.726 317.797 234.726C318.251 234.726 318.63 234.564 318.935 234.24C319.241 233.917 319.393 233.445 319.393 232.825C319.393 232.205 319.241 231.733 318.935 231.409C318.63 231.076 318.251 230.909 317.797 230.909ZM325.413 230.409C325.709 229.937 326.089 229.563 326.551 229.285C327.023 229.007 327.532 228.869 328.078 228.869V231.409H327.398C326.769 231.409 326.278 231.543 325.927 231.811C325.584 232.08 325.413 232.533 325.413 233.172V236.697H323.04V228.952H325.413V230.409ZM339.108 228.869C340.061 228.869 340.81 229.165 341.356 229.757C341.902 230.34 342.175 231.154 342.175 232.2V236.697H339.816V232.478C339.816 231.987 339.681 231.608 339.413 231.339C339.154 231.062 338.798 230.923 338.344 230.923C337.872 230.923 337.497 231.071 337.22 231.367C336.951 231.654 336.817 232.061 336.817 232.589V236.697H334.444V232.478C334.444 231.987 334.314 231.608 334.055 231.339C333.796 231.062 333.44 230.923 332.986 230.923C332.514 230.923 332.139 231.066 331.862 231.353C331.584 231.64 331.445 232.052 331.445 232.589V236.697H329.072V228.952H331.445V230.271C331.649 229.836 331.959 229.493 332.375 229.243C332.801 228.993 333.296 228.869 333.861 228.869C334.453 228.869 334.976 229.007 335.429 229.285C335.883 229.553 336.225 229.942 336.456 230.451C336.725 229.97 337.09 229.586 337.553 229.299C338.025 229.012 338.543 228.869 339.108 228.869ZM346.695 228.855C347.287 228.855 347.796 228.989 348.222 229.257C348.648 229.526 348.962 229.891 349.166 230.354V228.952H351.526V236.697H349.166V235.295C348.962 235.758 348.648 236.124 348.222 236.392C347.796 236.66 347.287 236.795 346.695 236.795C346.057 236.795 345.483 236.637 344.974 236.323C344.474 235.999 344.076 235.536 343.78 234.935C343.493 234.333 343.35 233.63 343.35 232.825C343.35 232.01 343.493 231.307 343.78 230.715C344.076 230.113 344.474 229.655 344.974 229.341C345.483 229.017 346.057 228.855 346.695 228.855ZM347.459 230.937C346.95 230.937 346.538 231.103 346.223 231.437C345.918 231.77 345.765 232.232 345.765 232.825C345.765 233.417 345.918 233.88 346.223 234.213C346.538 234.546 346.95 234.712 347.459 234.712C347.958 234.712 348.366 234.541 348.68 234.199C349.004 233.856 349.166 233.398 349.166 232.825C349.166 232.242 349.004 231.784 348.68 231.45C348.366 231.108 347.958 230.937 347.459 230.937ZM358.074 228.869C358.962 228.869 359.666 229.165 360.184 229.757C360.711 230.349 360.975 231.164 360.975 232.2V236.697H358.601V232.478C358.601 231.959 358.463 231.557 358.185 231.27C357.917 230.974 357.556 230.826 357.102 230.826C356.621 230.826 356.237 230.978 355.95 231.284C355.672 231.589 355.534 232.024 355.534 232.589V236.697H353.16V228.952H355.534V230.368C355.756 229.905 356.084 229.539 356.519 229.271C356.963 229.003 357.482 228.869 358.074 228.869ZM366.038 228.855C367.038 228.855 367.875 229.132 368.551 229.688C369.226 230.234 369.652 230.988 369.828 231.95H367.316C367.241 231.617 367.089 231.358 366.857 231.173C366.626 230.988 366.335 230.895 365.983 230.895C365.567 230.895 365.224 231.062 364.956 231.395C364.687 231.719 364.553 232.195 364.553 232.825C364.553 233.454 364.687 233.935 364.956 234.268C365.224 234.592 365.567 234.754 365.983 234.754C366.335 234.754 366.626 234.662 366.857 234.476C367.089 234.291 367.241 234.032 367.316 233.699H369.828C369.652 234.662 369.226 235.42 368.551 235.976C367.875 236.522 367.038 236.795 366.038 236.795C365.28 236.795 364.604 236.637 364.012 236.323C363.429 235.999 362.971 235.536 362.638 234.935C362.304 234.333 362.138 233.63 362.138 232.825C362.138 232.01 362.3 231.307 362.624 230.715C362.957 230.113 363.42 229.655 364.012 229.341C364.604 229.017 365.28 228.855 366.038 228.855ZM378.424 232.616C378.424 232.811 378.401 233.024 378.354 233.255H372.982C373.01 233.838 373.158 234.259 373.427 234.518C373.695 234.768 374.037 234.893 374.454 234.893C374.806 234.893 375.097 234.805 375.328 234.629C375.56 234.453 375.712 234.227 375.786 233.949H378.299C378.197 234.495 377.975 234.985 377.633 235.42C377.29 235.846 376.855 236.184 376.328 236.434C375.8 236.674 375.213 236.795 374.565 236.795C373.806 236.795 373.131 236.637 372.538 236.323C371.955 235.999 371.497 235.536 371.164 234.935C370.831 234.333 370.664 233.63 370.664 232.825C370.664 232.01 370.826 231.307 371.15 230.715C371.483 230.113 371.946 229.655 372.538 229.341C373.131 229.017 373.806 228.855 374.565 228.855C375.333 228.855 376.009 229.012 376.592 229.327C377.175 229.641 377.623 230.085 377.938 230.659C378.262 231.224 378.424 231.876 378.424 232.616ZM376.022 232.255C376.032 231.747 375.893 231.367 375.606 231.117C375.328 230.858 374.981 230.729 374.565 230.729C374.13 230.729 373.769 230.858 373.482 231.117C373.195 231.376 373.033 231.756 372.996 232.255H376.022Z" fill="#0D1C3F"/>
<path d="M291.67 272.93V274.29H289.75V280H288.03V274.29H286.13V272.93H291.67ZM295.001 274.35C295.554 274.35 296.047 274.467 296.481 274.7C296.921 274.927 297.264 275.257 297.511 275.69C297.764 276.123 297.891 276.63 297.891 277.21C297.891 277.79 297.764 278.297 297.511 278.73C297.264 279.163 296.921 279.497 296.481 279.73C296.047 279.957 295.554 280.07 295.001 280.07C294.447 280.07 293.951 279.957 293.511 279.73C293.071 279.497 292.724 279.163 292.471 278.73C292.224 278.297 292.101 277.79 292.101 277.21C292.101 276.63 292.224 276.123 292.471 275.69C292.724 275.257 293.071 274.927 293.511 274.7C293.951 274.467 294.447 274.35 295.001 274.35ZM295.001 275.83C294.674 275.83 294.397 275.95 294.171 276.19C293.951 276.423 293.841 276.763 293.841 277.21C293.841 277.657 293.951 277.997 294.171 278.23C294.397 278.463 294.674 278.58 295.001 278.58C295.327 278.58 295.601 278.463 295.821 278.23C296.041 277.997 296.151 277.657 296.151 277.21C296.151 276.763 296.041 276.423 295.821 276.19C295.601 275.95 295.327 275.83 295.001 275.83ZM301.938 278.53V280H301.168C300.514 280 300.004 279.84 299.638 279.52C299.278 279.193 299.098 278.657 299.098 277.91V275.86H298.348V274.42H299.098V273.05H300.808V274.42H301.928V275.86H300.808V277.94C300.808 278.16 300.851 278.313 300.938 278.4C301.031 278.487 301.184 278.53 301.398 278.53H301.938ZM305.019 274.35C305.445 274.35 305.812 274.447 306.119 274.64C306.425 274.833 306.652 275.097 306.799 275.43V274.42H308.499V280H306.799V278.99C306.652 279.323 306.425 279.587 306.119 279.78C305.812 279.973 305.445 280.07 305.019 280.07C304.559 280.07 304.145 279.957 303.779 279.73C303.419 279.497 303.132 279.163 302.919 278.73C302.712 278.297 302.609 277.79 302.609 277.21C302.609 276.623 302.712 276.117 302.919 275.69C303.132 275.257 303.419 274.927 303.779 274.7C304.145 274.467 304.559 274.35 305.019 274.35ZM305.569 275.85C305.202 275.85 304.905 275.97 304.679 276.21C304.459 276.45 304.349 276.783 304.349 277.21C304.349 277.637 304.459 277.97 304.679 278.21C304.905 278.45 305.202 278.57 305.569 278.57C305.929 278.57 306.222 278.447 306.449 278.2C306.682 277.953 306.799 277.623 306.799 277.21C306.799 276.79 306.682 276.46 306.449 276.22C306.222 275.973 305.929 275.85 305.569 275.85ZM311.386 272.6V280H309.676V272.6H311.386ZM317.309 273.66C317.029 273.66 316.825 273.72 316.699 273.84C316.572 273.96 316.502 274.153 316.489 274.42H317.499V275.86H316.489V280H314.779V275.86H314.109V274.42H314.779V274.36C314.779 273.667 314.979 273.133 315.379 272.76C315.785 272.38 316.372 272.19 317.139 272.19C317.299 272.19 317.419 272.193 317.499 272.2V273.67L317.309 273.66ZM320.86 274.35C321.413 274.35 321.907 274.467 322.34 274.7C322.78 274.927 323.123 275.257 323.37 275.69C323.623 276.123 323.75 276.63 323.75 277.21C323.75 277.79 323.623 278.297 323.37 278.73C323.123 279.163 322.78 279.497 322.34 279.73C321.907 279.957 321.413 280.07 320.86 280.07C320.307 280.07 319.81 279.957 319.37 279.73C318.93 279.497 318.583 279.163 318.33 278.73C318.083 278.297 317.96 277.79 317.96 277.21C317.96 276.63 318.083 276.123 318.33 275.69C318.583 275.257 318.93 274.927 319.37 274.7C319.81 274.467 320.307 274.35 320.86 274.35ZM320.86 275.83C320.533 275.83 320.257 275.95 320.03 276.19C319.81 276.423 319.7 276.763 319.7 277.21C319.7 277.657 319.81 277.997 320.03 278.23C320.257 278.463 320.533 278.58 320.86 278.58C321.187 278.58 321.46 278.463 321.68 278.23C321.9 277.997 322.01 277.657 322.01 277.21C322.01 276.763 321.9 276.423 321.68 276.19C321.46 275.95 321.187 275.83 320.86 275.83ZM326.347 275.47C326.56 275.13 326.834 274.86 327.167 274.66C327.507 274.46 327.874 274.36 328.267 274.36V276.19H327.777C327.324 276.19 326.97 276.287 326.717 276.48C326.47 276.673 326.347 277 326.347 277.46V280H324.637V274.42H326.347V275.47ZM332.695 275.47C332.908 275.13 333.181 274.86 333.515 274.66C333.855 274.46 334.221 274.36 334.615 274.36V276.19H334.125C333.671 276.19 333.318 276.287 333.065 276.48C332.818 276.673 332.695 277 332.695 277.46V280H330.985V274.42H332.695V275.47ZM340.63 277.06C340.63 277.2 340.614 277.353 340.58 277.52H336.71C336.73 277.94 336.837 278.243 337.03 278.43C337.224 278.61 337.47 278.7 337.77 278.7C338.024 278.7 338.234 278.637 338.4 278.51C338.567 278.383 338.677 278.22 338.73 278.02H340.54C340.467 278.413 340.307 278.767 340.06 279.08C339.814 279.387 339.5 279.63 339.12 279.81C338.74 279.983 338.317 280.07 337.85 280.07C337.304 280.07 336.817 279.957 336.39 279.73C335.97 279.497 335.64 279.163 335.4 278.73C335.16 278.297 335.04 277.79 335.04 277.21C335.04 276.623 335.157 276.117 335.39 275.69C335.63 275.257 335.964 274.927 336.39 274.7C336.817 274.467 337.304 274.35 337.85 274.35C338.404 274.35 338.89 274.463 339.31 274.69C339.73 274.917 340.054 275.237 340.28 275.65C340.514 276.057 340.63 276.527 340.63 277.06ZM338.9 276.8C338.907 276.433 338.807 276.16 338.6 275.98C338.4 275.793 338.15 275.7 337.85 275.7C337.537 275.7 337.277 275.793 337.07 275.98C336.864 276.167 336.747 276.44 336.72 276.8H338.9ZM343.642 274.35C344.068 274.35 344.435 274.447 344.742 274.64C345.048 274.833 345.275 275.097 345.422 275.43V274.42H347.122V279.97C347.122 280.49 347.022 280.957 346.822 281.37C346.622 281.79 346.315 282.123 345.902 282.37C345.488 282.617 344.975 282.74 344.362 282.74C343.522 282.74 342.848 282.54 342.342 282.14C341.842 281.747 341.542 281.21 341.442 280.53H343.132C343.185 280.757 343.305 280.933 343.492 281.06C343.685 281.187 343.935 281.25 344.242 281.25C344.595 281.25 344.878 281.147 345.092 280.94C345.312 280.74 345.422 280.417 345.422 279.97V278.99C345.275 279.323 345.048 279.587 344.742 279.78C344.435 279.973 344.068 280.07 343.642 280.07C343.182 280.07 342.768 279.957 342.402 279.73C342.042 279.497 341.755 279.163 341.542 278.73C341.335 278.297 341.232 277.79 341.232 277.21C341.232 276.623 341.335 276.117 341.542 275.69C341.755 275.257 342.042 274.927 342.402 274.7C342.768 274.467 343.182 274.35 343.642 274.35ZM344.192 275.85C343.825 275.85 343.528 275.97 343.302 276.21C343.082 276.45 342.972 276.783 342.972 277.21C342.972 277.637 343.082 277.97 343.302 278.21C343.528 278.45 343.825 278.57 344.192 278.57C344.552 278.57 344.845 278.447 345.072 278.2C345.305 277.953 345.422 277.623 345.422 277.21C345.422 276.79 345.305 276.46 345.072 276.22C344.845 275.973 344.552 275.85 344.192 275.85ZM348.139 272.85C348.139 272.59 348.232 272.377 348.419 272.21C348.606 272.037 348.852 271.95 349.159 271.95C349.466 271.95 349.712 272.037 349.899 272.21C350.086 272.377 350.179 272.59 350.179 272.85C350.179 273.103 350.086 273.317 349.899 273.49C349.712 273.657 349.466 273.74 349.159 273.74C348.852 273.74 348.606 273.657 348.419 273.49C348.232 273.317 348.139 273.103 348.139 272.85ZM350.009 274.42V280H348.299V274.42H350.009ZM353.8 274.35C354.353 274.35 354.846 274.467 355.28 274.7C355.72 274.927 356.063 275.257 356.31 275.69C356.563 276.123 356.69 276.63 356.69 277.21C356.69 277.79 356.563 278.297 356.31 278.73C356.063 279.163 355.72 279.497 355.28 279.73C354.846 279.957 354.353 280.07 353.8 280.07C353.246 280.07 352.75 279.957 352.31 279.73C351.87 279.497 351.523 279.163 351.27 278.73C351.023 278.297 350.9 277.79 350.9 277.21C350.9 276.63 351.023 276.123 351.27 275.69C351.523 275.257 351.87 274.927 352.31 274.7C352.75 274.467 353.246 274.35 353.8 274.35ZM353.8 275.83C353.473 275.83 353.196 275.95 352.97 276.19C352.75 276.423 352.64 276.763 352.64 277.21C352.64 277.657 352.75 277.997 352.97 278.23C353.196 278.463 353.473 278.58 353.8 278.58C354.126 278.58 354.4 278.463 354.62 278.23C354.84 277.997 354.95 277.657 354.95 277.21C354.95 276.763 354.84 276.423 354.62 276.19C354.4 275.95 354.126 275.83 353.8 275.83ZM361.116 274.36C361.756 274.36 362.263 274.573 362.636 275C363.016 275.427 363.206 276.013 363.206 276.76V280H361.496V276.96C361.496 276.587 361.396 276.297 361.196 276.09C361.003 275.877 360.743 275.77 360.416 275.77C360.07 275.77 359.793 275.88 359.586 276.1C359.386 276.32 359.286 276.633 359.286 277.04V280H357.576V274.42H359.286V275.44C359.446 275.107 359.683 274.843 359.996 274.65C360.316 274.457 360.69 274.36 361.116 274.36Z" fill="#0D1C3F"/>
<path d="M304.268 307.562C303.691 307.562 303.169 307.436 302.701 307.183C302.24 306.924 301.877 306.573 301.613 306.127C301.349 305.677 301.217 305.171 301.217 304.61C301.217 304.05 301.349 303.547 301.613 303.101C301.877 302.651 302.242 302.299 302.71 302.046C303.177 301.788 303.699 301.659 304.276 301.659C304.727 301.659 305.139 301.736 305.513 301.889C305.887 302.038 306.205 302.26 306.469 302.557L305.933 303.077C305.499 302.621 304.958 302.392 304.309 302.392C303.88 302.392 303.493 302.489 303.147 302.681C302.8 302.873 302.528 303.14 302.33 303.481C302.138 303.816 302.042 304.193 302.042 304.61C302.042 305.028 302.138 305.407 302.33 305.748C302.528 306.083 302.8 306.347 303.147 306.54C303.493 306.732 303.88 306.828 304.309 306.828C304.952 306.828 305.494 306.597 305.933 306.136L306.469 306.655C306.205 306.952 305.884 307.177 305.505 307.331C305.131 307.485 304.719 307.562 304.268 307.562ZM309.216 307.545C308.782 307.545 308.392 307.449 308.046 307.257C307.699 307.064 307.427 306.801 307.229 306.465C307.037 306.125 306.941 305.74 306.941 305.311C306.941 304.882 307.037 304.5 307.229 304.165C307.427 303.824 307.699 303.56 308.046 303.374C308.392 303.181 308.782 303.085 309.216 303.085C309.651 303.085 310.038 303.181 310.379 303.374C310.725 303.56 310.995 303.824 311.187 304.165C311.385 304.5 311.484 304.882 311.484 305.311C311.484 305.74 311.385 306.125 311.187 306.465C310.995 306.801 310.725 307.064 310.379 307.257C310.038 307.449 309.651 307.545 309.216 307.545ZM309.216 306.853C309.497 306.853 309.747 306.79 309.967 306.663C310.192 306.531 310.368 306.35 310.494 306.119C310.621 305.883 310.684 305.613 310.684 305.311C310.684 305.009 310.621 304.742 310.494 304.511C310.368 304.275 310.192 304.094 309.967 303.967C309.747 303.841 309.497 303.778 309.216 303.778C308.936 303.778 308.683 303.841 308.458 303.967C308.238 304.094 308.062 304.275 307.93 304.511C307.804 304.742 307.741 305.009 307.741 305.311C307.741 305.613 307.804 305.883 307.93 306.119C308.062 306.35 308.238 306.531 308.458 306.663C308.683 306.79 308.936 306.853 309.216 306.853ZM318.045 303.085C318.594 303.085 319.029 303.244 319.347 303.563C319.672 303.882 319.834 304.355 319.834 304.981V307.496H319.042V305.072C319.042 304.649 318.943 304.33 318.746 304.116C318.553 303.901 318.276 303.794 317.913 303.794C317.512 303.794 317.193 303.92 316.956 304.173C316.72 304.421 316.602 304.778 316.602 305.245V307.496H315.81V305.072C315.81 304.649 315.711 304.33 315.514 304.116C315.321 303.901 315.044 303.794 314.681 303.794C314.28 303.794 313.961 303.92 313.724 304.173C313.488 304.421 313.37 304.778 313.37 305.245V307.496H312.578V303.126H313.337V303.778C313.496 303.552 313.705 303.382 313.963 303.266C314.222 303.145 314.516 303.085 314.846 303.085C315.186 303.085 315.489 303.154 315.753 303.291C316.016 303.429 316.22 303.629 316.363 303.893C316.528 303.64 316.756 303.442 317.047 303.299C317.344 303.156 317.676 303.085 318.045 303.085ZM326.757 303.085C327.306 303.085 327.74 303.244 328.059 303.563C328.384 303.882 328.546 304.355 328.546 304.981V307.496H327.754V305.072C327.754 304.649 327.655 304.33 327.457 304.116C327.265 303.901 326.987 303.794 326.625 303.794C326.223 303.794 325.905 303.92 325.668 304.173C325.432 304.421 325.314 304.778 325.314 305.245V307.496H324.522V305.072C324.522 304.649 324.423 304.33 324.225 304.116C324.033 303.901 323.755 303.794 323.393 303.794C322.991 303.794 322.673 303.92 322.436 304.173C322.2 304.421 322.082 304.778 322.082 305.245V307.496H321.29V303.126H322.049V303.778C322.208 303.552 322.417 303.382 322.675 303.266C322.934 303.145 323.228 303.085 323.558 303.085C323.898 303.085 324.201 303.154 324.464 303.291C324.728 303.429 324.932 303.629 325.075 303.893C325.239 303.64 325.468 303.442 325.759 303.299C326.056 303.156 326.388 303.085 326.757 303.085ZM334.075 303.126V307.496H333.325V306.836C333.165 307.062 332.954 307.238 332.69 307.364C332.432 307.485 332.148 307.545 331.841 307.545C331.258 307.545 330.799 307.386 330.464 307.067C330.128 306.743 329.961 306.267 329.961 305.641V303.126H330.752V305.55C330.752 305.973 330.854 306.295 331.057 306.515C331.261 306.729 331.552 306.836 331.931 306.836C332.349 306.836 332.679 306.71 332.921 306.457C333.163 306.204 333.283 305.847 333.283 305.385V303.126H334.075ZM337.915 303.085C338.47 303.085 338.91 303.247 339.234 303.571C339.564 303.89 339.729 304.36 339.729 304.981V307.496H338.937V305.072C338.937 304.649 338.836 304.33 338.632 304.116C338.429 303.901 338.138 303.794 337.758 303.794C337.33 303.794 336.992 303.92 336.744 304.173C336.497 304.421 336.373 304.778 336.373 305.245V307.496H335.582V303.126H336.34V303.786C336.5 303.56 336.714 303.387 336.983 303.266C337.258 303.145 337.569 303.085 337.915 303.085ZM341.194 303.126H341.985V307.496H341.194V303.126ZM341.59 302.285C341.436 302.285 341.306 302.236 341.202 302.137C341.103 302.038 341.054 301.917 341.054 301.774C341.054 301.631 341.103 301.51 341.202 301.411C341.306 301.307 341.436 301.255 341.59 301.255C341.743 301.255 341.87 301.304 341.969 301.403C342.073 301.496 342.125 301.615 342.125 301.758C342.125 301.906 342.073 302.032 341.969 302.137C341.87 302.236 341.743 302.285 341.59 302.285ZM345.953 307.24C345.838 307.339 345.695 307.416 345.525 307.471C345.354 307.521 345.178 307.545 344.997 307.545C344.557 307.545 344.217 307.427 343.975 307.191C343.733 306.955 343.612 306.617 343.612 306.177V303.778H342.87V303.126H343.612V302.17H344.403V303.126H345.657V303.778H344.403V306.144C344.403 306.38 344.461 306.562 344.577 306.688C344.698 306.814 344.868 306.878 345.088 306.878C345.33 306.878 345.536 306.809 345.706 306.671L345.953 307.24ZM350.697 303.126L348.578 307.933C348.391 308.378 348.171 308.691 347.918 308.873C347.671 309.054 347.371 309.145 347.02 309.145C346.805 309.145 346.596 309.109 346.393 309.038C346.195 308.972 346.03 308.873 345.898 308.741L346.236 308.147C346.462 308.362 346.723 308.469 347.02 308.469C347.212 308.469 347.371 308.417 347.498 308.312C347.63 308.213 347.748 308.04 347.852 307.793L347.992 307.488L346.063 303.126H346.888L348.413 306.622L349.922 303.126H350.697Z" fill="#45465A"/>
<path d="M389.713 304.074C390.219 304.157 390.607 304.346 390.876 304.643C391.145 304.935 391.28 305.297 391.28 305.732C391.28 306.067 391.192 306.377 391.016 306.663C390.84 306.944 390.571 307.169 390.208 307.339C389.851 307.51 389.411 307.595 388.889 307.595C388.482 307.595 388.081 307.543 387.685 307.438C387.295 307.328 386.962 307.174 386.687 306.977L387.207 305.954C387.427 306.119 387.68 306.248 387.965 306.342C388.257 306.43 388.554 306.474 388.856 306.474C389.191 306.474 389.455 306.41 389.647 306.284C389.84 306.152 389.936 305.968 389.936 305.732C389.936 305.259 389.576 305.023 388.856 305.023H388.246V304.14L389.433 302.796H386.976V301.725H391.016V302.59L389.713 304.074ZM393.795 303.893C394.608 303.893 395.207 304.055 395.592 304.379C395.982 304.704 396.178 305.138 396.178 305.682C396.178 306.034 396.09 306.355 395.914 306.647C395.738 306.933 395.469 307.163 395.106 307.339C394.748 307.51 394.306 307.595 393.778 307.595C393.372 307.595 392.97 307.543 392.575 307.438C392.184 307.328 391.852 307.174 391.577 306.977L392.105 305.954C392.324 306.119 392.577 306.248 392.863 306.342C393.149 306.43 393.443 306.474 393.745 306.474C394.081 306.474 394.344 306.408 394.537 306.276C394.729 306.144 394.825 305.96 394.825 305.723C394.825 305.476 394.724 305.289 394.52 305.163C394.322 305.036 393.976 304.973 393.482 304.973H392.006L392.302 301.725H395.823V302.796H393.416L393.325 303.893H393.795ZM397.975 304.841C397.551 304.841 397.205 304.698 396.936 304.412C396.672 304.121 396.54 303.734 396.54 303.25C396.54 302.766 396.672 302.381 396.936 302.096C397.205 301.804 397.551 301.659 397.975 301.659C398.398 301.659 398.741 301.804 399.005 302.096C399.269 302.381 399.401 302.766 399.401 303.25C399.401 303.734 399.269 304.121 399.005 304.412C398.741 304.698 398.398 304.841 397.975 304.841ZM401.413 301.725H402.394L398.453 307.496H397.472L401.413 301.725ZM397.975 304.165C398.162 304.165 398.307 304.088 398.412 303.934C398.522 303.78 398.576 303.552 398.576 303.25C398.576 302.948 398.522 302.719 398.412 302.566C398.307 302.412 398.162 302.335 397.975 302.335C397.793 302.335 397.648 302.414 397.538 302.574C397.428 302.728 397.373 302.953 397.373 303.25C397.373 303.547 397.428 303.775 397.538 303.934C397.648 304.088 397.793 304.165 397.975 304.165ZM401.891 307.562C401.616 307.562 401.369 307.499 401.149 307.372C400.935 307.24 400.767 307.053 400.646 306.812C400.525 306.57 400.465 306.289 400.465 305.971C400.465 305.652 400.525 305.372 400.646 305.13C400.767 304.888 400.935 304.704 401.149 304.577C401.369 304.445 401.616 304.379 401.891 304.379C402.314 304.379 402.658 304.525 402.922 304.816C403.191 305.102 403.326 305.487 403.326 305.971C403.326 306.454 403.191 306.842 402.922 307.133C402.658 307.419 402.314 307.562 401.891 307.562ZM401.891 306.886C402.078 306.886 402.223 306.809 402.328 306.655C402.438 306.496 402.493 306.267 402.493 305.971C402.493 305.674 402.438 305.449 402.328 305.295C402.223 305.135 402.078 305.055 401.891 305.055C401.71 305.055 401.564 305.132 401.454 305.286C401.344 305.44 401.289 305.668 401.289 305.971C401.289 306.273 401.344 306.501 401.454 306.655C401.564 306.809 401.71 306.886 401.891 306.886Z" fill="#45465A"/>
<path d="M392.302 327.213H391.362V328.425H390.06V327.213H386.951V326.314L389.672 322.654H391.074L388.551 326.125H390.101V325.045H391.362V326.125H392.302V327.213ZM394.718 322.654V328.425H393.383V323.725H392.229V322.654H394.718ZM397.057 325.77C396.634 325.77 396.287 325.627 396.018 325.341C395.754 325.05 395.622 324.663 395.622 324.179C395.622 323.695 395.754 323.31 396.018 323.025C396.287 322.733 396.634 322.588 397.057 322.588C397.48 322.588 397.824 322.733 398.087 323.025C398.351 323.31 398.483 323.695 398.483 324.179C398.483 324.663 398.351 325.05 398.087 325.341C397.824 325.627 397.48 325.77 397.057 325.77ZM400.495 322.654H401.476L397.535 328.425H396.554L400.495 322.654ZM397.057 325.094C397.244 325.094 397.389 325.017 397.494 324.863C397.604 324.709 397.659 324.481 397.659 324.179C397.659 323.877 397.604 323.649 397.494 323.495C397.389 323.341 397.244 323.264 397.057 323.264C396.875 323.264 396.73 323.343 396.62 323.503C396.51 323.657 396.455 323.882 396.455 324.179C396.455 324.476 396.51 324.704 396.62 324.863C396.73 325.017 396.875 325.094 397.057 325.094ZM400.973 328.491C400.698 328.491 400.451 328.428 400.231 328.301C400.017 328.169 399.849 327.983 399.728 327.741C399.607 327.499 399.547 327.219 399.547 326.9C399.547 326.581 399.607 326.301 399.728 326.059C399.849 325.817 400.017 325.633 400.231 325.506C400.451 325.374 400.698 325.308 400.973 325.308C401.396 325.308 401.74 325.454 402.004 325.745C402.273 326.031 402.408 326.416 402.408 326.9C402.408 327.383 402.273 327.771 402.004 328.062C401.74 328.348 401.396 328.491 400.973 328.491ZM400.973 327.815C401.16 327.815 401.306 327.738 401.41 327.584C401.52 327.425 401.575 327.197 401.575 326.9C401.575 326.603 401.52 326.378 401.41 326.224C401.306 326.064 401.16 325.985 400.973 325.985C400.792 325.985 400.646 326.062 400.536 326.215C400.426 326.369 400.371 326.597 400.371 326.9C400.371 327.202 400.426 327.43 400.536 327.584C400.646 327.738 400.792 327.815 400.973 327.815Z" fill="#45465A"/>
<path d="M391.329 347.632V348.72H386.968V347.854L389.194 345.752C389.43 345.527 389.59 345.334 389.672 345.175C389.755 345.01 389.796 344.848 389.796 344.688C389.796 344.458 389.716 344.282 389.557 344.161C389.403 344.034 389.175 343.971 388.872 343.971C388.62 343.971 388.391 344.021 388.188 344.119C387.985 344.213 387.814 344.356 387.677 344.548L386.704 343.922C386.929 343.586 387.24 343.325 387.636 343.138C388.031 342.946 388.485 342.85 388.996 342.85C389.425 342.85 389.799 342.921 390.117 343.064C390.442 343.202 390.692 343.399 390.868 343.658C391.049 343.911 391.14 344.21 391.14 344.556C391.14 344.87 391.074 345.164 390.942 345.439C390.81 345.713 390.554 346.027 390.175 346.379L388.848 347.632H391.329ZM397.085 347.508H396.145V348.72H394.842V347.508H391.734V346.609L394.455 342.949H395.856L393.333 346.42H394.884V345.34H396.145V346.42H397.085V347.508ZM398.57 346.065C398.147 346.065 397.801 345.922 397.532 345.637C397.268 345.345 397.136 344.958 397.136 344.474C397.136 343.99 397.268 343.606 397.532 343.32C397.801 343.028 398.147 342.883 398.57 342.883C398.994 342.883 399.337 343.028 399.601 343.32C399.865 343.606 399.997 343.99 399.997 344.474C399.997 344.958 399.865 345.345 399.601 345.637C399.337 345.922 398.994 346.065 398.57 346.065ZM402.009 342.949H402.99L399.049 348.72H398.068L402.009 342.949ZM398.57 345.389C398.757 345.389 398.903 345.312 399.007 345.158C399.117 345.004 399.172 344.776 399.172 344.474C399.172 344.172 399.117 343.944 399.007 343.79C398.903 343.636 398.757 343.559 398.57 343.559C398.389 343.559 398.243 343.639 398.133 343.798C398.024 343.952 397.969 344.177 397.969 344.474C397.969 344.771 398.024 344.999 398.133 345.158C398.243 345.312 398.389 345.389 398.57 345.389ZM402.487 348.786C402.212 348.786 401.965 348.723 401.745 348.596C401.53 348.465 401.363 348.278 401.242 348.036C401.121 347.794 401.06 347.514 401.06 347.195C401.06 346.876 401.121 346.596 401.242 346.354C401.363 346.112 401.53 345.928 401.745 345.801C401.965 345.67 402.212 345.604 402.487 345.604C402.91 345.604 403.254 345.749 403.517 346.041C403.787 346.326 403.921 346.711 403.921 347.195C403.921 347.678 403.787 348.066 403.517 348.357C403.254 348.643 402.91 348.786 402.487 348.786ZM402.487 348.11C402.674 348.11 402.819 348.033 402.924 347.879C403.034 347.72 403.089 347.492 403.089 347.195C403.089 346.898 403.034 346.673 402.924 346.519C402.819 346.359 402.674 346.28 402.487 346.28C402.305 346.28 402.16 346.357 402.05 346.51C401.94 346.664 401.885 346.892 401.885 347.195C401.885 347.497 401.94 347.725 402.05 347.879C402.16 348.033 402.305 348.11 402.487 348.11Z" fill="#45465A"/>
<path d="M303.369 328.491C302.935 328.491 302.514 328.425 302.108 328.293C301.706 328.156 301.39 327.98 301.16 327.765L301.465 327.122C301.684 327.32 301.965 327.482 302.306 327.609C302.652 327.73 303.006 327.79 303.369 327.79C303.847 327.79 304.205 327.71 304.441 327.551C304.677 327.386 304.796 327.169 304.796 326.9C304.796 326.702 304.73 326.542 304.598 326.422C304.471 326.295 304.312 326.199 304.119 326.133C303.933 326.067 303.666 325.993 303.32 325.91C302.885 325.806 302.534 325.702 302.264 325.597C302.001 325.493 301.772 325.333 301.58 325.119C301.393 324.899 301.3 324.605 301.3 324.237C301.3 323.929 301.379 323.651 301.539 323.404C301.704 323.157 301.951 322.959 302.281 322.81C302.611 322.662 303.02 322.588 303.509 322.588C303.85 322.588 304.185 322.632 304.515 322.72C304.845 322.808 305.128 322.934 305.364 323.099L305.092 323.758C304.851 323.605 304.592 323.489 304.317 323.412C304.043 323.33 303.773 323.289 303.509 323.289C303.042 323.289 302.69 323.374 302.454 323.544C302.223 323.714 302.108 323.934 302.108 324.204C302.108 324.402 302.174 324.564 302.306 324.69C302.438 324.811 302.6 324.907 302.792 324.979C302.99 325.045 303.257 325.116 303.592 325.193C304.026 325.298 304.375 325.402 304.639 325.506C304.903 325.611 305.128 325.77 305.315 325.985C305.507 326.199 305.604 326.488 305.604 326.85C305.604 327.153 305.521 327.43 305.356 327.683C305.191 327.93 304.941 328.128 304.606 328.277C304.271 328.42 303.858 328.491 303.369 328.491ZM310.642 326.265C310.642 326.325 310.636 326.405 310.625 326.504H307.08C307.13 326.889 307.297 327.199 307.583 327.436C307.874 327.667 308.234 327.782 308.663 327.782C309.185 327.782 309.606 327.606 309.925 327.254L310.362 327.765C310.164 327.996 309.916 328.172 309.62 328.293C309.328 328.414 309.001 328.475 308.638 328.475C308.177 328.475 307.767 328.381 307.41 328.194C307.053 328.002 306.775 327.735 306.577 327.394C306.385 327.054 306.289 326.669 306.289 326.24C306.289 325.817 306.382 325.435 306.569 325.094C306.761 324.753 307.022 324.49 307.352 324.303C307.688 324.11 308.064 324.014 308.482 324.014C308.9 324.014 309.271 324.11 309.595 324.303C309.925 324.49 310.18 324.753 310.362 325.094C310.548 325.435 310.642 325.825 310.642 326.265ZM308.482 324.682C308.103 324.682 307.784 324.797 307.525 325.028C307.273 325.259 307.124 325.561 307.08 325.935H309.883C309.839 325.567 309.688 325.267 309.43 325.036C309.177 324.8 308.861 324.682 308.482 324.682ZM313.646 328.475C313.2 328.475 312.802 328.378 312.45 328.186C312.104 327.994 311.832 327.73 311.634 327.394C311.436 327.054 311.337 326.669 311.337 326.24C311.337 325.811 311.436 325.429 311.634 325.094C311.832 324.753 312.104 324.49 312.45 324.303C312.802 324.11 313.2 324.014 313.646 324.014C314.041 324.014 314.393 324.094 314.701 324.253C315.014 324.413 315.256 324.643 315.426 324.946L314.825 325.333C314.687 325.124 314.517 324.968 314.313 324.863C314.11 324.759 313.885 324.707 313.637 324.707C313.351 324.707 313.093 324.77 312.862 324.896C312.637 325.023 312.458 325.204 312.326 325.44C312.2 325.671 312.137 325.938 312.137 326.24C312.137 326.548 312.2 326.82 312.326 327.056C312.458 327.287 312.637 327.466 312.862 327.592C313.093 327.719 313.351 327.782 313.637 327.782C313.885 327.782 314.11 327.73 314.313 327.625C314.517 327.521 314.687 327.364 314.825 327.155L315.426 327.535C315.256 327.837 315.014 328.071 314.701 328.235C314.393 328.395 314.041 328.475 313.646 328.475ZM320.524 324.055V328.425H319.774V327.765C319.614 327.991 319.403 328.167 319.139 328.293C318.881 328.414 318.598 328.475 318.29 328.475C317.707 328.475 317.248 328.315 316.913 327.996C316.578 327.672 316.41 327.197 316.41 326.57V324.055H317.201V326.479C317.201 326.903 317.303 327.224 317.507 327.444C317.71 327.658 318.001 327.765 318.38 327.765C318.798 327.765 319.128 327.639 319.37 327.386C319.612 327.133 319.733 326.776 319.733 326.314V324.055H320.524ZM322.789 324.789C322.927 324.536 323.13 324.344 323.4 324.212C323.669 324.08 323.996 324.014 324.381 324.014V324.781C324.337 324.775 324.276 324.773 324.199 324.773C323.771 324.773 323.433 324.902 323.185 325.16C322.943 325.413 322.822 325.776 322.822 326.248V328.425H322.031V324.055H322.789V324.789ZM325.356 324.055H326.148V328.425H325.356V324.055ZM325.752 323.214C325.598 323.214 325.469 323.165 325.365 323.066C325.266 322.967 325.216 322.846 325.216 322.703C325.216 322.56 325.266 322.439 325.365 322.34C325.469 322.236 325.598 322.184 325.752 322.184C325.906 322.184 326.032 322.233 326.131 322.332C326.236 322.426 326.288 322.544 326.288 322.687C326.288 322.835 326.236 322.961 326.131 323.066C326.032 323.165 325.906 323.214 325.752 323.214ZM330.116 328.169C330.001 328.268 329.858 328.345 329.687 328.4C329.517 328.45 329.341 328.475 329.16 328.475C328.72 328.475 328.379 328.356 328.137 328.12C327.895 327.884 327.774 327.546 327.774 327.106V324.707H327.032V324.055H327.774V323.099H328.566V324.055H329.819V324.707H328.566V327.073C328.566 327.309 328.624 327.491 328.739 327.617C328.86 327.743 329.03 327.807 329.25 327.807C329.492 327.807 329.698 327.738 329.869 327.601L330.116 328.169ZM334.859 324.055L332.74 328.862C332.553 329.307 332.334 329.621 332.081 329.802C331.833 329.983 331.534 330.074 331.182 330.074C330.968 330.074 330.759 330.038 330.555 329.967C330.358 329.901 330.193 329.802 330.061 329.67L330.399 329.076C330.624 329.291 330.885 329.398 331.182 329.398C331.374 329.398 331.534 329.346 331.66 329.241C331.792 329.142 331.91 328.969 332.015 328.722L332.155 328.417L330.226 324.055H331.05L332.575 327.551L334.084 324.055H334.859Z" fill="#45465A"/>
<path d="M303.369 348.786C302.935 348.786 302.514 348.72 302.108 348.588C301.706 348.451 301.39 348.275 301.16 348.061L301.465 347.417C301.684 347.615 301.965 347.777 302.306 347.904C302.652 348.025 303.006 348.085 303.369 348.085C303.847 348.085 304.205 348.006 304.441 347.846C304.677 347.681 304.796 347.464 304.796 347.195C304.796 346.997 304.73 346.838 304.598 346.717C304.471 346.59 304.312 346.494 304.119 346.428C303.933 346.362 303.666 346.288 303.32 346.205C302.885 346.101 302.534 345.997 302.264 345.892C302.001 345.788 301.772 345.628 301.58 345.414C301.393 345.194 301.3 344.9 301.3 344.532C301.3 344.224 301.379 343.946 301.539 343.699C301.704 343.452 301.951 343.254 302.281 343.105C302.611 342.957 303.02 342.883 303.509 342.883C303.85 342.883 304.185 342.927 304.515 343.015C304.845 343.103 305.128 343.229 305.364 343.394L305.092 344.054C304.851 343.9 304.592 343.784 304.317 343.707C304.043 343.625 303.773 343.584 303.509 343.584C303.042 343.584 302.69 343.669 302.454 343.839C302.223 344.01 302.108 344.229 302.108 344.499C302.108 344.697 302.174 344.859 302.306 344.985C302.438 345.106 302.6 345.202 302.792 345.274C302.99 345.34 303.257 345.411 303.592 345.488C304.026 345.593 304.375 345.697 304.639 345.801C304.903 345.906 305.128 346.065 305.315 346.28C305.507 346.494 305.604 346.783 305.604 347.145C305.604 347.448 305.521 347.725 305.356 347.978C305.191 348.225 304.941 348.423 304.606 348.572C304.271 348.715 303.858 348.786 303.369 348.786ZM310.642 346.56C310.642 346.62 310.636 346.7 310.625 346.799H307.08C307.13 347.184 307.297 347.494 307.583 347.731C307.874 347.962 308.234 348.077 308.663 348.077C309.185 348.077 309.606 347.901 309.925 347.549L310.362 348.061C310.164 348.291 309.916 348.467 309.62 348.588C309.328 348.709 309.001 348.77 308.638 348.77C308.177 348.77 307.767 348.676 307.41 348.489C307.053 348.297 306.775 348.03 306.577 347.689C306.385 347.349 306.289 346.964 306.289 346.535C306.289 346.112 306.382 345.73 306.569 345.389C306.761 345.048 307.022 344.785 307.352 344.598C307.688 344.405 308.064 344.309 308.482 344.309C308.9 344.309 309.271 344.405 309.595 344.598C309.925 344.785 310.18 345.048 310.362 345.389C310.548 345.73 310.642 346.12 310.642 346.56ZM308.482 344.977C308.103 344.977 307.784 345.092 307.525 345.323C307.273 345.554 307.124 345.856 307.08 346.23H309.883C309.839 345.862 309.688 345.562 309.43 345.331C309.177 345.095 308.861 344.977 308.482 344.977ZM312.5 345.084C312.637 344.831 312.84 344.639 313.11 344.507C313.379 344.375 313.706 344.309 314.091 344.309V345.076C314.047 345.07 313.986 345.068 313.909 345.068C313.481 345.068 313.143 345.197 312.895 345.455C312.653 345.708 312.532 346.071 312.532 346.543V348.72H311.741V344.35H312.5V345.084ZM319.11 344.35L317.197 348.72H316.389L314.477 344.35H315.301L316.802 347.854L318.335 344.35H319.11ZM319.849 344.35H320.64V348.72H319.849V344.35ZM320.245 343.509C320.091 343.509 319.962 343.46 319.857 343.361C319.758 343.262 319.709 343.141 319.709 342.998C319.709 342.855 319.758 342.734 319.857 342.635C319.962 342.531 320.091 342.479 320.245 342.479C320.399 342.479 320.525 342.528 320.624 342.627C320.728 342.721 320.781 342.839 320.781 342.982C320.781 343.13 320.728 343.257 320.624 343.361C320.525 343.46 320.399 343.509 320.245 343.509ZM324.056 348.77C323.611 348.77 323.213 348.673 322.861 348.481C322.514 348.289 322.242 348.025 322.045 347.689C321.847 347.349 321.748 346.964 321.748 346.535C321.748 346.106 321.847 345.724 322.045 345.389C322.242 345.048 322.514 344.785 322.861 344.598C323.213 344.405 323.611 344.309 324.056 344.309C324.452 344.309 324.804 344.389 325.112 344.548C325.425 344.708 325.667 344.938 325.837 345.241L325.235 345.628C325.098 345.419 324.927 345.263 324.724 345.158C324.521 345.054 324.295 345.002 324.048 345.002C323.762 345.002 323.504 345.065 323.273 345.191C323.048 345.318 322.869 345.499 322.737 345.735C322.611 345.966 322.547 346.233 322.547 346.535C322.547 346.843 322.611 347.115 322.737 347.351C322.869 347.582 323.048 347.761 323.273 347.887C323.504 348.014 323.762 348.077 324.048 348.077C324.295 348.077 324.521 348.025 324.724 347.92C324.927 347.816 325.098 347.659 325.235 347.45L325.837 347.83C325.667 348.132 325.425 348.366 325.112 348.53C324.804 348.69 324.452 348.77 324.056 348.77ZM330.747 346.56C330.747 346.62 330.741 346.7 330.73 346.799H327.185C327.234 347.184 327.402 347.494 327.688 347.731C327.979 347.962 328.339 348.077 328.768 348.077C329.29 348.077 329.711 347.901 330.029 347.549L330.466 348.061C330.269 348.291 330.021 348.467 329.724 348.588C329.433 348.709 329.106 348.77 328.743 348.77C328.282 348.77 327.872 348.676 327.515 348.489C327.158 348.297 326.88 348.03 326.682 347.689C326.49 347.349 326.393 346.964 326.393 346.535C326.393 346.112 326.487 345.73 326.674 345.389C326.866 345.048 327.127 344.785 327.457 344.598C327.792 344.405 328.169 344.309 328.587 344.309C329.004 344.309 329.375 344.405 329.7 344.598C330.029 344.785 330.285 345.048 330.466 345.389C330.653 345.73 330.747 346.12 330.747 346.56ZM328.587 344.977C328.207 344.977 327.889 345.092 327.63 345.323C327.377 345.554 327.229 345.856 327.185 346.23H329.988C329.944 345.862 329.793 345.562 329.535 345.331C329.282 345.095 328.966 344.977 328.587 344.977Z" fill="#45465A"/>
<path opacity="0.8" fill-rule="evenodd" clip-rule="evenodd" d="M532.495 354.917C550.036 354.917 564.257 340.697 564.257 323.155C564.257 305.614 550.036 291.393 532.495 291.393C514.953 291.393 500.733 305.614 500.733 323.155C500.733 340.697 514.953 354.917 532.495 354.917Z" stroke="#E9EBF6" stroke-width="10.1188"/>
<path d="M506.897 341.963C512.679 349.82 521.991 354.917 532.494 354.917V354.917C550.036 354.917 564.256 340.697 564.256 323.156C564.256 305.614 550.036 291.394 532.494 291.394" stroke="#25DBDC" stroke-width="10.1188"/>
<path d="M558.774 340.999C562.234 335.913 564.256 329.771 564.256 323.156C564.256 305.614 550.036 291.394 532.494 291.394" stroke="#180868" stroke-width="10.1188"/>
<path d="M290.674 308.375C292.776 308.375 294.48 306.671 294.48 304.569C294.48 302.468 292.776 300.764 290.674 300.764C288.573 300.764 286.869 302.468 286.869 304.569C286.869 306.671 288.573 308.375 290.674 308.375Z" fill="#5DD0D1"/>
<path d="M290.674 329.304C292.776 329.304 294.48 327.6 294.48 325.498C294.48 323.397 292.776 321.693 290.674 321.693C288.573 321.693 286.869 323.397 286.869 325.498C286.869 327.6 288.573 329.304 290.674 329.304Z" fill="#EAEAEC"/>
<path d="M290.674 350.233C292.776 350.233 294.48 348.529 294.48 346.427C294.48 344.326 292.776 342.622 290.674 342.622C288.573 342.622 286.869 344.326 286.869 346.427C286.869 348.529 288.573 350.233 290.674 350.233Z" fill="#180868"/>
<rect x="58.511" y="249.234" width="49.6456" height="8.02605" rx="4.01303" fill="#B8C1E3"/>
<rect x="189.603" y="249.234" width="49.6456" height="8.02605" rx="4.01303" fill="white"/>
<rect x="123.611" y="249.234" width="49.6456" height="8.02605" rx="4.01303" fill="white"/>
<rect opacity="0.7" x="58.7662" y="272.527" width="180.967" height="92.56" rx="10.68" fill="white"/>
<rect x="71.8173" y="319.285" width="79.0701" height="7.68566" rx="3.84283" fill="#EDEFF8"/>
<rect x="71.8173" y="335.426" width="149.778" height="7.68566" rx="3.84283" fill="#EDEFF8"/>
<rect x="71.8173" y="293.265" width="39.7195" height="6.0563" rx="3.02815" fill="#B8C1E3"/>
<rect opacity="0.7" x="58.7662" y="375.767" width="180.967" height="92.56" rx="10.68" fill="white"/>
<path d="M203.54 402.759C203.54 400.793 205.134 399.199 207.1 399.199H239.733V412.252H207.1C205.134 412.252 203.54 410.658 203.54 408.692V402.759Z" fill="#266BED"/>
<path d="M215.233 408.505H216.101V406.366C216.101 405.836 216.418 405.478 216.916 405.478C217.41 405.478 217.654 405.77 217.654 406.293V408.505H218.522V406.119C218.522 405.265 218.058 404.743 217.243 404.743C216.675 404.743 216.282 405.007 216.083 405.446H216.066V404.812H215.233V408.505ZM220.81 405.408C221.309 405.408 221.643 405.774 221.66 406.296H219.936C219.971 405.781 220.323 405.408 220.81 405.408ZM221.664 407.4C221.57 407.707 221.263 407.909 220.859 407.909C220.291 407.909 219.929 407.512 219.929 406.92V406.868H222.51V406.585C222.51 405.464 221.855 404.736 220.807 404.736C219.741 404.736 219.065 405.505 219.065 406.672C219.065 407.85 219.734 408.578 220.842 408.578C221.716 408.578 222.364 408.097 222.476 407.4H221.664ZM228.067 404.812H227.21L226.586 407.648H226.565L225.844 404.812H225.012L224.29 407.648H224.273L223.649 404.812H222.779L223.778 408.505H224.684L225.409 405.805H225.426L226.154 408.505H227.067L228.067 404.812Z" fill="#FEFFFE"/>
<rect x="74.1224" y="422.274" width="79.0701" height="7.68566" rx="3.84283" fill="#EDEFF8"/>
<rect x="74.1224" y="438.413" width="149.778" height="7.68566" rx="3.84283" fill="#EDEFF8"/>
<rect x="74.1224" y="396.253" width="39.7195" height="6.0563" rx="3.02815" fill="#B8C1E3"/>
<rect opacity="0.7" x="58.7662" y="479.006" width="180.967" height="92.56" rx="10.68" fill="white"/>
<rect x="74.1224" y="528.335" width="79.0701" height="7.68566" rx="3.84283" fill="#EDEFF8"/>
<rect x="74.1224" y="544.476" width="149.778" height="7.68566" rx="3.84283" fill="#EDEFF8"/>
<rect x="74.1224" y="502.315" width="39.7195" height="6.0563" rx="3.02815" fill="#B8C1E3"/>
<path d="M203.54 500.365C203.54 498.399 205.134 496.805 207.1 496.805H239.733V509.859H207.1C205.134 509.859 203.54 508.265 203.54 506.299V500.365Z" fill="#266BED"/>
<path d="M215.233 505.709H216.101V503.57C216.101 503.041 216.418 502.682 216.916 502.682C217.41 502.682 217.654 502.975 217.654 503.497V505.709H218.522V503.323C218.522 502.47 218.058 501.947 217.243 501.947C216.675 501.947 216.282 502.212 216.083 502.651H216.066V502.017H215.233V505.709ZM220.81 502.612C221.309 502.612 221.643 502.978 221.66 503.501H219.936C219.971 502.985 220.323 502.612 220.81 502.612ZM221.664 504.605C221.57 504.912 221.263 505.114 220.859 505.114C220.291 505.114 219.929 504.716 219.929 504.124V504.072H222.51V503.79C222.51 502.668 221.855 501.94 220.807 501.94C219.741 501.94 219.065 502.71 219.065 503.877C219.065 505.054 219.734 505.782 220.842 505.782C221.716 505.782 222.364 505.302 222.476 504.605H221.664ZM228.067 502.017H227.21L226.586 504.852H226.565L225.844 502.017H225.012L224.29 504.852H224.273L223.649 502.017H222.779L223.778 505.709H224.684L225.409 503.009H225.426L226.154 505.709H227.067L228.067 502.017Z" fill="#FEFFFE"/>
<path d="M191.387 293.817C191.387 291.85 192.981 290.257 194.947 290.257H239.543V303.633H194.947C192.981 303.633 191.387 302.039 191.387 300.073V293.817Z" fill="#30DDDE"/>
<path d="M202.008 298.444C201.632 298.444 201.381 298.253 201.381 297.95C201.381 297.657 201.621 297.469 202.039 297.441L202.893 297.389V297.671C202.893 298.117 202.499 298.444 202.008 298.444ZM201.747 299.099C202.221 299.099 202.684 298.852 202.896 298.451H202.914V299.04H203.75V296.497C203.75 295.755 203.154 295.271 202.238 295.271C201.297 295.271 200.709 295.766 200.67 296.455H201.475C201.531 296.149 201.792 295.95 202.203 295.95C202.632 295.95 202.893 296.173 202.893 296.56V296.825L201.917 296.88C201.019 296.936 200.514 297.33 200.514 297.985C200.514 298.65 201.033 299.099 201.747 299.099ZM206.477 295.285C205.941 295.285 205.523 295.557 205.314 295.985H205.296V295.348H204.45V300.256H205.317V298.427H205.335C205.537 298.842 205.955 299.099 206.491 299.099C207.418 299.099 208.01 298.371 208.01 297.194C208.01 296.013 207.414 295.285 206.477 295.285ZM206.213 298.389C205.673 298.389 205.314 297.918 205.31 297.194C205.314 296.476 205.673 295.999 206.213 295.999C206.773 295.999 207.122 296.466 207.122 297.194C207.122 297.925 206.773 298.389 206.213 298.389ZM210.595 295.285C210.058 295.285 209.64 295.557 209.431 295.985H209.414V295.348H208.567V300.256H209.435V298.427H209.452C209.654 298.842 210.072 299.099 210.609 299.099C211.535 299.099 212.128 298.371 212.128 297.194C212.128 296.013 211.532 295.285 210.595 295.285ZM210.33 298.389C209.79 298.389 209.431 297.918 209.428 297.194C209.431 296.476 209.79 295.999 210.33 295.999C210.891 295.999 211.239 296.466 211.239 297.194C211.239 297.925 210.891 298.389 210.33 298.389ZM212.685 299.04H213.552V296.891C213.552 296.372 213.849 296.055 214.34 296.055C214.486 296.055 214.618 296.076 214.692 296.103V295.32C214.629 295.306 214.531 295.285 214.42 295.285C213.984 295.285 213.66 295.543 213.535 295.992H213.518V295.348H212.685V299.04ZM216.632 299.113C217.715 299.113 218.419 298.392 218.419 297.194C218.419 295.999 217.708 295.271 216.632 295.271C215.555 295.271 214.845 296.002 214.845 297.194C214.845 298.392 215.548 299.113 216.632 299.113ZM216.632 298.427C216.081 298.427 215.726 297.981 215.726 297.194C215.726 296.41 216.085 295.961 216.632 295.961C217.182 295.961 217.538 296.41 217.538 297.194C217.538 297.981 217.182 298.427 216.632 298.427ZM222.129 295.348H221.223L220.366 298.235H220.349L219.492 295.348H218.565L219.875 299.04H220.83L222.129 295.348ZM224.017 295.943C224.515 295.943 224.85 296.309 224.867 296.832H223.143C223.177 296.316 223.529 295.943 224.017 295.943ZM224.87 297.936C224.776 298.242 224.47 298.444 224.066 298.444C223.498 298.444 223.136 298.047 223.136 297.455V297.403H225.717V297.121C225.717 295.999 225.062 295.271 224.013 295.271C222.948 295.271 222.272 296.041 222.272 297.208C222.272 298.385 222.941 299.113 224.048 299.113C224.923 299.113 225.571 298.633 225.682 297.936H224.87ZM227.657 299.099C228.197 299.099 228.622 298.824 228.824 298.41H228.838V299.04H229.688V294.013H228.821V295.968H228.8C228.605 295.56 228.187 295.285 227.657 295.285C226.727 295.285 226.124 296.023 226.124 297.19C226.124 298.364 226.727 299.099 227.657 299.099ZM227.919 295.999C228.465 295.999 228.824 296.469 228.824 297.194C228.824 297.925 228.465 298.389 227.919 298.389C227.358 298.389 227.013 297.929 227.013 297.194C227.013 296.462 227.361 295.999 227.919 295.999Z" fill="#FEFFFE"/>
<g filter="url(#filter1_d)">
<rect x="419" y="505" width="162" height="55" rx="12" fill="#30DDDE"/>
</g>
<path d="M458.371 526.009C458.047 525.685 457.522 525.684 457.199 526.008L447.252 535.928L443.663 532.031C443.353 531.694 442.828 531.672 442.491 531.982C442.154 532.292 442.133 532.817 442.443 533.154L446.616 537.686C446.769 537.852 446.983 537.949 447.208 537.954C447.215 537.954 447.22 537.954 447.226 537.954C447.445 537.954 447.656 537.867 447.812 537.712L458.369 527.182C458.694 526.858 458.694 526.333 458.371 526.009Z" fill="white"/>
<path d="M458.171 533.171C457.713 533.171 457.342 533.542 457.342 534C457.342 539.151 453.151 543.342 448 543.342C442.849 543.342 438.658 539.151 438.658 534C438.658 528.849 442.849 524.658 448 524.658C448.458 524.658 448.829 524.287 448.829 523.829C448.829 523.371 448.458 523 448 523C441.935 523 437 527.935 437 534C437 540.065 441.935 545 448 545C454.065 545 459 540.065 459 534C459 533.542 458.629 533.171 458.171 533.171Z" fill="white"/>
<path d="M469.956 522.25V530H471.342V527.459H473.023C474.591 527.459 475.687 526.407 475.687 524.871C475.687 523.308 474.629 522.25 473.082 522.25H469.956ZM471.342 523.41H472.717C473.716 523.41 474.28 523.92 474.28 524.871C474.28 525.794 473.7 526.31 472.711 526.31H471.342V523.41ZM476.825 530H478.157V526.605C478.157 525.784 478.759 525.247 479.624 525.247C479.849 525.247 480.204 525.284 480.306 525.322V524.086C480.182 524.049 479.946 524.027 479.753 524.027C478.995 524.027 478.362 524.457 478.2 525.037H478.109V524.124H476.825V530ZM483.534 530.118C485.29 530.118 486.359 528.969 486.359 527.062C486.359 525.161 485.285 524.006 483.534 524.006C481.788 524.006 480.708 525.166 480.708 527.062C480.708 528.969 481.772 530.118 483.534 530.118ZM483.534 529.001C482.604 529.001 482.073 528.292 482.073 527.062C482.073 525.837 482.604 525.123 483.534 525.123C484.457 525.123 484.989 525.837 484.989 527.062C484.989 528.292 484.463 529.001 483.534 529.001ZM490.714 530.097C492.197 530.097 493.126 528.931 493.126 527.062C493.126 525.182 492.202 524.027 490.714 524.027C489.909 524.027 489.232 524.419 488.926 525.059H488.835V521.852H487.502V530H488.786V529.071H488.877C489.21 529.715 489.893 530.097 490.714 530.097ZM490.295 525.161C491.203 525.161 491.756 525.88 491.756 527.062C491.756 528.244 491.209 528.963 490.295 528.963C489.382 528.963 488.813 528.233 488.813 527.062C488.813 525.891 489.388 525.161 490.295 525.161ZM494.264 530H495.596V521.852H494.264V530ZM499.496 525.064C500.296 525.064 500.822 525.623 500.849 526.493H498.083C498.142 525.633 498.701 525.064 499.496 525.064ZM500.86 528.383C500.666 528.818 500.21 529.06 499.549 529.06C498.674 529.06 498.11 528.448 498.078 527.47V527.4H502.181V526.971C502.181 525.118 501.177 524.006 499.501 524.006C497.798 524.006 496.74 525.193 496.74 527.083C496.74 528.974 497.782 530.118 499.512 530.118C500.897 530.118 501.88 529.452 502.122 528.383H500.86ZM503.266 530H504.598V526.428C504.598 525.708 505.087 525.166 505.747 525.166C506.402 525.166 506.811 525.558 506.811 526.203V530H508.105V526.342C508.105 525.671 508.562 525.166 509.254 525.166C509.969 525.166 510.329 525.542 510.329 526.299V530H511.655V525.961C511.655 524.742 510.946 524.006 509.77 524.006C508.954 524.006 508.277 524.43 507.987 525.075H507.896C507.649 524.414 507.085 524.006 506.274 524.006C505.495 524.006 504.893 524.403 504.641 525.075H504.549V524.124H503.266V530ZM515.715 530H517.047V526.589C517.047 525.746 517.536 525.177 518.412 525.177C519.185 525.177 519.593 525.633 519.593 526.525V530H520.925V526.208C520.925 524.812 520.163 524.017 518.906 524.017C518.03 524.017 517.402 524.414 517.123 525.075H517.026V521.852H515.715V530ZM524.26 529.049C523.67 529.049 523.245 528.754 523.245 528.26C523.245 527.782 523.594 527.513 524.341 527.465L525.668 527.379V527.846C525.668 528.528 525.066 529.049 524.26 529.049ZM523.868 530.097C524.636 530.097 525.281 529.764 525.609 529.194H525.7V530H526.984V525.988C526.984 524.742 526.135 524.006 524.626 524.006C523.229 524.006 522.257 524.667 522.15 525.703H523.406C523.53 525.306 523.949 525.091 524.561 525.091C525.281 525.091 525.668 525.413 525.668 525.988V526.482L524.153 526.573C522.724 526.659 521.924 527.271 521.924 528.335C521.924 529.409 522.735 530.097 523.868 530.097ZM528.202 525.805C528.202 526.691 528.734 527.212 529.862 527.47L530.904 527.712C531.463 527.835 531.715 528.045 531.715 528.378C531.715 528.813 531.248 529.108 530.576 529.108C529.91 529.108 529.497 528.851 529.368 528.416H528.052C528.154 529.484 529.078 530.118 530.544 530.118C532.011 530.118 533.047 529.366 533.047 528.238C533.047 527.374 532.526 526.89 531.404 526.638L530.367 526.401C529.776 526.267 529.497 526.063 529.497 525.73C529.497 525.306 529.953 525.016 530.56 525.016C531.183 525.016 531.575 525.279 531.672 525.692H532.924C532.827 524.624 531.951 524.006 530.555 524.006C529.169 524.006 528.202 524.742 528.202 525.805ZM540.088 530.097C541.57 530.097 542.5 528.931 542.5 527.062C542.5 525.182 541.576 524.027 540.088 524.027C539.282 524.027 538.606 524.419 538.299 525.059H538.208V521.852H536.876V530H538.16V529.071H538.251C538.584 529.715 539.266 530.097 540.088 530.097ZM539.669 525.161C540.577 525.161 541.13 525.88 541.13 527.062C541.13 528.244 540.582 528.963 539.669 528.963C538.756 528.963 538.187 528.233 538.187 527.062C538.187 525.891 538.761 525.161 539.669 525.161ZM546.05 525.064C546.85 525.064 547.376 525.623 547.403 526.493H544.637C544.696 525.633 545.255 525.064 546.05 525.064ZM547.414 528.383C547.221 528.818 546.764 529.06 546.103 529.06C545.228 529.06 544.664 528.448 544.632 527.47V527.4H548.735V526.971C548.735 525.118 547.731 524.006 546.055 524.006C544.352 524.006 543.294 525.193 543.294 527.083C543.294 528.974 544.336 530.118 546.066 530.118C547.452 530.118 548.434 529.452 548.676 528.383H547.414ZM552.285 525.064C553.085 525.064 553.612 525.623 553.639 526.493H550.873C550.932 525.633 551.49 525.064 552.285 525.064ZM553.649 528.383C553.456 528.818 553 529.06 552.339 529.06C551.463 529.06 550.899 528.448 550.867 527.47V527.4H554.971V526.971C554.971 525.118 553.966 524.006 552.291 524.006C550.588 524.006 549.53 525.193 549.53 527.083C549.53 528.974 550.572 530.118 552.301 530.118C553.687 530.118 554.67 529.452 554.912 528.383H553.649ZM556.055 530H557.387V526.579C557.387 525.714 557.887 525.166 558.682 525.166C559.493 525.166 559.869 525.617 559.869 526.514V530H561.201V526.197C561.201 524.795 560.487 524.006 559.176 524.006C558.3 524.006 557.71 524.409 557.43 525.064H557.339V524.124H556.055V530ZM469.816 546H471.148V542.605C471.148 541.784 471.75 541.247 472.615 541.247C472.84 541.247 473.195 541.284 473.297 541.322V540.086C473.173 540.049 472.937 540.027 472.744 540.027C471.986 540.027 471.353 540.457 471.191 541.037H471.1V540.124H469.816V546ZM476.455 541.064C477.255 541.064 477.781 541.623 477.808 542.493H475.042C475.101 541.633 475.66 541.064 476.455 541.064ZM477.819 544.383C477.626 544.818 477.169 545.06 476.508 545.06C475.633 545.06 475.069 544.448 475.037 543.47V543.4H479.14V542.971C479.14 541.118 478.136 540.006 476.46 540.006C474.758 540.006 473.699 541.193 473.699 543.083C473.699 544.974 474.741 546.118 476.471 546.118C477.857 546.118 478.84 545.452 479.081 544.383H477.819ZM480.091 541.805C480.091 542.691 480.622 543.212 481.75 543.47L482.792 543.712C483.351 543.835 483.603 544.045 483.603 544.378C483.603 544.813 483.136 545.108 482.465 545.108C481.799 545.108 481.385 544.851 481.256 544.416H479.94C480.042 545.484 480.966 546.118 482.432 546.118C483.899 546.118 484.935 545.366 484.935 544.238C484.935 543.374 484.414 542.89 483.292 542.638L482.255 542.401C481.664 542.267 481.385 542.063 481.385 541.73C481.385 541.306 481.842 541.016 482.449 541.016C483.072 541.016 483.464 541.279 483.56 541.692H484.812C484.715 540.624 483.84 540.006 482.443 540.006C481.057 540.006 480.091 540.742 480.091 541.805ZM488.566 546.118C490.322 546.118 491.391 544.969 491.391 543.062C491.391 541.161 490.317 540.006 488.566 540.006C486.82 540.006 485.741 541.166 485.741 543.062C485.741 544.969 486.804 546.118 488.566 546.118ZM488.566 545.001C487.637 545.001 487.105 544.292 487.105 543.062C487.105 541.837 487.637 541.123 488.566 541.123C489.49 541.123 490.022 541.837 490.022 543.062C490.022 544.292 489.495 545.001 488.566 545.001ZM492.535 546H493.867V537.852H492.535V546ZM500.425 540.124H499.017L497.669 544.668H497.578L496.219 540.124H494.79L496.88 546H498.346L500.425 540.124ZM503.529 541.064C504.329 541.064 504.856 541.623 504.882 542.493H502.116C502.175 541.633 502.734 541.064 503.529 541.064ZM504.893 544.383C504.7 544.818 504.243 545.06 503.583 545.06C502.707 545.06 502.143 544.448 502.111 543.47V543.4H506.214V542.971C506.214 541.118 505.21 540.006 503.534 540.006C501.832 540.006 500.774 541.193 500.774 543.083C500.774 544.974 501.816 546.118 503.545 546.118C504.931 546.118 505.914 545.452 506.155 544.383H504.893ZM509.426 546.097C510.242 546.097 510.919 545.715 511.252 545.071H511.344V546H512.633V537.852H511.301V541.059H511.209C510.898 540.414 510.232 540.027 509.426 540.027C507.944 540.027 507.009 541.198 507.009 543.057C507.009 544.926 507.938 546.097 509.426 546.097ZM509.84 541.161C510.753 541.161 511.317 541.891 511.317 543.062C511.317 544.244 510.758 544.963 509.84 544.963C508.927 544.963 508.373 544.249 508.373 543.062C508.373 541.88 508.932 541.161 509.84 541.161Z" fill="white"/>
<defs>
<filter id="filter0_d" x="19.3623" y="159.899" width="636.46" height="458.424" filterUnits="userSpaceOnUse" color-interpolation-filters="sRGB">
<feFlood flood-opacity="0" result="BackgroundImageFix"/>
<feColorMatrix in="SourceAlpha" type="matrix" values="0 0 0 0 0 0 0 0 0 0 0 0 0 0 0 0 0 0 127 0"/>
<feOffset dx="3.07427" dy="4.6114"/>
<feGaussianBlur stdDeviation="10.856"/>
<feColorMatrix type="matrix" values="0 0 0 0 0.0423539 0 0 0 0 0.02125 0 0 0 0 0.141667 0 0 0 0.04 0"/>
<feBlend mode="normal" in2="BackgroundImageFix" result="effect1_dropShadow"/>
<feBlend mode="normal" in="SourceGraphic" in2="effect1_dropShadow" result="shape"/>
</filter>
<filter id="filter1_d" x="398.101" y="485.824" width="210.693" height="103.693" filterUnits="userSpaceOnUse" color-interpolation-filters="sRGB">
<feFlood flood-opacity="0" result="BackgroundImageFix"/>
<feColorMatrix in="SourceAlpha" type="matrix" values="0 0 0 0 0 0 0 0 0 0 0 0 0 0 0 0 0 0 127 0"/>
<feOffset dx="3.44732" dy="5.17098"/>
<feGaussianBlur stdDeviation="12.1734"/>
<feColorMatrix type="matrix" values="0 0 0 0 0.0423539 0 0 0 0 0.02125 0 0 0 0 0.141667 0 0 0 0.04 0"/>
<feBlend mode="normal" in2="BackgroundImageFix" result="effect1_dropShadow"/>
<feBlend mode="normal" in="SourceGraphic" in2="effect1_dropShadow" result="shape"/>
</filter>
</defs>
</svg>
