<svg width="1440" height="812" viewBox="0 0 1440 812" fill="none" xmlns="http://www.w3.org/2000/svg">
<mask id="mask0" mask-type="alpha" maskUnits="userSpaceOnUse" x="0" y="0" width="1440" height="812">
<rect width="1440" height="812" fill="#180768"/>
</mask>
<g mask="url(#mask0)">
<rect width="1440" height="812" fill="#180768"/>
<path opacity="0.05" d="M-249.282 119.535C-291.882 68.7657 -285.26 -6.92492 -234.491 -49.5251L629.824 -774.771C681.329 -817.989 758.288 -810.462 800.443 -758.083L1407.41 -3.91221C1455.64 56.0139 1435.82 145.204 1366.75 179.07L341.549 681.757C291.999 706.053 232.267 693.422 196.794 651.147L-249.282 119.535Z" fill="white"/>
<g filter="url(#filter0_d)">
<rect x="1074" y="821.74" width="277" height="86.0546" rx="20" transform="rotate(-20 1074 821.74)" fill="#FDFDFE"/>
</g>
<path d="M1335.36 774.405L1332.77 780.365C1332.71 780.506 1332.56 780.563 1332.42 780.495C1332.28 780.426 1332.22 780.259 1332.28 780.119L1334.75 774.413L1329.19 771.631C1329.06 771.563 1328.99 771.395 1329.06 771.255C1329.09 771.186 1329.14 771.135 1329.2 771.112C1329.27 771.089 1329.34 771.091 1329.41 771.126L1335.22 774.032C1335.36 774.098 1335.42 774.268 1335.36 774.405Z" fill="#CECED1" stroke="#CECED1" stroke-width="2.00173"/>
<rect x="1162.86" y="842.025" width="102.88" height="10" rx="5" transform="rotate(-20 1162.86 842.025)" fill="#EDEFF8"/>
<rect x="1155.34" y="821.351" width="51.68" height="7.88" rx="3.94" transform="rotate(-20 1155.34 821.351)" fill="#B8C1E3"/>
<rect x="1355" y="718.466" width="92" height="83" rx="20" transform="rotate(-20 1355 718.466)" fill="#1C62F5"/>
<mask id="mask1" mask-type="alpha" maskUnits="userSpaceOnUse" x="1355" y="687" width="115" height="110">
<path d="M1448.29 705.794C1444.51 695.414 1433.04 690.063 1422.66 693.84L1373.79 711.625C1363.41 715.403 1358.06 726.88 1361.84 737.26L1376.55 777.666C1380.33 788.046 1391.8 793.398 1402.18 789.62L1451.05 771.835C1461.43 768.057 1466.78 756.58 1463 746.201L1448.29 705.794Z" fill="#FFEA8A"/>
</mask>
<g mask="url(#mask1)">
<circle cx="1380.86" cy="715.44" r="32" transform="rotate(160 1380.86 715.44)" stroke="white" stroke-opacity="0.25" stroke-width="26.8306"/>
<circle cx="1624.53" cy="802.672" r="197.329" transform="rotate(40 1624.53 802.672)" stroke="white" stroke-opacity="0.3" stroke-width="1.34153"/>
<circle cx="1218.44" cy="761.805" r="197.329" transform="rotate(40 1218.44 761.805)" stroke="white" stroke-opacity="0.2" stroke-width="1.34153"/>
</g>
<g filter="url(#filter1_d)">
<rect x="959" y="490.911" width="949.975" height="318.363" rx="15.3428" transform="rotate(-20 959 490.911)" fill="#FDFDFE"/>
</g>
<g clip-path="url(#clip0)">
<path opacity="0.8" d="M1079.97 598.972L1791.01 340.175" stroke="#D3D3D3" stroke-width="0.914406" stroke-linecap="square" stroke-dasharray="1.83 3.66"/>
<path opacity="0.8" d="M1067.85 565.675L1778.89 306.879" stroke="#D3D3D3" stroke-width="0.914406" stroke-linecap="square" stroke-dasharray="1.83 3.66"/>
<path opacity="0.8" d="M1092.09 632.268L1803.13 373.471" stroke="#D3D3D3" stroke-width="0.914406" stroke-linecap="square" stroke-dasharray="1.83 3.66"/>
<path opacity="0.8" d="M1104.21 665.566L1815.25 406.77" stroke="#D3D3D3" stroke-width="0.914406" stroke-linecap="square" stroke-dasharray="1.83 3.66"/>
<path opacity="0.8" d="M1118.44 697.973L1829.47 439.176" stroke="#D3D3D3" stroke-width="0.914406" stroke-linecap="square" stroke-dasharray="1.83 3.66"/>
<path d="M1214.27 685.872L1215.49 685.427C1215.17 684.539 1215.66 683.624 1216.61 683.278C1217.49 682.957 1218.28 683.347 1218.56 684.114C1218.8 684.766 1218.7 685.285 1218.01 686.803L1216.15 690.832L1216.48 691.72L1222.17 689.648L1221.78 688.557L1217.81 690L1217.8 689.971L1219 687.384C1219.95 685.354 1220.16 684.527 1219.81 683.569C1219.33 682.26 1217.85 681.617 1216.22 682.211C1214.55 682.82 1213.72 684.361 1214.27 685.872ZM1226.42 688.277C1228.42 687.548 1228.99 685.441 1228.02 682.787C1227.07 680.151 1225.27 678.916 1223.28 679.641C1221.29 680.365 1220.7 682.475 1221.66 685.111C1222.62 687.765 1224.42 689.008 1226.42 688.277ZM1226.03 687.192C1224.82 687.631 1223.7 686.648 1222.97 684.635C1222.25 682.65 1222.49 681.158 1223.67 680.725C1224.86 680.293 1226 681.277 1226.72 683.268C1227.46 685.287 1227.23 686.756 1226.03 687.192ZM1232.71 685.813L1233.97 685.354L1230.94 677.029L1229.66 677.493L1228.04 679.849L1228.48 681.072L1230.11 678.78L1230.14 678.77L1232.71 685.813ZM1239.96 683.174L1241.2 682.723L1240.6 681.067L1241.74 680.649L1241.35 679.565L1240.2 679.982L1238.17 674.398L1236.3 675.078C1235.42 678.47 1235.01 680.311 1234.78 681.909L1235.19 683.034L1239.36 681.518L1239.96 683.174ZM1235.99 681.496C1236.22 680.072 1236.59 678.448 1237.28 675.857L1237.3 675.849L1238.98 680.447L1236 681.53L1235.99 681.496Z" fill="#45465A"/>
<path d="M1282.6 661.005L1283.82 660.56C1283.5 659.672 1283.98 658.757 1284.93 658.411C1285.81 658.089 1286.61 658.479 1286.89 659.247C1287.13 659.899 1287.03 660.418 1286.34 661.936L1284.48 665.964L1284.8 666.853L1290.5 664.78L1290.1 663.69L1286.14 665.132L1286.13 665.104L1287.33 662.517C1288.27 660.487 1288.48 659.66 1288.13 658.702C1287.66 657.392 1286.18 656.749 1284.54 657.343C1282.87 657.952 1282.05 659.494 1282.6 661.005ZM1294.75 663.409C1296.75 662.681 1297.32 660.574 1296.35 657.92C1295.39 655.284 1293.59 654.049 1291.6 654.773C1289.61 655.498 1289.02 657.608 1289.98 660.244C1290.95 662.898 1292.74 664.14 1294.75 663.409ZM1294.35 662.325C1293.15 662.764 1292.03 661.781 1291.29 659.767C1290.57 657.783 1290.81 656.29 1292 655.858C1293.19 655.425 1294.32 656.41 1295.05 658.4C1295.78 660.42 1295.55 661.888 1294.35 662.325ZM1301.03 660.946L1302.29 660.486L1299.26 652.162L1297.99 652.626L1296.36 654.981L1296.81 656.204L1298.44 653.913L1298.47 653.902L1301.03 660.946ZM1307.36 658.819C1309.16 658.164 1309.99 656.524 1309.37 654.822C1308.79 653.23 1307.22 652.494 1305.63 653.073C1304.81 653.372 1304.23 653.941 1304.06 654.637L1304.03 654.647L1303.32 651.919L1307.24 650.493L1306.85 649.403L1301.88 651.208L1303.22 656.157L1304.35 655.746C1304.48 655.006 1304.96 654.473 1305.7 654.202C1306.74 653.824 1307.74 654.29 1308.12 655.317C1308.49 656.355 1308.03 657.352 1306.98 657.736C1306.05 658.075 1305.14 657.765 1304.75 656.974L1303.51 657.423C1304.12 658.85 1305.7 659.424 1307.36 658.819Z" fill="#45465A"/>
<path d="M1350.17 636.411L1351.39 635.966C1351.07 635.077 1351.55 634.163 1352.51 633.816C1353.39 633.495 1354.18 633.885 1354.46 634.652C1354.7 635.304 1354.6 635.824 1353.91 637.342L1352.05 641.37L1352.38 642.258L1358.07 640.186L1357.67 639.096L1353.71 640.538L1353.7 640.509L1354.9 637.923C1355.85 635.892 1356.06 635.065 1355.71 634.108C1355.23 632.798 1353.75 632.155 1352.12 632.749C1350.44 633.358 1349.62 634.899 1350.17 636.411ZM1362.32 638.815C1364.32 638.087 1364.89 635.979 1363.92 633.326C1362.96 630.689 1361.17 629.455 1359.18 630.179C1357.19 630.903 1356.6 633.013 1357.56 635.65C1358.52 638.303 1360.31 639.546 1362.32 638.815ZM1361.93 637.731C1360.72 638.169 1359.6 637.186 1358.87 635.173C1358.14 633.188 1358.39 631.696 1359.57 631.264C1360.76 630.831 1361.9 631.816 1362.62 633.806C1363.36 635.825 1363.13 637.294 1361.93 637.731ZM1368.61 636.352L1369.87 635.892L1366.84 627.567L1365.56 628.031L1363.94 630.387L1364.38 631.61L1366.01 629.318L1366.04 629.308L1368.61 636.352ZM1375.09 634.174C1376.85 633.534 1377.69 631.856 1377.08 630.183C1376.51 628.608 1374.94 627.861 1373.34 628.44C1372.21 628.852 1371.58 629.747 1371.53 630.624L1371.5 630.633C1370.77 628.555 1371.05 627.079 1372.37 626.599C1373.17 626.309 1373.89 626.503 1374.37 627.113L1375.67 626.641C1374.94 625.421 1373.48 624.968 1371.99 625.51C1369.91 626.268 1369.27 628.367 1370.29 631.153C1371.39 634.171 1373.39 634.792 1375.09 634.174ZM1374.68 633.09C1373.69 633.449 1372.63 632.946 1372.27 631.954C1371.91 630.967 1372.4 629.971 1373.43 629.599C1374.45 629.228 1375.44 629.688 1375.81 630.698C1376.17 631.673 1375.66 632.731 1374.68 633.09Z" fill="#45465A"/>
<path d="M1419.8 611.069L1421.02 610.624C1420.7 609.736 1421.18 608.821 1422.13 608.475C1423.01 608.154 1423.81 608.544 1424.09 609.311C1424.33 609.963 1424.23 610.482 1423.54 612L1421.68 616.029L1422 616.917L1427.7 614.845L1427.3 613.754L1423.34 615.197L1423.33 615.168L1424.53 612.581C1425.47 610.551 1425.68 609.724 1425.33 608.766C1424.86 607.457 1423.37 606.814 1421.74 607.408C1420.07 608.017 1419.25 609.558 1419.8 611.069ZM1431.95 613.474C1433.95 612.745 1434.51 610.638 1433.55 607.984C1432.59 605.348 1430.79 604.113 1428.8 604.838C1426.81 605.562 1426.22 607.672 1427.18 610.308C1428.15 612.962 1429.94 614.205 1431.95 613.474ZM1431.55 612.389C1430.35 612.828 1429.22 611.845 1428.49 609.832C1427.77 607.847 1428.01 606.355 1429.2 605.922C1430.39 605.49 1431.52 606.474 1432.25 608.465C1432.98 610.484 1432.75 611.953 1431.55 612.389ZM1438.23 611.01L1439.49 610.551L1436.46 602.226L1435.19 602.69L1433.56 605.046L1434.01 606.269L1435.64 603.977L1435.67 603.967L1438.23 611.01ZM1441.99 609.644L1443.34 609.15L1444.34 600.628L1443.93 599.509L1438.26 601.571L1438.66 602.661L1443.05 601.063L1443.06 601.092L1441.99 609.644Z" fill="#45465A"/>
<path d="M1148.19 709.923L1149.42 709.478C1149.09 708.589 1149.58 707.675 1150.53 707.329C1151.41 707.007 1152.21 707.397 1152.49 708.165C1152.72 708.816 1152.63 709.336 1151.94 710.854L1150.08 714.882L1150.4 715.771L1156.1 713.698L1155.7 712.608L1151.74 714.05L1151.72 714.021L1152.93 711.435C1153.87 709.405 1154.08 708.577 1153.73 707.62C1153.26 706.31 1151.77 705.667 1150.14 706.261C1148.47 706.87 1147.64 708.411 1148.19 709.923ZM1160.35 712.327C1162.35 711.599 1162.91 709.492 1161.95 706.838C1160.99 704.202 1159.19 702.967 1157.2 703.691C1155.21 704.416 1154.62 706.525 1155.58 709.162C1156.55 711.816 1158.34 713.058 1160.35 712.327ZM1159.95 711.243C1158.75 711.682 1157.62 710.699 1156.89 708.685C1156.17 706.701 1156.41 705.208 1157.6 704.776C1158.79 704.343 1159.92 705.328 1160.65 707.318C1161.38 709.337 1161.15 710.806 1159.95 711.243ZM1166.63 709.864L1167.89 709.404L1164.86 701.08L1163.59 701.544L1161.96 703.899L1162.41 705.122L1164.04 702.831L1164.07 702.82L1166.63 709.864ZM1170.35 704.218L1171.36 703.85C1172.47 703.445 1173.35 703.726 1173.69 704.68C1173.98 705.49 1173.51 706.314 1172.5 706.684C1171.45 707.064 1170.55 706.797 1170.19 706.007L1168.95 706.458C1169.55 707.86 1171.11 708.411 1172.89 707.763C1174.62 707.131 1175.54 705.666 1175.01 704.201C1174.58 703.036 1173.49 702.59 1172.23 702.925L1172.22 702.896C1173.16 702.311 1173.64 701.347 1173.26 700.302C1172.81 699.062 1171.43 698.513 1169.73 699.131C1168.11 699.723 1167.31 701.065 1167.73 702.557L1168.94 702.116C1168.71 701.262 1169.2 700.528 1170.12 700.192C1171.1 699.835 1171.79 700.16 1172.07 700.939C1172.35 701.718 1171.91 702.513 1170.96 702.859L1169.98 703.214L1170.35 704.218Z" fill="#45465A"/>
<path d="M1090.18 710.796C1089.52 711.034 1088.88 711.081 1088.25 710.936C1087.62 710.781 1087.04 710.438 1086.52 709.906C1086 709.374 1085.58 708.671 1085.26 707.796C1084.94 706.922 1084.81 706.113 1084.87 705.369C1084.93 704.625 1085.15 703.996 1085.53 703.481C1085.92 702.956 1086.44 702.575 1087.1 702.337C1087.74 702.102 1088.38 702.062 1089.01 702.217C1089.64 702.361 1090.22 702.7 1090.74 703.232C1091.26 703.763 1091.69 704.467 1092 705.341C1092.32 706.215 1092.45 707.024 1092.39 707.768C1092.33 708.513 1092.11 709.147 1091.72 709.672C1091.34 710.186 1090.82 710.561 1090.18 710.796ZM1089.79 709.745C1090.45 709.504 1090.88 709.04 1091.08 708.353C1091.28 707.664 1091.2 706.803 1090.82 705.771C1090.45 704.739 1089.96 704.025 1089.36 703.627C1088.77 703.227 1088.14 703.147 1087.48 703.388C1086.81 703.632 1086.37 704.099 1086.17 704.788C1085.97 705.475 1086.06 706.334 1086.44 707.366C1086.81 708.398 1087.3 709.114 1087.89 709.514C1088.49 709.912 1089.12 709.988 1089.79 709.745ZM1096.52 705.074L1095.66 706.752L1096.28 708.466L1095.15 708.878L1091.96 700.112L1093.09 699.699L1095.14 705.323L1097.42 700.961L1098.79 700.462L1097.1 704.009L1101.33 706.629L1099.94 707.137L1096.52 705.074Z" fill="#45465A"/>
<rect x="1097.79" y="543.1" width="9.14406" height="157.735" rx="4.57203" transform="rotate(-20 1097.79 543.1)" fill="#FDFDFD"/>
<rect x="1163.31" y="519.253" width="9.14406" height="157.735" rx="4.57203" transform="rotate(-20 1163.31 519.253)" fill="#FDFDFD"/>
<rect x="1230.98" y="494.625" width="9.14406" height="157.735" rx="4.57203" transform="rotate(-20 1230.98 494.625)" fill="#FDFDFD"/>
<rect x="1298.64" y="469.996" width="9.14406" height="157.735" rx="4.57203" transform="rotate(-20 1298.64 469.996)" fill="#FDFDFD"/>
<rect x="1367.39" y="444.977" width="9.14406" height="157.735" rx="4.57203" transform="rotate(-20 1367.39 444.977)" fill="#FDFDFD"/>
<rect x="1435.05" y="420.348" width="9.14406" height="157.735" rx="4.57203" transform="rotate(-20 1435.05 420.348)" fill="#FDFDFD"/>
<rect x="1106" y="565.657" width="9.14406" height="133.732" rx="4.57203" transform="rotate(-20 1106 565.657)" fill="#B8C1E3" fill-opacity="0.45"/>
<rect x="1182.08" y="570.809" width="9.14406" height="102.871" rx="4.57203" transform="rotate(-20 1182.08 570.809)" fill="#B8C1E3" fill-opacity="0.45"/>
<rect x="1242.71" y="526.849" width="9.14406" height="123.445" rx="4.57203" transform="rotate(-20 1242.71 526.849)" fill="#B8C1E3" fill-opacity="0.45"/>
<rect x="1327.57" y="549.479" width="9.14406" height="73.1525" rx="4.57203" transform="rotate(-20 1327.57 549.479)" fill="#B8C1E3" fill-opacity="0.45"/>
<rect x="1374.42" y="464.31" width="9.14406" height="137.161" rx="4.57203" transform="rotate(-20 1374.42 464.31)" fill="#B8C1E3" fill-opacity="0.45"/>
<rect x="1120.86" y="606.471" width="9.14406" height="90.2976" rx="4.57203" transform="rotate(-20 1120.86 606.471)" fill="#1C62F5"/>
<rect x="1193.41" y="601.958" width="9.14406" height="69.7235" rx="4.57203" transform="rotate(-20 1193.41 601.958)" fill="#1C62F5"/>
<rect x="1256.39" y="564.44" width="9.14406" height="83.4396" rx="4.57203" transform="rotate(-20 1256.39 564.44)" fill="#1C62F5"/>
<rect x="1335.78" y="572.034" width="9.14406" height="49.1493" rx="4.57203" transform="rotate(-20 1335.78 572.034)" fill="#1C62F5"/>
<rect x="1389.67" y="506.2" width="9.14406" height="92.5837" rx="4.57203" transform="rotate(-20 1389.67 506.2)" fill="#1C62F5"/>
<path d="M1069.82 671.023L1072.83 679.294L1071.66 679.719L1069.03 672.477L1067.16 673.156L1066.79 672.128L1069.82 671.023ZM1078.06 677.5C1077.4 677.738 1076.76 677.784 1076.13 677.64C1075.5 677.485 1074.92 677.141 1074.4 676.609C1073.88 676.077 1073.46 675.374 1073.14 674.5C1072.82 673.626 1072.69 672.816 1072.75 672.072C1072.81 671.328 1073.03 670.699 1073.41 670.185C1073.8 669.66 1074.32 669.278 1074.98 669.04C1075.62 668.805 1076.26 668.765 1076.89 668.921C1077.52 669.065 1078.1 669.403 1078.62 669.935C1079.14 670.467 1079.57 671.17 1079.88 672.045C1080.2 672.919 1080.33 673.728 1080.27 674.472C1080.21 675.216 1079.99 675.851 1079.6 676.376C1079.22 676.89 1078.7 677.265 1078.06 677.5ZM1077.67 676.448C1078.33 676.207 1078.76 675.744 1078.96 675.057C1079.16 674.367 1079.08 673.506 1078.7 672.475C1078.33 671.443 1077.84 670.728 1077.24 670.331C1076.65 669.931 1076.02 669.851 1075.36 670.092C1074.69 670.336 1074.25 670.802 1074.05 671.492C1073.85 672.179 1073.94 673.038 1074.32 674.07C1074.69 675.102 1075.18 675.818 1075.77 676.218C1076.37 676.615 1077 676.692 1077.67 676.448ZM1084.4 671.778L1083.54 673.456L1084.17 675.169L1083.03 675.582L1079.84 666.815L1080.97 666.403L1083.02 672.026L1085.3 667.665L1086.67 667.166L1084.98 670.712L1089.21 673.333L1087.82 673.84L1084.4 671.778Z" fill="#45465A"/>
<path d="M1061.6 645.726L1061.98 646.754L1056.04 648.917L1055.74 648.113L1057.93 643.639C1058.19 643.096 1058.35 642.657 1058.38 642.321C1058.42 641.978 1058.39 641.661 1058.28 641.37C1058.12 640.937 1057.85 640.658 1057.45 640.533C1057.06 640.398 1056.59 640.434 1056.02 640.64C1055.11 640.973 1054.51 641.528 1054.23 642.308L1053.17 641.903C1053.35 641.392 1053.66 640.931 1054.1 640.521C1054.55 640.109 1055.1 639.785 1055.74 639.55C1056.61 639.234 1057.38 639.192 1058.04 639.423C1058.7 639.647 1059.16 640.113 1059.42 640.822C1059.58 641.263 1059.64 641.715 1059.59 642.177C1059.54 642.64 1059.35 643.219 1059.01 643.915L1057.36 647.269L1061.6 645.726ZM1066.33 645.277C1065.67 645.515 1065.03 645.562 1064.4 645.417C1063.77 645.262 1063.2 644.919 1062.67 644.387C1062.15 643.855 1061.73 643.152 1061.41 642.277C1061.09 641.403 1060.96 640.594 1061.02 639.85C1061.08 639.106 1061.3 638.477 1061.69 637.962C1062.07 637.437 1062.6 637.056 1063.25 636.818C1063.9 636.583 1064.53 636.543 1065.16 636.698C1065.79 636.843 1066.37 637.181 1066.89 637.713C1067.42 638.245 1067.84 638.948 1068.16 639.822C1068.47 640.696 1068.6 641.505 1068.54 642.25C1068.49 642.994 1068.26 643.628 1067.87 644.153C1067.49 644.667 1066.97 645.042 1066.33 645.277ZM1065.95 644.226C1066.61 643.985 1067.04 643.521 1067.23 642.834C1067.44 642.145 1067.35 641.284 1066.97 640.252C1066.6 639.22 1066.11 638.506 1065.51 638.108C1064.92 637.708 1064.29 637.629 1063.63 637.869C1062.96 638.113 1062.53 638.58 1062.32 639.269C1062.13 639.956 1062.22 640.816 1062.59 641.847C1062.97 642.879 1063.45 643.595 1064.04 643.995C1064.64 644.393 1065.28 644.469 1065.95 644.226ZM1072.68 639.555L1071.81 641.233L1072.44 642.947L1071.3 643.359L1068.11 634.593L1069.25 634.18L1071.29 639.804L1073.57 635.442L1074.94 634.943L1073.25 638.49L1077.48 641.11L1076.09 641.618L1072.68 639.555Z" fill="#45465A"/>
<path d="M1045.85 610.703C1046.69 610.486 1047.4 610.513 1047.98 610.784C1048.55 611.046 1048.96 611.504 1049.2 612.158C1049.37 612.631 1049.41 613.103 1049.31 613.575C1049.21 614.039 1048.97 614.471 1048.58 614.872C1048.2 615.261 1047.67 615.58 1046.99 615.826C1046.4 616.041 1045.8 616.161 1045.19 616.185C1044.58 616.202 1044.05 616.116 1043.59 615.927L1043.79 614.796C1044.17 614.96 1044.61 615.045 1045.11 615.05C1045.61 615.047 1046.11 614.955 1046.61 614.775C1047.22 614.551 1047.65 614.248 1047.89 613.864C1048.15 613.478 1048.19 613.057 1048.02 612.6C1047.86 612.143 1047.56 611.85 1047.13 611.722C1046.7 611.593 1046.14 611.653 1045.45 611.903L1044.79 612.143L1044.49 611.316L1045.64 608.007L1041.66 609.457L1041.29 608.429L1046.74 606.442L1047.04 607.245L1045.85 610.703ZM1054.6 613.056C1053.95 613.294 1053.3 613.34 1052.67 613.196C1052.04 613.041 1051.47 612.697 1050.94 612.165C1050.42 611.633 1050 610.93 1049.68 610.056C1049.36 609.181 1049.23 608.372 1049.29 607.628C1049.35 606.884 1049.57 606.255 1049.96 605.741C1050.35 605.216 1050.87 604.834 1051.52 604.596C1052.17 604.361 1052.8 604.321 1053.43 604.476C1054.06 604.621 1054.64 604.959 1055.17 605.491C1055.69 606.023 1056.11 606.726 1056.43 607.6C1056.75 608.475 1056.88 609.284 1056.82 610.028C1056.76 610.772 1056.53 611.406 1056.14 611.932C1055.76 612.446 1055.25 612.82 1054.6 613.056ZM1054.22 612.004C1054.88 611.763 1055.31 611.299 1055.5 610.613C1055.71 609.923 1055.62 609.062 1055.25 608.03C1054.87 606.998 1054.38 606.284 1053.78 605.887C1053.19 605.487 1052.57 605.407 1051.9 605.648C1051.23 605.891 1050.8 606.358 1050.59 607.048C1050.4 607.735 1050.49 608.594 1050.86 609.626C1051.24 610.658 1051.72 611.374 1052.31 611.774C1052.91 612.171 1053.55 612.248 1054.22 612.004ZM1060.95 607.334L1060.09 609.012L1060.71 610.725L1059.58 611.138L1056.38 602.371L1057.52 601.958L1059.57 607.582L1061.84 603.22L1063.22 602.721L1061.52 606.268L1065.75 608.889L1064.36 609.396L1060.95 607.334Z" fill="#45465A"/>
<path d="M1038.01 580.195L1036.44 580.766L1037.18 582.799L1036.03 583.216L1035.29 581.184L1030.7 582.856L1030.4 582.029L1032.66 575.079L1033.93 574.614L1031.78 581.311L1034.96 580.155L1034.31 578.359L1035.42 577.955L1036.07 579.75L1037.64 579.178L1038.01 580.195ZM1042.87 580.834C1042.22 581.072 1041.58 581.118 1040.94 580.974C1040.32 580.819 1039.74 580.475 1039.22 579.943C1038.69 579.411 1038.27 578.708 1037.95 577.834C1037.64 576.959 1037.51 576.15 1037.57 575.406C1037.63 574.662 1037.85 574.033 1038.23 573.519C1038.62 572.994 1039.14 572.612 1039.79 572.374C1040.44 572.139 1041.08 572.099 1041.7 572.254C1042.34 572.399 1042.91 572.737 1043.44 573.269C1043.96 573.801 1044.38 574.504 1044.7 575.378C1045.02 576.253 1045.15 577.062 1045.09 577.806C1045.03 578.55 1044.81 579.184 1044.42 579.71C1044.03 580.224 1043.52 580.599 1042.87 580.834ZM1042.49 579.782C1043.15 579.541 1043.58 579.077 1043.78 578.391C1043.98 577.701 1043.89 576.84 1043.52 575.808C1043.14 574.776 1042.66 574.062 1042.06 573.665C1041.46 573.265 1040.84 573.185 1040.18 573.426C1039.51 573.669 1039.07 574.136 1038.87 574.826C1038.67 575.513 1038.76 576.372 1039.14 577.404C1039.51 578.436 1040 579.152 1040.59 579.552C1041.19 579.949 1041.82 580.026 1042.49 579.782ZM1049.22 575.112L1048.36 576.79L1048.98 578.503L1047.85 578.916L1044.66 570.149L1045.79 569.736L1047.84 575.36L1050.12 570.998L1051.49 570.5L1049.8 574.046L1054.03 576.667L1052.63 577.174L1049.22 575.112Z" fill="#45465A"/>
</g>
<path d="M1251.38 435.265L1247.53 424.67L1246.2 425.152L1250.06 435.746L1251.38 435.265ZM1253.92 434.341L1255.19 433.881L1253.48 429.197C1252.98 427.809 1253.48 426.668 1254.75 426.208C1256.01 425.749 1256.86 426.205 1257.38 427.63L1259.13 432.446L1260.39 431.986L1258.53 426.862C1257.84 424.982 1256.47 424.293 1254.69 424.939C1253.48 425.38 1252.9 426.175 1252.82 427.193L1252.7 427.236L1252.25 425.988L1251.04 426.426L1253.92 434.341ZM1265.68 430.218C1266.78 429.82 1267.53 428.956 1267.71 427.894L1267.82 427.851L1268.28 429.114L1269.49 428.675L1265.46 417.618L1264.2 418.077L1265.8 422.468L1265.69 422.508C1264.93 421.805 1263.8 421.623 1262.7 422.024C1260.69 422.756 1259.96 424.85 1260.87 427.331C1261.77 429.82 1263.66 430.955 1265.68 430.218ZM1263.41 423.055C1264.84 422.534 1266.15 423.353 1266.81 425.167C1267.48 426.995 1267 428.449 1265.56 428.973C1264.12 429.499 1262.85 428.706 1262.17 426.856C1261.5 425.013 1261.97 423.579 1263.41 423.055ZM1272.57 419.695C1273.83 419.238 1275 419.859 1275.54 421.25L1271.18 422.838C1270.77 421.401 1271.31 420.155 1272.57 419.695ZM1276.44 423.826C1276.36 424.644 1275.81 425.27 1274.79 425.641C1273.44 426.13 1272.21 425.457 1271.57 423.917L1271.55 423.858L1277.24 421.787L1277.07 421.303C1276.17 418.843 1274.32 417.796 1272.18 418.574C1270.01 419.365 1269.2 421.488 1270.11 423.977C1271.02 426.481 1272.97 427.567 1275.16 426.768C1276.9 426.137 1277.83 424.851 1277.7 423.367L1276.44 423.826ZM1281.96 420.779L1284.92 423.085L1286.41 422.54L1282.23 419.523L1283.5 414.639L1282.06 415.16L1281.28 418.78L1281.16 418.823L1278.21 416.563L1276.7 417.111L1280.88 420.071L1279.61 425.015L1281.05 424.494L1281.84 420.821L1281.96 420.779ZM1294.89 419.429L1296.21 418.948L1292.36 408.353L1291.04 408.831L1288.96 411.884L1289.47 413.279L1291.45 410.345L1291.57 410.302L1294.89 419.429Z" fill="#231E3E"/>
<path d="M1354.8 397.624L1350.95 387.029L1349.63 387.51L1353.48 398.105L1354.8 397.624ZM1357.34 396.699L1358.61 396.239L1356.9 391.555C1356.4 390.167 1356.9 389.026 1358.17 388.567C1359.43 388.107 1360.28 388.563 1360.8 389.988L1362.55 394.804L1363.81 394.345L1361.95 389.22C1361.26 387.34 1359.89 386.651 1358.11 387.298C1356.9 387.739 1356.32 388.533 1356.24 389.551L1356.12 389.594L1355.67 388.346L1354.46 388.784L1357.34 396.699ZM1369.11 392.576C1370.2 392.178 1370.95 391.314 1371.13 390.252L1371.25 390.209L1371.71 391.472L1372.91 391.034L1368.89 379.976L1367.62 380.436L1369.22 384.826L1369.11 384.866C1368.35 384.163 1367.23 383.981 1366.12 384.382C1364.11 385.114 1363.39 387.208 1364.29 389.69C1365.19 392.179 1367.08 393.314 1369.11 392.576ZM1366.83 385.413C1368.26 384.892 1369.58 385.711 1370.24 387.525C1370.9 389.353 1370.42 390.807 1368.99 391.331C1367.54 391.858 1366.27 391.064 1365.6 389.214C1364.93 387.371 1365.39 385.937 1366.83 385.413ZM1375.99 382.053C1377.25 381.596 1378.42 382.217 1378.96 383.609L1374.6 385.196C1374.19 383.759 1374.73 382.513 1375.99 382.053ZM1379.86 386.184C1379.78 387.002 1379.23 387.628 1378.21 387.999C1376.86 388.488 1375.63 387.815 1374.99 386.275L1374.97 386.216L1380.66 384.145L1380.49 383.661C1379.59 381.201 1377.74 380.154 1375.6 380.932C1373.43 381.723 1372.62 383.846 1373.53 386.335C1374.44 388.839 1376.39 389.925 1378.59 389.126C1380.32 388.495 1381.25 387.209 1381.12 385.725L1379.86 386.184ZM1385.38 383.137L1388.34 385.444L1389.83 384.898L1385.65 381.881L1386.92 376.997L1385.49 377.518L1384.7 381.138L1384.58 381.181L1381.63 378.921L1380.13 379.469L1384.3 382.429L1383.04 387.373L1384.47 386.852L1385.26 383.179L1385.38 383.137ZM1392.95 375.126L1394.22 374.661C1393.77 373.406 1394.31 372.269 1395.58 371.807C1396.83 371.352 1397.89 371.914 1398.3 373.037C1398.64 373.97 1398.44 374.665 1397.62 376.618L1395.45 381.799L1395.78 382.709L1402.64 380.213L1402.21 379.024L1397.18 380.851L1397.14 380.734L1398.64 377.368C1399.83 374.699 1400.04 373.625 1399.6 372.406C1398.97 370.688 1397.1 369.948 1395.25 370.622C1393.22 371.359 1392.26 373.239 1392.95 375.126Z" fill="#231E3E"/>
<path fill-rule="evenodd" clip-rule="evenodd" d="M1233.09 441.775C1235.76 440.803 1237.13 437.852 1236.16 435.182C1235.19 432.513 1232.24 431.137 1229.57 432.108C1226.9 433.08 1225.52 436.031 1226.5 438.701C1227.47 441.37 1230.42 442.747 1233.09 441.775Z" fill="#1C62F5"/>
<path fill-rule="evenodd" clip-rule="evenodd" d="M1336.51 404.133C1339.18 403.162 1340.55 400.21 1339.58 397.541C1338.61 394.871 1335.66 393.495 1332.99 394.467C1330.32 395.438 1328.94 398.39 1329.92 401.059C1330.89 403.729 1333.84 405.105 1336.51 404.133Z" fill="#B8C1E3"/>
<g filter="url(#filter2_d)">
<path d="M1419.79 71.8403L1154.79 168.29C1144.41 172.068 1139.06 183.545 1142.84 193.924L1201.67 355.551C1205.45 365.931 1216.92 371.283 1227.3 367.505L1492.3 271.055C1502.67 267.277 1508.03 255.8 1504.25 245.421L1445.42 83.7937C1441.64 73.4142 1430.17 68.0624 1419.79 71.8403Z" fill="#FDFDFE"/>
</g>
<path d="M1212.07 233.752C1211.22 234.063 1210.37 234.157 1209.55 234.035C1208.72 233.901 1208 233.575 1207.36 233.058C1206.73 232.532 1206.26 231.854 1205.96 231.024C1205.66 230.193 1205.58 229.377 1205.73 228.575C1205.88 227.765 1206.23 227.046 1206.79 226.42C1207.34 225.785 1208.04 225.312 1208.9 225.001C1209.57 224.758 1210.22 224.649 1210.86 224.676C1211.49 224.694 1212.08 224.852 1212.63 225.15L1212.12 226.208C1211.23 225.766 1210.31 225.72 1209.34 226.07C1208.71 226.301 1208.19 226.653 1207.78 227.125C1207.37 227.596 1207.11 228.138 1207 228.75C1206.9 229.35 1206.96 229.96 1207.18 230.579C1207.41 231.198 1207.75 231.708 1208.22 232.109C1208.7 232.499 1209.24 232.743 1209.86 232.842C1210.48 232.94 1211.1 232.874 1211.74 232.642C1212.69 232.296 1213.37 231.662 1213.77 230.74L1214.84 231.221C1214.61 231.803 1214.26 232.31 1213.78 232.743C1213.31 233.172 1212.74 233.509 1212.07 233.752ZM1219.39 231.059C1218.75 231.293 1218.12 231.361 1217.5 231.263C1216.89 231.164 1216.34 230.92 1215.87 230.53C1215.4 230.129 1215.05 229.611 1214.82 228.975C1214.59 228.34 1214.52 227.722 1214.63 227.122C1214.74 226.51 1215 225.972 1215.41 225.509C1215.82 225.037 1216.35 224.684 1216.99 224.45C1217.63 224.216 1218.26 224.149 1218.87 224.251C1219.48 224.341 1220.02 224.586 1220.49 224.988C1220.97 225.378 1221.32 225.89 1221.55 226.526C1221.78 227.161 1221.84 227.784 1221.73 228.396C1221.63 228.996 1221.37 229.533 1220.96 230.004C1220.56 230.473 1220.04 230.825 1219.39 231.059ZM1219.02 230.033C1219.44 229.881 1219.77 229.653 1220.03 229.347C1220.29 229.03 1220.46 228.666 1220.52 228.256C1220.58 227.838 1220.53 227.405 1220.36 226.957C1220.2 226.509 1219.96 226.148 1219.65 225.874C1219.34 225.592 1218.98 225.418 1218.58 225.352C1218.18 225.284 1217.78 225.325 1217.36 225.476C1216.95 225.627 1216.61 225.857 1216.34 226.166C1216.08 226.472 1215.92 226.836 1215.85 227.257C1215.79 227.667 1215.84 228.096 1216 228.544C1216.17 228.992 1216.4 229.357 1216.72 229.639C1217.04 229.91 1217.4 230.084 1217.79 230.161C1218.2 230.226 1218.61 230.184 1219.02 230.033ZM1230.07 219.689C1230.88 219.393 1231.61 219.395 1232.26 219.695C1232.91 219.992 1233.41 220.605 1233.74 221.534L1235.1 225.26L1233.93 225.687L1232.62 222.095C1232.39 221.468 1232.07 221.049 1231.66 220.838C1231.26 220.624 1230.79 220.615 1230.26 220.811C1229.66 221.027 1229.26 221.386 1229.04 221.888C1228.83 222.382 1228.84 222.975 1229.1 223.668L1230.31 227.003L1229.14 227.43L1227.83 223.838C1227.6 223.211 1227.28 222.792 1226.87 222.581C1226.47 222.367 1226.01 222.358 1225.47 222.554C1224.87 222.77 1224.47 223.129 1224.26 223.631C1224.04 224.125 1224.06 224.718 1224.31 225.411L1225.52 228.746L1224.35 229.172L1221.99 222.698L1223.12 222.289L1223.47 223.254C1223.58 222.834 1223.8 222.469 1224.12 222.159C1224.44 221.84 1224.84 221.592 1225.33 221.414C1225.83 221.23 1226.32 221.169 1226.78 221.23C1227.25 221.292 1227.66 221.479 1228.01 221.793C1228.12 221.33 1228.35 220.913 1228.71 220.545C1229.07 220.173 1229.52 219.888 1230.07 219.689ZM1242.98 214.991C1243.79 214.694 1244.52 214.696 1245.17 214.997C1245.82 215.294 1246.31 215.907 1246.65 216.836L1248.01 220.562L1246.83 220.988L1245.53 217.397C1245.3 216.77 1244.98 216.351 1244.57 216.14C1244.17 215.926 1243.7 215.917 1243.16 216.113C1242.57 216.329 1242.17 216.688 1241.95 217.19C1241.73 217.684 1241.75 218.277 1242 218.97L1243.22 222.305L1242.05 222.731L1240.74 219.14C1240.51 218.513 1240.19 218.094 1239.78 217.883C1239.38 217.669 1238.91 217.66 1238.38 217.856C1237.78 218.072 1237.38 218.431 1237.16 218.933C1236.95 219.427 1236.96 220.02 1237.22 220.713L1238.43 224.047L1237.26 224.474L1234.9 218L1236.02 217.591L1236.38 218.556C1236.49 218.136 1236.71 217.771 1237.03 217.461C1237.35 217.142 1237.75 216.894 1238.24 216.716C1238.74 216.532 1239.23 216.471 1239.69 216.532C1240.16 216.594 1240.57 216.781 1240.92 217.095C1241.03 216.632 1241.26 216.215 1241.61 215.847C1241.98 215.475 1242.43 215.19 1242.98 214.991ZM1253.84 211.105L1256.2 217.58L1255.09 217.984L1254.73 217.007C1254.62 217.427 1254.4 217.802 1254.08 218.131C1253.76 218.45 1253.37 218.692 1252.92 218.858C1252.05 219.172 1251.29 219.184 1250.62 218.892C1249.95 218.592 1249.44 217.978 1249.1 217.05L1247.75 213.324L1248.92 212.897L1250.23 216.489C1250.46 217.116 1250.78 217.537 1251.2 217.753C1251.62 217.961 1252.11 217.963 1252.67 217.759C1253.29 217.533 1253.71 217.168 1253.93 216.663C1254.15 216.158 1254.14 215.563 1253.89 214.879L1252.67 211.532L1253.84 211.105ZM1259.51 208.973C1260.33 208.674 1261.07 208.677 1261.73 208.983C1262.39 209.277 1262.89 209.885 1263.22 210.805L1264.58 214.531L1263.4 214.958L1262.1 211.366C1261.87 210.739 1261.55 210.321 1261.13 210.114C1260.71 209.906 1260.22 209.904 1259.66 210.108C1259.03 210.34 1258.59 210.709 1258.36 211.217C1258.13 211.717 1258.14 212.313 1258.39 213.005L1259.6 216.34L1258.43 216.767L1256.08 210.293L1257.2 209.884L1257.56 210.861C1257.67 210.441 1257.89 210.069 1258.23 209.745C1258.57 209.417 1259 209.16 1259.51 208.973ZM1264.39 207.266L1265.56 206.839L1267.92 213.314L1266.75 213.741L1264.39 207.266ZM1264.52 205.807C1264.3 205.89 1264.08 205.886 1263.87 205.796C1263.67 205.703 1263.53 205.55 1263.45 205.338C1263.38 205.127 1263.38 204.921 1263.48 204.721C1263.58 204.51 1263.74 204.363 1263.97 204.28C1264.2 204.197 1264.41 204.202 1264.61 204.295C1264.81 204.377 1264.96 204.524 1265.03 204.736C1265.11 204.956 1265.1 205.171 1265.01 205.382C1264.91 205.582 1264.75 205.724 1264.52 205.807ZM1273.66 210.795C1273.54 211.004 1273.37 211.195 1273.15 211.369C1272.92 211.534 1272.68 211.665 1272.41 211.763C1271.76 212 1271.19 212.009 1270.7 211.789C1270.22 211.569 1269.86 211.134 1269.62 210.482L1268.32 206.927L1267.23 207.327L1266.87 206.362L1267.97 205.962L1267.46 204.545L1268.63 204.118L1269.15 205.535L1271 204.86L1271.35 205.825L1269.5 206.5L1270.77 210.006C1270.9 210.357 1271.08 210.594 1271.32 210.719C1271.57 210.841 1271.86 210.843 1272.18 210.725C1272.54 210.594 1272.81 210.381 1272.99 210.086L1273.66 210.795ZM1278.47 202.142L1277.92 210.406C1277.89 211.167 1277.73 211.749 1277.45 212.155C1277.18 212.557 1276.79 212.853 1276.27 213.042C1275.95 213.158 1275.62 213.218 1275.28 213.221C1274.95 213.23 1274.66 213.173 1274.39 213.048L1274.57 211.987C1275.02 212.183 1275.46 212.201 1275.9 212.041C1276.19 211.937 1276.4 211.773 1276.53 211.551C1276.67 211.333 1276.75 211.013 1276.77 210.59L1276.82 210.062L1271.61 204.64L1272.83 204.196L1276.97 208.553L1277.32 202.56L1278.47 202.142Z" fill="#45465A"/>
<path d="M1293.19 198.376C1293.98 198.225 1294.66 198.297 1295.22 198.592C1295.77 198.878 1296.17 199.343 1296.4 199.986C1296.58 200.483 1296.62 200.991 1296.51 201.509C1296.4 202.019 1296.13 202.498 1295.68 202.946C1295.24 203.392 1294.64 203.755 1293.87 204.037C1293.26 204.256 1292.64 204.395 1292 204.454C1291.36 204.501 1290.78 204.453 1290.27 204.308L1290.49 202.513C1290.9 202.638 1291.35 202.693 1291.82 202.678C1292.3 202.651 1292.76 202.556 1293.21 202.393C1293.71 202.212 1294.07 201.976 1294.28 201.685C1294.5 201.386 1294.54 201.061 1294.41 200.711C1294.16 200.011 1293.5 199.855 1292.43 200.243L1291.52 200.572L1291.05 199.265L1292.08 196.633L1288.44 197.958L1287.87 196.37L1293.85 194.192L1294.32 195.474L1293.19 198.376ZM1299.14 195.906C1300.34 195.467 1301.32 195.384 1302.06 195.657C1302.82 195.927 1303.34 196.466 1303.63 197.272C1303.82 197.793 1303.87 198.317 1303.76 198.843C1303.66 199.362 1303.38 199.849 1302.94 200.305C1302.5 200.75 1301.89 201.115 1301.11 201.4C1300.51 201.619 1299.88 201.758 1299.24 201.817C1298.6 201.864 1298.03 201.816 1297.51 201.671L1297.74 199.871C1298.16 199.997 1298.6 200.052 1299.08 200.037C1299.55 200.013 1300.01 199.919 1300.46 199.756C1300.95 199.575 1301.31 199.335 1301.52 199.036C1301.74 198.737 1301.78 198.412 1301.65 198.062C1301.52 197.696 1301.27 197.474 1300.9 197.396C1300.54 197.315 1299.99 197.408 1299.26 197.675L1297.07 198.471L1295.76 193.498L1300.97 191.599L1301.55 193.187L1297.98 194.486L1298.44 196.159L1299.14 195.906ZM1305.84 195.057C1305.21 195.285 1304.62 195.26 1304.07 194.982C1303.52 194.692 1303.12 194.189 1302.86 193.473C1302.6 192.756 1302.59 192.115 1302.82 191.549C1303.06 190.972 1303.5 190.57 1304.13 190.341C1304.75 190.113 1305.34 190.144 1305.89 190.433C1306.43 190.714 1306.84 191.213 1307.1 191.93C1307.36 192.646 1307.37 193.292 1307.14 193.866C1306.9 194.431 1306.47 194.828 1305.84 195.057ZM1309.26 188.585L1310.71 188.056L1307.98 198.732L1306.53 199.261L1309.26 188.585ZM1305.48 194.055C1305.75 193.954 1305.93 193.762 1306 193.477C1306.08 193.19 1306.04 192.822 1305.88 192.374C1305.71 191.927 1305.51 191.618 1305.26 191.449C1305.02 191.278 1304.77 191.242 1304.49 191.343C1304.22 191.441 1304.05 191.637 1303.97 191.933C1303.89 192.22 1303.93 192.584 1304.09 193.024C1304.25 193.463 1304.46 193.772 1304.71 193.949C1304.95 194.117 1305.21 194.153 1305.48 194.055ZM1313.11 196.976C1312.7 197.124 1312.3 197.164 1311.91 197.095C1311.52 197.015 1311.17 196.829 1310.86 196.536C1310.55 196.243 1310.31 195.86 1310.14 195.388C1309.97 194.915 1309.91 194.467 1309.96 194.044C1310 193.62 1310.15 193.257 1310.4 192.954C1310.66 192.64 1310.99 192.409 1311.4 192.261C1312.02 192.032 1312.61 192.063 1313.16 192.352C1313.71 192.631 1314.12 193.128 1314.38 193.845C1314.64 194.561 1314.65 195.208 1314.41 195.785C1314.17 196.351 1313.74 196.748 1313.11 196.976ZM1312.75 195.974C1313.02 195.874 1313.2 195.681 1313.27 195.397C1313.35 195.101 1313.31 194.734 1313.15 194.294C1312.99 193.854 1312.78 193.55 1312.54 193.381C1312.3 193.201 1312.04 193.162 1311.76 193.262C1311.49 193.36 1311.32 193.553 1311.24 193.84C1311.16 194.127 1311.2 194.495 1311.36 194.943C1311.52 195.391 1311.73 195.699 1311.98 195.868C1312.22 196.037 1312.48 196.072 1312.75 195.974Z" fill="#45465A"/>
<path d="M1309.5 231.263L1308.11 231.77L1308.76 233.566L1306.83 234.269L1306.18 232.473L1301.57 234.149L1301.09 232.818L1303.15 225.926L1305.22 225.171L1303.36 231.674L1305.65 230.838L1305.07 229.238L1306.94 228.558L1307.52 230.158L1308.92 229.651L1309.5 231.263ZM1310.62 223.205L1313.74 231.756L1311.76 232.477L1309.22 225.513L1307.51 226.136L1306.93 224.548L1310.62 223.205ZM1315.77 226.562C1315.14 226.79 1314.55 226.765 1314 226.487C1313.45 226.197 1313.05 225.694 1312.78 224.978C1312.52 224.261 1312.51 223.62 1312.75 223.054C1312.99 222.477 1313.43 222.075 1314.05 221.846C1314.68 221.618 1315.27 221.649 1315.81 221.938C1316.36 222.219 1316.76 222.718 1317.02 223.435C1317.28 224.151 1317.3 224.797 1317.06 225.371C1316.83 225.936 1316.4 226.333 1315.77 226.562ZM1319.18 220.09L1320.64 219.561L1317.91 230.237L1316.46 230.766L1319.18 220.09ZM1315.4 225.56C1315.68 225.459 1315.86 225.267 1315.93 224.982C1316.01 224.695 1315.97 224.327 1315.8 223.879C1315.64 223.432 1315.43 223.123 1315.19 222.954C1314.95 222.783 1314.69 222.747 1314.42 222.848C1314.15 222.946 1313.98 223.142 1313.9 223.438C1313.82 223.725 1313.86 224.089 1314.02 224.529C1314.18 224.968 1314.38 225.277 1314.63 225.454C1314.88 225.622 1315.14 225.658 1315.4 225.56ZM1323.04 228.481C1322.63 228.629 1322.23 228.669 1321.84 228.6C1321.45 228.52 1321.1 228.334 1320.79 228.041C1320.48 227.748 1320.24 227.365 1320.07 226.893C1319.9 226.42 1319.83 225.972 1319.88 225.549C1319.93 225.125 1320.08 224.762 1320.33 224.459C1320.58 224.145 1320.91 223.914 1321.32 223.766C1321.95 223.537 1322.54 223.568 1323.08 223.857C1323.64 224.136 1324.05 224.633 1324.31 225.35C1324.57 226.066 1324.58 226.713 1324.33 227.29C1324.1 227.856 1323.67 228.253 1323.04 228.481ZM1322.67 227.479C1322.95 227.379 1323.13 227.186 1323.2 226.902C1323.27 226.606 1323.23 226.239 1323.07 225.799C1322.91 225.359 1322.71 225.055 1322.46 224.886C1322.22 224.706 1321.96 224.667 1321.69 224.767C1321.42 224.865 1321.24 225.058 1321.16 225.345C1321.08 225.632 1321.13 226 1321.29 226.448C1321.45 226.896 1321.66 227.204 1321.9 227.373C1322.15 227.542 1322.41 227.577 1322.67 227.479Z" fill="#45465A"/>
<path d="M1319.07 262.041L1319.66 263.654L1313.2 266.006L1312.73 264.723L1314.89 260.408C1315.12 259.946 1315.26 259.575 1315.29 259.295C1315.32 259.006 1315.3 258.744 1315.21 258.507C1315.09 258.165 1314.87 257.948 1314.57 257.854C1314.28 257.75 1313.91 257.78 1313.46 257.943C1313.08 258.079 1312.77 258.275 1312.52 258.531C1312.27 258.78 1312.1 259.083 1312 259.442L1310.22 259.039C1310.37 258.42 1310.69 257.866 1311.18 257.376C1311.66 256.877 1312.28 256.49 1313.04 256.214C1313.67 255.983 1314.26 255.888 1314.81 255.927C1315.37 255.956 1315.84 256.114 1316.24 256.402C1316.65 256.679 1316.95 257.074 1317.13 257.587C1317.3 258.051 1317.36 258.523 1317.32 259.001C1317.27 259.479 1317.06 260.081 1316.69 260.807L1315.39 263.38L1319.07 262.041ZM1327.53 258.754L1326.14 259.261L1326.79 261.057L1324.86 261.76L1324.21 259.964L1319.6 261.64L1319.12 260.308L1321.18 253.417L1323.25 252.661L1321.39 259.165L1323.68 258.329L1323.1 256.729L1324.97 256.048L1325.55 257.649L1326.95 257.142L1327.53 258.754ZM1328.96 255.815C1328.33 256.044 1327.74 256.019 1327.19 255.74C1326.64 255.451 1326.23 254.948 1325.97 254.231C1325.71 253.515 1325.7 252.874 1325.94 252.308C1326.18 251.731 1326.61 251.328 1327.24 251.1C1327.87 250.872 1328.45 250.902 1329 251.192C1329.55 251.473 1329.95 251.972 1330.21 252.689C1330.47 253.405 1330.49 254.051 1330.25 254.624C1330.01 255.19 1329.58 255.587 1328.96 255.815ZM1332.37 249.344L1333.82 248.815L1331.1 259.491L1329.64 260.02L1332.37 249.344ZM1328.59 254.814C1328.87 254.713 1329.04 254.52 1329.11 254.236C1329.19 253.949 1329.15 253.581 1328.99 253.133C1328.83 252.685 1328.62 252.377 1328.38 252.208C1328.14 252.036 1327.88 252.001 1327.6 252.102C1327.34 252.2 1327.16 252.396 1327.09 252.692C1327.01 252.979 1327.05 253.343 1327.21 253.782C1327.37 254.222 1327.57 254.53 1327.82 254.707C1328.07 254.876 1328.32 254.912 1328.59 254.814ZM1336.23 257.735C1335.82 257.883 1335.42 257.923 1335.02 257.854C1334.64 257.774 1334.29 257.588 1333.98 257.294C1333.67 257.001 1333.43 256.619 1333.25 256.146C1333.08 255.674 1333.02 255.226 1333.07 254.802C1333.12 254.379 1333.27 254.016 1333.52 253.713C1333.77 253.399 1334.1 253.168 1334.51 253.019C1335.14 252.791 1335.72 252.822 1336.27 253.111C1336.83 253.389 1337.23 253.887 1337.49 254.603C1337.75 255.32 1337.76 255.967 1337.52 256.544C1337.28 257.11 1336.85 257.507 1336.23 257.735ZM1335.86 256.733C1336.14 256.632 1336.31 256.44 1336.38 256.155C1336.46 255.86 1336.42 255.492 1336.26 255.052C1336.1 254.613 1335.9 254.308 1335.65 254.14C1335.41 253.96 1335.15 253.92 1334.87 254.021C1334.61 254.119 1334.43 254.311 1334.35 254.599C1334.27 254.886 1334.31 255.254 1334.48 255.702C1334.64 256.15 1334.84 256.458 1335.09 256.627C1335.34 256.795 1335.59 256.831 1335.86 256.733Z" fill="#45465A"/>
<path d="M1222.03 265.246C1221.38 265.48 1220.72 265.609 1220.05 265.633C1219.38 265.646 1218.82 265.556 1218.36 265.363L1218.47 264.245C1218.9 264.42 1219.4 264.509 1219.97 264.513C1220.55 264.505 1221.11 264.404 1221.65 264.208C1222.36 263.95 1222.84 263.639 1223.11 263.276C1223.37 262.904 1223.43 262.518 1223.28 262.119C1223.17 261.826 1222.99 261.626 1222.73 261.518C1222.48 261.398 1222.19 261.342 1221.87 261.348C1221.55 261.351 1221.12 261.385 1220.56 261.449C1219.86 261.529 1219.28 261.564 1218.83 261.554C1218.38 261.542 1217.96 261.429 1217.56 261.215C1217.16 260.99 1216.86 260.604 1216.67 260.059C1216.5 259.603 1216.47 259.148 1216.57 258.696C1216.68 258.241 1216.94 257.814 1217.35 257.416C1217.76 257.019 1218.33 256.688 1219.05 256.424C1219.56 256.24 1220.08 256.125 1220.61 256.077C1221.15 256.029 1221.64 256.064 1222.07 256.181L1222.03 257.305C1221.59 257.207 1221.14 257.176 1220.69 257.21C1220.24 257.236 1219.82 257.32 1219.43 257.462C1218.74 257.714 1218.26 258.03 1218 258.41C1217.75 258.787 1217.7 259.175 1217.85 259.574C1217.95 259.867 1218.14 260.072 1218.4 260.188C1218.66 260.296 1218.95 260.351 1219.28 260.353C1219.61 260.344 1220.04 260.307 1220.58 260.24C1221.28 260.16 1221.85 260.127 1222.3 260.139C1222.75 260.152 1223.17 260.266 1223.56 260.483C1223.96 260.697 1224.26 261.073 1224.45 261.61C1224.62 262.058 1224.64 262.514 1224.53 262.978C1224.42 263.433 1224.16 263.861 1223.74 264.262C1223.32 264.654 1222.75 264.982 1222.03 265.246ZM1231.6 258.026C1231.63 258.115 1231.67 258.237 1231.71 258.389L1226.45 260.301C1226.73 260.844 1227.15 261.214 1227.7 261.41C1228.26 261.595 1228.85 261.572 1229.49 261.341C1230.26 261.059 1230.79 260.572 1231.07 259.879L1232 260.4C1231.83 260.849 1231.56 261.243 1231.18 261.582C1230.81 261.919 1230.36 262.185 1229.82 262.38C1229.14 262.629 1228.48 262.712 1227.85 262.627C1227.22 262.535 1226.67 262.29 1226.19 261.891C1225.72 261.49 1225.37 260.972 1225.14 260.337C1224.91 259.71 1224.84 259.093 1224.94 258.488C1225.04 257.879 1225.28 257.347 1225.67 256.893C1226.06 256.427 1226.57 256.081 1227.19 255.856C1227.81 255.631 1228.41 255.573 1228.99 255.683C1229.58 255.782 1230.1 256.035 1230.55 256.442C1231.02 256.847 1231.36 257.374 1231.6 258.026ZM1227.55 256.845C1226.99 257.05 1226.58 257.393 1226.32 257.874C1226.07 258.353 1226.01 258.881 1226.15 259.458L1230.3 257.946C1230.04 257.424 1229.65 257.062 1229.14 256.859C1228.64 256.645 1228.11 256.641 1227.55 256.845ZM1237.24 259.68C1236.58 259.92 1235.94 259.992 1235.32 259.897C1234.7 259.799 1234.15 259.555 1233.68 259.165C1233.2 258.766 1232.85 258.25 1232.62 257.614C1232.39 256.979 1232.33 256.36 1232.44 255.756C1232.55 255.145 1232.81 254.607 1233.22 254.143C1233.64 253.669 1234.18 253.311 1234.84 253.071C1235.42 252.858 1235.99 252.786 1236.53 252.856C1237.08 252.923 1237.56 253.135 1237.98 253.491L1237.3 254.39C1236.98 254.155 1236.64 254.014 1236.29 253.969C1235.93 253.924 1235.57 253.968 1235.2 254.102C1234.78 254.256 1234.43 254.489 1234.15 254.801C1233.89 255.109 1233.72 255.475 1233.65 255.896C1233.59 256.306 1233.64 256.735 1233.8 257.183C1233.97 257.639 1234.21 258.008 1234.52 258.29C1234.84 258.561 1235.21 258.729 1235.61 258.795C1236.02 258.858 1236.43 258.812 1236.86 258.658C1237.22 258.525 1237.53 258.326 1237.77 258.062C1238.02 257.797 1238.19 257.473 1238.28 257.09L1239.38 257.327C1239.29 257.867 1239.05 258.343 1238.68 258.757C1238.31 259.159 1237.83 259.467 1237.24 259.68ZM1245.05 249.423L1247.41 255.897L1246.3 256.302L1245.94 255.325C1245.83 255.744 1245.61 256.119 1245.29 256.449C1244.97 256.767 1244.58 257.009 1244.12 257.175C1243.26 257.49 1242.5 257.501 1241.83 257.209C1241.15 256.91 1240.65 256.296 1240.31 255.367L1238.96 251.641L1240.13 251.215L1241.44 254.806C1241.66 255.433 1241.99 255.855 1242.41 256.071C1242.83 256.279 1243.31 256.281 1243.88 256.076C1244.5 255.851 1244.92 255.486 1245.14 254.98C1245.36 254.475 1245.35 253.881 1245.1 253.197L1243.88 249.85L1245.05 249.423ZM1248.8 249.288C1248.87 248.84 1249.07 248.445 1249.4 248.104C1249.72 247.763 1250.17 247.489 1250.74 247.282L1251.16 248.418C1251.09 248.434 1251 248.462 1250.88 248.504C1250.25 248.735 1249.82 249.108 1249.59 249.625C1249.37 250.13 1249.39 250.732 1249.64 251.433L1250.81 254.658L1249.64 255.085L1247.28 248.61L1248.41 248.201L1248.8 249.288ZM1252.21 246.817L1253.38 246.39L1255.74 252.865L1254.57 253.291L1252.21 246.817ZM1252.34 245.357C1252.12 245.44 1251.9 245.437 1251.69 245.347C1251.49 245.253 1251.35 245.101 1251.27 244.889C1251.2 244.677 1251.21 244.471 1251.3 244.272C1251.4 244.06 1251.56 243.913 1251.79 243.83C1252.02 243.747 1252.23 243.753 1252.43 243.846C1252.64 243.928 1252.78 244.075 1252.85 244.287C1252.93 244.506 1252.92 244.722 1252.83 244.933C1252.73 245.133 1252.57 245.274 1252.34 245.357ZM1261.48 250.346C1261.36 250.555 1261.19 250.746 1260.97 250.919C1260.75 251.084 1260.5 251.216 1260.23 251.314C1259.58 251.551 1259.01 251.559 1258.52 251.34C1258.04 251.12 1257.68 250.684 1257.44 250.033L1256.15 246.478L1255.05 246.878L1254.69 245.913L1255.79 245.513L1255.28 244.096L1256.45 243.669L1256.97 245.086L1258.82 244.41L1259.18 245.375L1257.32 246.051L1258.59 249.557C1258.72 249.907 1258.91 250.145 1259.14 250.27C1259.39 250.392 1259.68 250.394 1260 250.275C1260.36 250.145 1260.63 249.932 1260.81 249.636L1261.48 250.346ZM1266.29 241.692L1265.74 249.957C1265.71 250.717 1265.55 251.3 1265.27 251.705C1265.01 252.107 1264.61 252.403 1264.09 252.593C1263.77 252.708 1263.44 252.768 1263.1 252.772C1262.77 252.781 1262.48 252.723 1262.21 252.599L1262.39 251.537C1262.84 251.733 1263.28 251.751 1263.72 251.591C1264.01 251.487 1264.22 251.324 1264.35 251.101C1264.49 250.883 1264.57 250.563 1264.59 250.14L1264.64 249.613L1259.43 244.191L1260.65 243.746L1264.79 248.103L1265.14 242.11L1266.29 241.692Z" fill="#45465A"/>
<path d="M1232.97 295.316C1232.33 295.55 1231.67 295.68 1231 295.703C1230.33 295.716 1229.76 295.626 1229.31 295.433L1229.41 294.316C1229.84 294.49 1230.35 294.579 1230.92 294.583C1231.5 294.575 1232.06 294.474 1232.59 294.278C1233.3 294.02 1233.79 293.709 1234.05 293.346C1234.31 292.974 1234.37 292.588 1234.23 292.189C1234.12 291.896 1233.94 291.696 1233.68 291.588C1233.42 291.468 1233.13 291.412 1232.81 291.418C1232.5 291.421 1232.06 291.455 1231.51 291.519C1230.81 291.599 1230.23 291.634 1229.77 291.624C1229.33 291.612 1228.9 291.499 1228.5 291.285C1228.11 291.06 1227.81 290.675 1227.61 290.129C1227.44 289.673 1227.41 289.219 1227.52 288.766C1227.63 288.311 1227.89 287.884 1228.3 287.486C1228.7 287.089 1229.27 286.758 1230 286.494C1230.5 286.31 1231.02 286.195 1231.56 286.147C1232.09 286.1 1232.58 286.134 1233.02 286.251L1232.97 287.375C1232.53 287.277 1232.09 287.246 1231.64 287.28C1231.19 287.306 1230.76 287.39 1230.37 287.532C1229.68 287.784 1229.21 288.1 1228.95 288.48C1228.7 288.857 1228.64 289.245 1228.79 289.644C1228.9 289.937 1229.08 290.142 1229.35 290.258C1229.61 290.366 1229.9 290.421 1230.22 290.424C1230.55 290.415 1230.98 290.377 1231.52 290.31C1232.22 290.23 1232.8 290.197 1233.24 290.209C1233.69 290.222 1234.11 290.336 1234.5 290.553C1234.9 290.767 1235.2 291.143 1235.4 291.68C1235.56 292.128 1235.59 292.584 1235.48 293.048C1235.37 293.503 1235.1 293.931 1234.69 294.332C1234.27 294.724 1233.7 295.052 1232.97 295.316ZM1242.55 288.096C1242.58 288.186 1242.61 288.307 1242.65 288.459L1237.4 290.371C1237.68 290.914 1238.09 291.284 1238.65 291.48C1239.2 291.665 1239.8 291.642 1240.43 291.411C1241.21 291.129 1241.73 290.642 1242.02 289.949L1242.94 290.47C1242.77 290.919 1242.5 291.313 1242.13 291.652C1241.76 291.989 1241.31 292.255 1240.77 292.45C1240.09 292.699 1239.43 292.782 1238.8 292.697C1238.16 292.605 1237.61 292.36 1237.13 291.962C1236.66 291.56 1236.31 291.042 1236.08 290.407C1235.85 289.78 1235.79 289.163 1235.88 288.558C1235.98 287.949 1236.23 287.417 1236.61 286.963C1237.01 286.497 1237.51 286.151 1238.13 285.926C1238.75 285.701 1239.35 285.643 1239.94 285.753C1240.53 285.852 1241.05 286.105 1241.5 286.512C1241.96 286.917 1242.31 287.444 1242.55 288.096ZM1238.49 286.915C1237.93 287.12 1237.52 287.463 1237.26 287.944C1237.01 288.423 1236.95 288.951 1237.09 289.528L1241.24 288.016C1240.98 287.494 1240.6 287.132 1240.09 286.929C1239.59 286.716 1239.05 286.711 1238.49 286.915ZM1244.5 284.908C1244.57 284.459 1244.77 284.064 1245.1 283.723C1245.42 283.383 1245.87 283.109 1246.44 282.901L1246.86 284.037C1246.79 284.053 1246.7 284.081 1246.58 284.123C1245.95 284.354 1245.52 284.728 1245.29 285.244C1245.07 285.749 1245.08 286.352 1245.34 287.052L1246.51 290.277L1245.34 290.704L1242.98 284.229L1244.11 283.82L1244.5 284.908ZM1253.9 280.255L1253.42 287.761L1252.23 288.197L1247.04 282.754L1248.26 282.309L1252.37 286.692L1252.75 280.673L1253.9 280.255ZM1255 279.857L1256.17 279.43L1258.53 285.905L1257.35 286.331L1255 279.857ZM1255.13 278.397C1254.9 278.48 1254.68 278.477 1254.48 278.387C1254.28 278.293 1254.14 278.141 1254.06 277.929C1253.98 277.717 1253.99 277.511 1254.08 277.312C1254.18 277.1 1254.35 276.953 1254.57 276.87C1254.8 276.787 1255.02 276.793 1255.22 276.886C1255.42 276.968 1255.56 277.115 1255.64 277.327C1255.72 277.547 1255.71 277.762 1255.61 277.973C1255.52 278.173 1255.36 278.314 1255.13 278.397ZM1263.61 284.136C1262.95 284.376 1262.31 284.448 1261.69 284.353C1261.07 284.255 1260.52 284.01 1260.05 283.62C1259.57 283.222 1259.22 282.705 1258.99 282.07C1258.76 281.435 1258.7 280.816 1258.81 280.212C1258.92 279.6 1259.18 279.063 1259.59 278.599C1260.01 278.124 1260.55 277.767 1261.21 277.527C1261.79 277.314 1262.36 277.242 1262.9 277.312C1263.45 277.379 1263.93 277.591 1264.35 277.947L1263.67 278.846C1263.35 278.61 1263.01 278.47 1262.66 278.425C1262.3 278.38 1261.94 278.424 1261.57 278.558C1261.15 278.712 1260.8 278.945 1260.52 279.256C1260.26 279.565 1260.09 279.93 1260.02 280.352C1259.96 280.762 1260.01 281.191 1260.17 281.639C1260.34 282.095 1260.58 282.464 1260.89 282.746C1261.21 283.017 1261.58 283.185 1261.98 283.251C1262.39 283.314 1262.8 283.268 1263.23 283.114C1263.59 282.981 1263.9 282.782 1264.14 282.517C1264.39 282.253 1264.56 281.929 1264.65 281.545L1265.75 281.783C1265.66 282.323 1265.42 282.799 1265.05 283.212C1264.68 283.615 1264.2 283.922 1263.61 284.136ZM1272.33 277.254C1272.37 277.343 1272.4 277.464 1272.44 277.617L1267.19 279.529C1267.47 280.072 1267.88 280.442 1268.43 280.638C1268.99 280.823 1269.59 280.8 1270.22 280.569C1270.99 280.287 1271.52 279.8 1271.81 279.107L1272.73 279.628C1272.56 280.077 1272.29 280.471 1271.91 280.81C1271.55 281.147 1271.1 281.413 1270.56 281.608C1269.87 281.857 1269.22 281.94 1268.59 281.855C1267.95 281.763 1267.4 281.518 1266.92 281.119C1266.45 280.718 1266.1 280.2 1265.87 279.565C1265.64 278.938 1265.58 278.321 1265.67 277.716C1265.77 277.107 1266.01 276.575 1266.4 276.121C1266.8 275.655 1267.3 275.309 1267.92 275.084C1268.54 274.859 1269.14 274.801 1269.73 274.911C1270.31 275.01 1270.84 275.263 1271.29 275.67C1271.75 276.075 1272.1 276.602 1272.33 277.254ZM1268.28 276.073C1267.72 276.278 1267.31 276.621 1267.05 277.102C1266.8 277.581 1266.74 278.108 1266.88 278.686L1271.03 277.174C1270.77 276.652 1270.38 276.29 1269.88 276.087C1269.37 275.873 1268.84 275.869 1268.28 276.073Z" fill="#45465A"/>
<path opacity="0.8" fill-rule="evenodd" clip-rule="evenodd" d="M1416.48 238.405C1442.47 228.946 1455.87 200.208 1446.41 174.217C1436.95 148.227 1408.21 134.826 1382.22 144.286C1356.23 153.745 1342.83 182.483 1352.29 208.474C1361.75 234.464 1390.49 247.865 1416.48 238.405Z" stroke="#E9EBF6" stroke-width="15.9547"/>
<path d="M1371.56 233.015C1384.37 241.537 1400.91 244.069 1416.48 238.405V238.405C1442.47 228.945 1455.87 200.207 1446.41 174.216C1436.95 148.226 1408.21 134.825 1382.22 144.285" stroke="#25DBDC" stroke-width="15.9547"/>
<path d="M1447.91 203.611C1450.29 194.209 1449.97 184.018 1446.41 174.216C1436.95 148.226 1408.21 134.825 1382.22 144.285" stroke="#180868" stroke-width="15.9547"/>
<path d="M1192.24 241.925C1195.35 240.791 1196.96 237.348 1195.82 234.234C1194.69 231.12 1191.25 229.515 1188.13 230.648C1185.02 231.782 1183.41 235.225 1184.55 238.339C1185.68 241.452 1189.12 243.058 1192.24 241.925Z" fill="#5DD0D1"/>
<path d="M1203.52 272.934C1206.64 271.801 1208.24 268.358 1207.11 265.244C1205.98 262.13 1202.53 260.525 1199.42 261.658C1196.31 262.791 1194.7 266.234 1195.83 269.348C1196.97 272.462 1200.41 274.068 1203.52 272.934Z" fill="#EAEAEC"/>
<path d="M1214.81 303.944C1217.92 302.811 1219.53 299.368 1218.4 296.254C1217.26 293.14 1213.82 291.534 1210.71 292.668C1207.59 293.801 1205.99 297.244 1207.12 300.358C1208.25 303.472 1211.7 305.078 1214.81 303.944Z" fill="#180868"/>
<g filter="url(#filter3_d)">
<rect x="784" y="440.74" width="277" height="86.0546" rx="20" transform="rotate(-20 784 440.74)" fill="#FDFDFE"/>
</g>
<path d="M1046.36 391.405L1043.77 397.365C1043.71 397.505 1043.56 397.563 1043.42 397.495C1043.28 397.426 1043.22 397.259 1043.28 397.118L1045.75 391.413L1040.19 388.631C1040.06 388.562 1039.99 388.395 1040.06 388.255C1040.09 388.186 1040.14 388.135 1040.2 388.112C1040.27 388.088 1040.34 388.09 1040.41 388.126L1046.22 391.032C1046.36 391.098 1046.42 391.267 1046.36 391.405Z" fill="#CECED1" stroke="#CECED1" stroke-width="2.00173"/>
<path opacity="0.8" fill-rule="evenodd" clip-rule="evenodd" d="M839.38 488.837C849.125 485.29 854.149 474.515 850.602 464.77C847.055 455.026 836.281 450.001 826.536 453.548C816.791 457.095 811.767 467.87 815.314 477.614C818.86 487.359 829.635 492.383 839.38 488.837Z" stroke="#E9EBF6" stroke-width="6.57"/>
<path d="M839.38 488.836C849.125 485.29 854.149 474.515 850.602 464.77C847.055 455.025 836.281 450.001 826.536 453.548" stroke="#1C62F5" stroke-width="6.58"/>
<rect x="872.863" y="461.025" width="102.88" height="10" rx="5" transform="rotate(-20 872.863 461.025)" fill="#EDEFF8"/>
<rect x="865.338" y="440.351" width="51.68" height="7.88" rx="3.94" transform="rotate(-20 865.338 440.351)" fill="#B8C1E3"/>
<g filter="url(#filter4_d)">
<rect x="856" y="283.74" width="277" height="86.0546" rx="20" transform="rotate(-20 856 283.74)" fill="#FDFDFE"/>
</g>
<path d="M1118.36 234.405L1115.77 240.365C1115.71 240.506 1115.56 240.563 1115.42 240.495C1115.28 240.426 1115.22 240.259 1115.28 240.119L1117.75 234.413L1112.19 231.631C1112.06 231.563 1111.99 231.395 1112.06 231.255C1112.09 231.186 1112.14 231.135 1112.2 231.112C1112.27 231.089 1112.34 231.091 1112.41 231.126L1118.22 234.032C1118.36 234.098 1118.42 234.268 1118.36 234.405Z" fill="#CECED1" stroke="#CECED1" stroke-width="2.00173"/>
<path opacity="0.8" fill-rule="evenodd" clip-rule="evenodd" d="M911.38 331.837C921.125 328.29 926.149 317.515 922.602 307.77C919.055 298.026 908.281 293.001 898.536 296.548C888.791 300.095 883.767 310.87 887.314 320.614C890.86 330.359 901.635 335.383 911.38 331.837Z" stroke="#E9EBF6" stroke-width="6.57"/>
<path d="M911.38 331.836C921.125 328.29 926.149 317.515 922.602 307.77C919.055 298.025 908.281 293.001 898.536 296.548" stroke="#25DBDC" stroke-width="6.58"/>
<rect x="944.863" y="304.025" width="102.88" height="10" rx="5" transform="rotate(-20 944.863 304.025)" fill="#EDEFF8"/>
<rect x="937.338" y="283.351" width="51.68" height="7.88" rx="3.94" transform="rotate(-20 937.338 283.351)" fill="#B8C1E3"/>
<rect x="858" y="532.467" width="92" height="83" rx="20" transform="rotate(-20 858 532.467)" fill="#1C62F5"/>
<mask id="mask2" mask-type="alpha" maskUnits="userSpaceOnUse" x="858" y="501" width="115" height="110">
<path d="M951.292 519.795C947.514 509.415 936.037 504.064 925.658 507.841L876.794 525.626C866.414 529.404 861.062 540.881 864.84 551.261L879.547 591.667C883.325 602.047 894.802 607.399 905.181 603.621L954.045 585.836C964.425 582.058 969.777 570.581 965.999 560.202L951.292 519.795Z" fill="#FFC63A"/>
</mask>
<g mask="url(#mask2)">
<circle cx="883.857" cy="529.441" r="32" transform="rotate(160 883.857 529.441)" stroke="white" stroke-opacity="0.25" stroke-width="26.8306"/>
<circle cx="1127.53" cy="616.673" r="197.329" transform="rotate(40 1127.53 616.673)" stroke="white" stroke-opacity="0.3" stroke-width="1.34153"/>
<circle cx="721.443" cy="575.806" r="197.329" transform="rotate(40 721.443 575.806)" stroke="white" stroke-opacity="0.2" stroke-width="1.34153"/>
</g>
<rect x="1067" y="335.466" width="92" height="83" rx="20" transform="rotate(-20 1067 335.466)" fill="#30DDDE"/>
<mask id="mask3" mask-type="alpha" maskUnits="userSpaceOnUse" x="1067" y="304" width="115" height="110">
<path d="M1160.29 322.794C1156.51 312.414 1145.04 307.063 1134.66 310.84L1085.79 328.625C1075.41 332.403 1070.06 343.88 1073.84 354.26L1088.55 394.666C1092.33 405.046 1103.8 410.398 1114.18 406.62L1163.05 388.835C1173.43 385.057 1178.78 373.58 1175 363.201L1160.29 322.794Z" fill="#FFC63A"/>
</mask>
<g mask="url(#mask3)">
<circle cx="1092.86" cy="332.44" r="32" transform="rotate(160 1092.86 332.44)" stroke="white" stroke-opacity="0.25" stroke-width="26.8306"/>
<circle cx="1336.53" cy="419.672" r="197.329" transform="rotate(40 1336.53 419.672)" stroke="white" stroke-opacity="0.3" stroke-width="1.34153"/>
<circle cx="930.443" cy="378.805" r="197.329" transform="rotate(40 930.443 378.805)" stroke="white" stroke-opacity="0.2" stroke-width="1.34153"/>
</g>
<rect x="1030" y="103.466" width="92" height="83" rx="20" transform="rotate(-20 1030 103.466)" fill="#1C62F5"/>
<mask id="mask4" mask-type="alpha" maskUnits="userSpaceOnUse" x="1030" y="72" width="115" height="110">
<path d="M1123.29 90.7939C1119.51 80.4143 1108.04 75.0626 1097.66 78.8404L1048.79 96.6255C1038.41 100.403 1033.06 111.88 1036.84 122.26L1051.55 162.666C1055.33 173.046 1066.8 178.398 1077.18 174.62L1126.05 156.835C1136.43 153.057 1141.78 141.58 1138 131.201L1123.29 90.7939Z" fill="#FFC63A"/>
</mask>
<g mask="url(#mask4)">
<circle cx="1055.86" cy="100.44" r="32" transform="rotate(160 1055.86 100.44)" stroke="white" stroke-opacity="0.25" stroke-width="26.8306"/>
<circle cx="1299.53" cy="187.672" r="197.329" transform="rotate(40 1299.53 187.672)" stroke="white" stroke-opacity="0.3" stroke-width="1.34153"/>
<circle cx="893.443" cy="146.805" r="197.329" transform="rotate(40 893.443 146.805)" stroke="white" stroke-opacity="0.2" stroke-width="1.34153"/>
</g>
</g>
<defs>
<filter id="filter0_d" x="1039" y="696" width="359.727" height="245.604" filterUnits="userSpaceOnUse" color-interpolation-filters="sRGB">
<feFlood flood-opacity="0" result="BackgroundImageFix"/>
<feColorMatrix in="SourceAlpha" type="matrix" values="0 0 0 0 0 0 0 0 0 0 0 0 0 0 0 0 0 0 127 0"/>
<feOffset dy="4"/>
<feGaussianBlur stdDeviation="17.5"/>
<feColorMatrix type="matrix" values="0 0 0 0 0 0 0 0 0 0 0 0 0 0 0 0 0 0 0.1 0"/>
<feBlend mode="normal" in2="BackgroundImageFix" result="effect1_dropShadow"/>
<feBlend mode="normal" in="SourceGraphic" in2="effect1_dropShadow" result="shape"/>
</filter>
<filter id="filter1_d" x="932.15" y="142.219" width="1055.27" height="677.774" filterUnits="userSpaceOnUse" color-interpolation-filters="sRGB">
<feFlood flood-opacity="0" result="BackgroundImageFix"/>
<feColorMatrix in="SourceAlpha" type="matrix" values="0 0 0 0 0 0 0 0 0 0 0 0 0 0 0 0 0 0 127 0"/>
<feOffset dy="3.06856"/>
<feGaussianBlur stdDeviation="13.425"/>
<feColorMatrix type="matrix" values="0 0 0 0 0 0 0 0 0 0 0 0 0 0 0 0 0 0 0.1 0"/>
<feBlend mode="normal" in2="BackgroundImageFix" result="effect1_dropShadow"/>
<feBlend mode="normal" in="SourceGraphic" in2="effect1_dropShadow" result="shape"/>
</filter>
<filter id="filter2_d" x="1101" y="34" width="445.089" height="379.345" filterUnits="userSpaceOnUse" color-interpolation-filters="sRGB">
<feFlood flood-opacity="0" result="BackgroundImageFix"/>
<feColorMatrix in="SourceAlpha" type="matrix" values="0 0 0 0 0 0 0 0 0 0 0 0 0 0 0 0 0 0 127 0"/>
<feOffset dy="4"/>
<feGaussianBlur stdDeviation="17.5"/>
<feColorMatrix type="matrix" values="0 0 0 0 0 0 0 0 0 0 0 0 0 0 0 0 0 0 0.1 0"/>
<feBlend mode="normal" in2="BackgroundImageFix" result="effect1_dropShadow"/>
<feBlend mode="normal" in="SourceGraphic" in2="effect1_dropShadow" result="shape"/>
</filter>
<filter id="filter3_d" x="749" y="315" width="359.727" height="245.604" filterUnits="userSpaceOnUse" color-interpolation-filters="sRGB">
<feFlood flood-opacity="0" result="BackgroundImageFix"/>
<feColorMatrix in="SourceAlpha" type="matrix" values="0 0 0 0 0 0 0 0 0 0 0 0 0 0 0 0 0 0 127 0"/>
<feOffset dy="4"/>
<feGaussianBlur stdDeviation="17.5"/>
<feColorMatrix type="matrix" values="0 0 0 0 0 0 0 0 0 0 0 0 0 0 0 0 0 0 0.1 0"/>
<feBlend mode="normal" in2="BackgroundImageFix" result="effect1_dropShadow"/>
<feBlend mode="normal" in="SourceGraphic" in2="effect1_dropShadow" result="shape"/>
</filter>
<filter id="filter4_d" x="821" y="158" width="359.727" height="245.604" filterUnits="userSpaceOnUse" color-interpolation-filters="sRGB">
<feFlood flood-opacity="0" result="BackgroundImageFix"/>
<feColorMatrix in="SourceAlpha" type="matrix" values="0 0 0 0 0 0 0 0 0 0 0 0 0 0 0 0 0 0 127 0"/>
<feOffset dy="4"/>
<feGaussianBlur stdDeviation="17.5"/>
<feColorMatrix type="matrix" values="0 0 0 0 0 0 0 0 0 0 0 0 0 0 0 0 0 0 0.1 0"/>
<feBlend mode="normal" in2="BackgroundImageFix" result="effect1_dropShadow"/>
<feBlend mode="normal" in="SourceGraphic" in2="effect1_dropShadow" result="shape"/>
</filter>
<clipPath id="clip0">
<rect width="801.249" height="184.024" fill="white" transform="translate(1024.75 569.684) rotate(-20)"/>
</clipPath>
</defs>
</svg>
