<svg width="21" height="14" viewBox="0 0 21 14" fill="none" xmlns="http://www.w3.org/2000/svg">
<path d="M19.2735 1.33355C18.7275 0.362322 18.135 0.183677 16.9285 0.115742C15.7233 0.0339677 12.6926 0 10.067 0C7.43641 0 4.40448 0.0339678 3.20051 0.114484C1.99655 0.183677 1.40274 0.361064 0.851709 1.33355C0.289355 2.30351 0 3.97422 0 6.91558C0 6.91809 0 6.91935 0 6.91935C0 6.92186 0 6.92312 0 6.92312V6.92564C0 9.85441 0.289355 11.5377 0.851709 12.4976C1.40274 13.4688 1.99529 13.645 3.19926 13.7267C4.40448 13.7972 7.43641 13.8387 10.067 13.8387C12.6926 13.8387 15.7233 13.7972 16.9298 13.728C18.1362 13.6462 18.7288 13.4701 19.2748 12.4989C19.8422 11.539 20.129 9.85567 20.129 6.9269C20.129 6.9269 20.129 6.92312 20.129 6.92061C20.129 6.92061 20.129 6.91809 20.129 6.91683C20.129 3.97422 19.8422 2.30351 19.2735 1.33355ZM7.54838 10.6935V3.14516L13.8387 6.91935L7.54838 10.6935Z" fill="white"/>
</svg>
