<svg width="18" height="18" viewBox="0 0 18 18" fill="none" xmlns="http://www.w3.org/2000/svg">
<path d="M2.51613 17.6123C3.90575 17.6123 5.03225 16.4858 5.03225 15.0962C5.03225 13.7066 3.90575 12.5801 2.51613 12.5801C1.12651 12.5801 0 13.7066 0 15.0962C0 16.4858 1.12651 17.6123 2.51613 17.6123Z" fill="white"/>
<path d="M0 5.87109V9.22635C4.62464 9.22635 8.38751 12.988 8.38751 17.6126H11.7415C11.7415 11.1386 6.47399 5.87109 0 5.87109Z" fill="white"/>
<path d="M0 0V3.35526C7.8629 3.35526 14.2589 9.74999 14.2589 17.6129H17.6129C17.6129 7.90064 9.71225 0 0 0Z" fill="white"/>
</svg>
