<svg width="21" height="17" viewBox="0 0 21 17" fill="none" xmlns="http://www.w3.org/2000/svg">
<path d="M20.129 1.93616C19.3805 2.26451 18.5829 2.48216 17.7513 2.58784C18.6068 2.07706 19.2597 1.27442 19.5667 0.306967C18.769 0.782515 17.8884 1.11842 16.9499 1.30587C16.1925 0.499451 15.1131 0 13.9356 0C11.6509 0 9.81164 1.85439 9.81164 4.12771C9.81164 4.4548 9.83931 4.76932 9.90725 5.06874C6.47651 4.90142 3.4408 3.25713 1.40148 0.752322C1.04545 1.37003 0.836612 2.07706 0.836612 2.83819C0.836612 4.26735 1.57258 5.53422 2.66961 6.26767C2.00661 6.25509 1.35619 6.06261 0.805161 5.75942C0.805161 5.772 0.805161 5.78835 0.805161 5.80471C0.805161 7.81006 2.23558 9.47573 4.11135 9.85944C3.77545 9.95128 3.40935 9.99531 3.02942 9.99531C2.76522 9.99531 2.49851 9.98022 2.24816 9.92486C2.78284 11.5591 4.30006 12.7605 6.10412 12.7995C4.70013 13.8978 2.91745 14.5596 0.98758 14.5596C0.649161 14.5596 0.32458 14.5445 0 14.503C1.82797 15.6818 3.99435 16.3548 6.33058 16.3548C13.9242 16.3548 18.0759 10.0645 18.0759 4.61206C18.0759 4.42964 18.0696 4.25351 18.0608 4.07864C18.8798 3.49742 19.5679 2.77151 20.129 1.93616Z" fill="white"/>
</svg>
