<svg width="52" height="74" viewBox="0 0 52 74" fill="none" xmlns="http://www.w3.org/2000/svg">
<path d="M40.3808 34.2657H16.6158V25.5101C16.6158 20.6821 20.5434 16.7547 25.3714 16.7547C30.1993 16.7547 34.1269 20.6821 34.1269 25.5103V30.5134C34.1269 31.2039 34.6873 31.7643 35.3777 31.7643H40.3808C41.0712 31.7643 41.6316 31.2039 41.6316 30.5134V25.5103C41.6316 16.5446 34.337 9.25 25.3714 9.25C16.4057 9.25 9.11109 16.5446 9.11109 25.5103V34.3934C6.2593 34.9737 4.10791 37.5028 4.10791 40.5197V63.0338C4.10803 66.481 6.91221 69.2877 10.3619 69.2877H40.3808C43.8305 69.2877 46.6347 66.481 46.6347 63.0338V40.5197C46.6347 37.0724 43.8305 34.2657 40.3808 34.2657ZM28.1456 53.6029L29.1113 60.3547C29.1638 60.7149 29.0563 61.0776 28.8186 61.3503C28.5809 61.623 28.2357 61.7831 27.873 61.7831H22.8698C22.5071 61.7831 22.1619 61.6255 21.9242 61.3529C21.6865 61.0803 21.579 60.715 21.6315 60.3572L22.5972 53.6055C20.5058 52.5598 19.1175 50.4009 19.1175 48.0244C19.1175 44.5773 21.9218 41.7705 25.3714 41.7705C28.8209 41.7705 31.6252 44.5773 31.6252 48.0244C31.6252 50.4008 30.2369 52.5597 28.1456 53.6029Z" fill="#180768"/>
<path d="M28.4679 54.2303L28.9045 54.0125C31.2195 52.8577 32.7518 50.4684 32.7518 47.8496C32.7518 44.0407 29.652 40.9383 25.8405 40.9383C22.029 40.9383 18.9292 44.0407 18.9292 47.8496C18.9292 50.4685 20.4615 52.8581 22.7772 54.0159L23.2132 54.2339L23.1442 54.7164L21.9726 62.9079L21.9722 62.9104C21.9373 63.1486 22.0092 63.3936 22.168 63.5758C22.3283 63.7596 22.5614 63.8659 22.8056 63.8659H28.8756C29.1165 63.8659 29.3506 63.759 29.513 63.5728L28.4679 54.2303ZM28.4679 54.2303L28.537 54.7133M28.4679 54.2303L28.537 54.7133M28.537 54.7133L29.7085 62.9048L29.7088 62.9066M28.537 54.7133L29.7088 62.9066M29.7088 62.9066C29.744 63.1479 29.6722 63.3901 29.5131 63.5727L29.7088 62.9066Z" fill="#30DDDE" stroke="white" stroke-width="1.35236"/>
</svg>
