<svg width="64" height="47" viewBox="0 0 64 47" fill="none" xmlns="http://www.w3.org/2000/svg">
<path fill-rule="evenodd" clip-rule="evenodd" d="M0 23.5C4.9289 9.71333 17.3961 0 31.8929 0C46.3896 0 58.8568 9.71333 63.7857 23.5C58.8568 37.2867 46.3896 47 31.8929 47C17.3961 47 4.9289 37.2867 0 23.5ZM17.3958 23.5C17.3958 32.2733 23.7744 39.1666 31.8926 39.1666C40.0108 39.1666 46.3893 32.2733 46.3893 23.5C46.3893 14.7267 40.0108 7.83332 31.8926 7.83332C23.7744 7.83332 17.3958 14.7267 17.3958 23.5Z" fill="#180768"/>
<path d="M31.8931 14.1C26.9642 14.1 23.1951 18.1733 23.1951 23.5C23.1951 28.8266 26.9642 32.9 31.8931 32.9C36.822 32.9 40.5912 28.8266 40.5912 23.5C40.5912 18.1733 36.822 14.1 31.8931 14.1Z" fill="#30DDDE"/>
</svg>
