<svg width="40" height="40" viewBox="0 0 40 40" fill="none" xmlns="http://www.w3.org/2000/svg">
<path d="M19.987 39.9735C31.0253 39.9735 39.9737 31.0251 39.9737 19.9867C39.9737 8.94837 31.0253 0 19.987 0C8.94861 0 0.000244141 8.94837 0.000244141 19.9867C0.000244141 31.0251 8.94861 39.9735 19.987 39.9735Z" fill="white"/>
<path d="M20.0133 33.62C13.4481 33.62 7.83597 28.9344 6.61824 22.5015C5.24167 15.1157 10.1126 7.99461 17.4984 6.61804C20.7545 6.00918 24.1166 6.59157 26.9491 8.28581L23.8518 13.5009C20.4104 11.489 16.016 12.442 13.7658 15.7511C12.6275 17.3923 12.2039 19.4307 12.5745 21.3897C13.3687 25.4929 17.3131 28.1931 21.4428 27.399C23.4018 27.0283 25.149 25.89 26.2608 24.2487C27.8756 21.8662 28.008 18.7954 26.605 16.2805L31.8995 13.2891C35.6056 19.8543 33.276 28.1667 26.7373 31.8463C24.6725 33.0111 22.3694 33.62 20.0133 33.62Z" fill="#45D6CE"/>
<path d="M20.0133 13.5266C18.425 13.5266 16.8896 14.109 15.6983 15.1679C16.6513 15.4856 17.1808 16.518 16.8631 17.471C16.5454 18.424 15.513 18.9535 14.56 18.6358C14.2688 18.5299 14.0305 18.3711 13.8188 18.1593C12.7863 21.6007 14.7453 25.201 18.1867 26.2069C21.6282 27.2129 25.2019 25.2539 26.2079 21.8125C27.2138 18.3711 25.2549 14.7973 21.8135 13.7913C21.2311 13.6325 20.6222 13.5266 20.0133 13.5266Z" fill="#296BED"/>
<path fill-rule="evenodd" clip-rule="evenodd" d="M19.9603 0C8.92129 0.0264725 -0.0264139 9.00065 5.85896e-05 20.0397C0.0265311 31.0787 9.00071 40.0264 20.0397 39.9999C31.0788 39.9735 40 31.0258 40 20.0132C39.9735 8.9477 30.9993 0 19.9603 0ZM19.9868 34.8643C11.7803 34.8378 5.13572 28.1932 5.16219 19.9603C5.18867 11.7538 11.8333 5.10919 20.0662 5.13566C28.2727 5.16214 34.8908 11.8067 34.8908 20.0132C34.8643 28.2197 28.1933 34.8643 19.9868 34.8643Z" fill="#296BED"/>
</svg>
