<svg width="110" height="100" viewBox="0 0 110 100" fill="none" xmlns="http://www.w3.org/2000/svg">
<rect width="110" height="99.9984" rx="24.1346" fill="#180768"/>
<mask id="mask0" mask-type="alpha" maskUnits="userSpaceOnUse" x="0" y="0" width="110" height="101">
<path d="M110 24.1363C110 10.8072 99.1946 0.00171012 85.8654 0.00171152L24.1349 0.00171802C10.8057 0.00171942 0.000260519 10.8071 0.0002619 24.1363L0.00026726 75.8655C0.000268641 89.1947 10.8057 100 24.1349 100L85.8654 100C99.1946 100 110 89.1947 110 75.8655L110 24.1363Z" fill="#FFC63A"/>
</mask>
<g mask="url(#mask0)">
<ellipse cx="30.2898" cy="7.22911" rx="38.2608" ry="38.5536" transform="rotate(180 30.2898 7.22911)" stroke="white" stroke-opacity="0.25" stroke-width="32.3773"/>
<path d="M386.363 412.288C273.522 477.935 129.227 438.979 64.0742 325.267C-1.0786 211.556 37.5878 66.1585 150.429 0.510796C263.271 -65.1369 407.565 -26.1806 472.718 87.5309C537.871 201.242 499.204 346.64 386.363 412.288Z" stroke="white" stroke-opacity="0.3" stroke-width="1.61887"/>
<path d="M-53.1824 198.685C-166.024 264.332 -310.318 225.376 -375.471 111.665C-440.624 -2.04692 -401.958 -147.444 -289.116 -213.092C-176.275 -278.74 -31.9802 -239.783 33.1726 -126.072C98.3254 -12.3603 59.6589 133.037 -53.1824 198.685Z" stroke="white" stroke-opacity="0.2" stroke-width="1.61887"/>
</g>
</svg>
