<svg width="110" height="100" viewBox="0 0 110 100" fill="none" xmlns="http://www.w3.org/2000/svg">
<rect width="110" height="99.9978" rx="24.1346" fill="#C0BFDB"/>
<mask id="mask0" mask-type="alpha" maskUnits="userSpaceOnUse" x="0" y="0" width="110" height="100">
<path d="M110 24.1366C110 10.8074 99.1946 0.00195426 85.8654 0.00195566L24.1349 0.00196216C10.8057 0.00196356 0.000260519 10.8074 0.0002619 24.1366L0.00026726 75.8652C0.000268641 89.1943 10.8057 99.9998 24.1349 99.9998L85.8654 99.9998C99.1946 99.9998 110 89.1943 110 75.8652L110 24.1366Z" fill="#FFC63A"/>
</mask>
<g mask="url(#mask0)">
<ellipse cx="30.2895" cy="7.22934" rx="38.2608" ry="38.5534" transform="rotate(180 30.2895 7.22934)" stroke="white" stroke-opacity="0.25" stroke-width="32.3773"/>
<path d="M386.363 412.285C273.522 477.933 129.227 438.977 64.0742 325.266C-1.0786 211.555 37.5878 66.1583 150.429 0.511072C263.271 -65.1362 407.565 -26.1802 472.718 87.5307C537.871 201.242 499.204 346.638 386.363 412.285Z" stroke="white" stroke-opacity="0.3" stroke-width="1.61887"/>
<path d="M-53.1827 198.684C-166.024 264.331 -310.319 225.375 -375.471 111.664C-440.624 -2.0464 -401.958 -147.443 -289.116 -213.09C-176.275 -278.738 -31.9804 -239.781 33.1724 -126.071C98.3251 -12.3597 59.6587 133.037 -53.1827 198.684Z" stroke="white" stroke-opacity="0.2" stroke-width="1.61887"/>
</g>
</svg>
